<svg width="94" height="96" viewBox="0 0 94 96" fill="none" xmlns="http://www.w3.org/2000/svg">
<g clip-path="url(#clip0_368_44)">
<path d="M76.7783 71.2419C73.8492 71.2419 71.4655 73.6257 71.4655 76.5548C71.4655 79.4843 73.8492 81.8681 76.7783 81.8681C79.7079 81.8681 82.0916 79.4843 82.0916 76.5548C82.0916 73.6257 79.7079 71.2419 76.7783 71.2419Z" fill="#D5F1EC"/>
<path d="M60.8401 57.5801C59.1661 57.5801 57.8036 58.9426 57.8036 60.6165C57.8036 62.2897 59.1661 63.6519 60.8401 63.6519C62.5133 63.6519 63.8754 62.2897 63.8754 60.6165C63.8754 58.9426 62.5133 57.5801 60.8401 57.5801Z" fill="#D5F1EC"/>
<path d="M92.717 27.2211H38.0707C36.7207 27.2211 36.043 28.8584 36.9977 29.8127L45.6604 38.4757V83.3856C45.6604 89.2443 50.4275 94.0117 56.2858 94.0117H83.6091C89.4678 94.0117 94.2352 89.2443 94.2352 83.3856V28.7393C94.2352 27.901 93.5561 27.2211 92.717 27.2211ZM58.5629 80.3499C56.4694 80.3499 54.7679 78.6483 54.7679 76.5549C54.7679 74.4618 56.4694 72.7602 58.5629 72.7602C60.6557 72.7602 62.3576 74.4618 62.3576 76.5549C62.3576 78.6483 60.6557 80.3499 58.5629 80.3499ZM60.8401 66.6884C57.4911 66.6884 54.7679 63.9649 54.7679 60.6166C54.7679 57.2676 57.4911 54.5444 60.8401 54.5444C64.1884 54.5444 66.9119 57.2676 66.9119 60.6166C66.9119 63.9649 64.1884 66.6884 60.8401 66.6884ZM76.7784 84.9038C72.1757 84.9038 68.4298 81.1576 68.4298 76.5549C68.4298 71.9522 72.1757 68.2063 76.7784 68.2063C81.3811 68.2063 85.1273 71.9522 85.1273 76.5549C85.1273 81.1576 81.3811 84.9038 76.7784 84.9038ZM72.9837 59.8573C72.9837 57.7642 74.6853 56.0623 76.7784 56.0623C78.8718 56.0623 80.5734 57.7642 80.5734 59.8573C80.5734 61.9504 78.8718 63.6519 76.7784 63.6519C74.6853 63.6519 72.9837 61.9504 72.9837 59.8573ZM90.4194 50.5585C84.4689 53.8717 75.1569 53.8698 69.2095 50.5585C64.2613 47.801 55.9006 47.801 50.9521 50.5585C50.223 50.9614 49.2967 50.7033 48.8873 49.9697C48.4795 49.2372 48.7437 48.3131 49.4758 47.9057C55.4229 44.5929 64.7383 44.5929 70.6858 47.9057C75.6343 50.6602 83.9946 50.6602 88.9431 47.9057C89.6707 47.4982 90.599 47.7601 91.0079 48.4934C91.4153 49.2259 91.1519 50.1492 90.4194 50.5585Z" fill="#D5F1EC"/>
<path d="M11.4749 75.7959H37.3428C43.6028 75.7959 48.6957 70.7023 48.6957 64.4422C48.6957 57.2607 43.4705 55.402 31.9989 41.81V21.1492C32.8372 21.1492 33.5167 20.4697 33.5167 19.6318C33.5167 18.7931 32.8372 18.1135 31.9989 18.1135H16.8192C15.9809 18.1135 15.3009 18.7931 15.3009 19.6318C15.3009 20.4697 15.9809 21.1492 16.8192 21.1492V41.81C5.28632 55.4749 0.121216 57.2645 0.121216 64.4422C0.121216 70.7023 5.21488 75.7959 11.4749 75.7959ZM19.4561 43.4265C19.7128 43.1465 19.8553 42.7806 19.8553 42.4008V21.1492H28.9628V42.4008C28.9628 42.7806 29.1053 43.1465 29.3615 43.4265L40.2069 55.2572C35.5422 56.4852 29.0323 56.286 24.9761 54.6544C20.9547 53.0367 15.1883 52.6456 10.2829 53.4336L19.4561 43.4265ZM6.47309 57.5888C11.0936 55.5955 19.0472 55.5418 23.8427 57.4705C26.5548 58.5617 30.0362 59.1074 33.5167 59.1074C36.7033 59.1074 39.8611 58.627 42.458 57.7128C42.8854 58.333 45.6604 60.3463 45.6604 64.4422C45.6604 69.0291 41.9296 72.7602 37.3428 72.7602H11.4749C6.88846 72.7602 3.15731 69.0291 3.15731 64.4422C3.15731 60.301 5.99838 58.2714 6.47309 57.5888Z" fill="#138B96"/>
<path d="M74.5016 9.00562H53.2501C52.411 9.00562 51.7318 9.68556 51.7318 10.5239C51.7318 11.3618 52.411 12.0417 53.2501 12.0417V65.1702C53.2501 71.0284 58.0172 75.7959 63.8754 75.7959C69.7341 75.7959 74.5016 71.0284 74.5016 65.1702V12.0417C75.3403 12.0417 76.0194 11.3618 76.0194 10.5239C76.0194 9.68556 75.3403 9.00562 74.5016 9.00562ZM71.4655 65.1702C71.4655 69.3548 68.0605 72.7602 63.8754 72.7602C59.6911 72.7602 56.2858 69.3548 56.2858 65.1702V24.1853H71.4655V65.1702ZM71.4655 21.1492H56.2858V12.0417H71.4655V21.1492Z" fill="#138B96"/>
<path d="M28.9628 15.0774C28.9628 15.9157 29.6427 16.5957 30.4806 16.5957C31.3189 16.5957 31.9989 15.9157 31.9989 15.0774C31.9989 11.0122 28.6914 7.7047 24.6261 7.7047C21.158 7.7047 18.337 4.88404 18.337 1.41557C18.337 0.577648 17.6571 -0.102295 16.8191 -0.102295C15.9808 -0.102295 15.3009 0.577648 15.3009 1.41557C15.3009 6.55762 19.4841 10.7408 24.6261 10.7408C27.0174 10.7408 28.9628 12.6865 28.9628 15.0774Z" fill="#138B96"/>
<path d="M10.7474 5.96989C10.7474 5.13159 10.0675 4.45203 9.22917 4.45203C8.39087 4.45203 7.71094 5.13159 7.71094 5.96989C7.71094 9.67647 10.727 12.6922 14.434 12.6922C15.7489 12.6922 16.8192 13.7625 16.8192 15.0774C16.8192 15.9157 17.4988 16.5957 18.3371 16.5957C19.1754 16.5957 19.8553 15.9157 19.8553 15.0774C19.8553 12.0882 17.4232 9.65681 14.434 9.65681C12.4009 9.65681 10.7474 8.0029 10.7474 5.96989Z" fill="#138B96"/>
</g>
<defs>
<clipPath id="clip0_368_44">
<rect width="94" height="96" fill="white"/>
</clipPath>
</defs>
</svg>
