<svg width="175" height="173" viewBox="0 0 175 173" fill="none" xmlns="http://www.w3.org/2000/svg">
<g id="&#208;&#186;&#208;&#176;&#209;&#128;&#208;&#180;&#208;&#184;&#208;&#190;&#208;&#187;&#208;&#190;&#208;&#179;&#208;&#184;&#209;&#143; 1" filter="url(#filter0_d_190_676)">
<g id="&#208;&#161;&#208;&#187;&#208;&#190;&#208;&#185;_x0020_1">
<g id="_2574302348144">
<path id="Vector" d="M87.6061 128.601C88.4447 128.601 89.1239 127.921 89.1239 127.083V125.565H76.9803V127.083C76.9803 127.921 77.6602 128.601 78.4985 128.601H87.6061Z" fill="#15AD92" fill-opacity="0.180392"/>
<path id="Vector_2" d="M114.929 128.601H124.037C124.876 128.601 125.555 127.921 125.555 127.083V125.565H113.412V127.083C113.412 127.921 114.091 128.601 114.929 128.601Z" fill="#15AD92" fill-opacity="0.180392"/>
<path id="Vector_3" d="M130.109 69.4H72.4267C69.9152 69.4 67.8724 71.4429 67.8724 73.954V117.975C67.8724 120.486 69.9152 122.529 72.4267 122.529H130.109C132.621 122.529 134.663 120.486 134.663 117.975V73.954C134.663 71.4429 132.621 69.4 130.109 69.4ZM78.4985 87.6158H91.2215L95.3563 79.347C95.8704 78.3182 97.5575 78.3182 98.0719 79.347L105.822 94.8476L109.018 88.4549C109.275 87.9401 109.8 87.6158 110.376 87.6158H124.037C124.876 87.6158 125.556 88.2954 125.556 89.1333C125.556 89.972 124.876 90.6516 124.037 90.6516H111.314L107.179 98.9204C106.622 100.036 105.023 100.038 104.464 98.9204L96.714 83.4194L93.5176 89.8125C93.261 90.3269 92.7352 90.6516 92.16 90.6516H78.4985C77.6602 90.6516 76.9803 89.972 76.9803 89.1333C76.9803 88.2954 77.6602 87.6158 78.4985 87.6158ZM87.606 116.457H78.4985C77.6602 116.457 76.9803 115.777 76.9803 114.939C76.9803 114.101 77.6602 113.421 78.4985 113.421H87.606C88.4447 113.421 89.1239 114.101 89.1239 114.939C89.1239 115.777 88.4447 116.457 87.606 116.457ZM98.2318 116.457H95.1957C94.3578 116.457 93.6782 115.777 93.6782 114.939C93.6782 114.101 94.3578 113.421 95.1957 113.421H98.2318C99.0701 113.421 99.7501 114.101 99.7501 114.939C99.7501 115.777 99.0701 116.457 98.2318 116.457ZM107.34 116.457H104.304C103.466 116.457 102.786 115.777 102.786 114.939C102.786 114.101 103.466 113.421 104.304 113.421H107.34C108.178 113.421 108.858 114.101 108.858 114.939C108.858 115.777 108.178 116.457 107.34 116.457ZM124.037 116.457H114.929C114.091 116.457 113.412 115.777 113.412 114.939C113.412 114.101 114.091 113.421 114.929 113.421H124.037C124.876 113.421 125.556 114.101 125.556 114.939C125.556 115.777 124.876 116.457 124.037 116.457ZM130.112 108.783L72.4286 108.867C72.4278 108.867 72.4271 108.867 72.4267 108.867C71.5888 108.867 70.9096 108.189 70.9085 107.351C70.9066 106.513 71.5858 105.833 72.4241 105.831L130.107 105.747C130.108 105.747 130.109 105.747 130.109 105.747C130.947 105.747 131.626 106.426 131.627 107.263C131.629 108.102 130.95 108.782 130.112 108.783Z" fill="#15AD92" fill-opacity="0.180392"/>
<path id="Vector_4" d="M77.7747 105.648C78.2264 105.893 78.7702 105.893 79.2215 105.648C111.611 88.089 116.448 69.377 116.448 59.7857C116.448 46.4504 107.779 36.0045 96.7139 36.0045C87.0293 36.0045 80.9835 41.9051 78.4985 44.9669C76.0131 41.9051 69.967 36.0045 60.2823 36.0045C49.217 36.0045 40.5486 46.4504 40.5486 59.7857C40.5486 69.377 45.3853 88.089 77.7747 105.648ZM43.5851 59.7857C43.5851 47.9592 50.7636 39.0406 60.2823 39.0406C71.3287 39.0406 77.1314 48.2181 77.204 48.3348C77.7921 49.2937 79.1947 49.3035 79.7919 48.3348C79.8493 48.2422 85.6531 39.0406 96.7139 39.0406C106.233 39.0406 113.412 47.9592 113.412 59.7857C113.412 62.3539 113.021 65.6341 111.735 69.4H93.0984L88.964 61.1312C88.3714 59.9478 86.5992 60.0321 86.166 61.3296L78.7068 83.7082L70.8631 52.334C70.481 50.8067 68.3002 50.8067 67.9181 52.334L63.651 69.4H45.2621C43.9752 65.6341 43.5851 62.3539 43.5851 59.7857ZM64.8366 72.4361C65.5332 72.4361 66.1402 71.9618 66.3092 71.2864L69.3902 58.961L77.0256 89.5022C77.3922 90.9664 79.4555 91.0598 79.9385 89.6141L87.8868 65.7664L90.802 71.5971C91.0594 72.1111 91.5847 72.4361 92.16 72.4361H110.536C106.619 81.1892 97.751 92.0009 78.4985 102.584C59.2456 92.0009 50.3781 81.1892 46.461 72.4361H64.8366Z" fill="#138B96"/>
</g>
</g>
</g>
<defs>
<filter id="filter0_d_190_676" x="-5" y="-11" width="201" height="191" filterUnits="userSpaceOnUse" color-interpolation-filters="sRGB">
<feFlood flood-opacity="0" result="BackgroundImageFix"/>
<feColorMatrix in="SourceAlpha" type="matrix" values="0 0 0 0 0 0 0 0 0 0 0 0 0 0 0 0 0 0 127 0" result="hardAlpha"/>
<feOffset dy="4"/>
<feGaussianBlur stdDeviation="20"/>
<feComposite in2="hardAlpha" operator="out"/>
<feColorMatrix type="matrix" values="0 0 0 0 0 0 0 0 0 0 0 0 0 0 0 0 0 0 0.25 0"/>
<feBlend mode="normal" in2="BackgroundImageFix" result="effect1_dropShadow_190_676"/>
<feBlend mode="normal" in="SourceGraphic" in2="effect1_dropShadow_190_676" result="shape"/>
</filter>
</defs>
</svg>
