<svg width="94" height="93" viewBox="0 0 94 93" fill="none" xmlns="http://www.w3.org/2000/svg">
<g clip-path="url(#clip0_368_32)">
<path d="M46.606 92.601C47.4447 92.601 48.1238 91.9211 48.1238 91.0828V89.5649H35.9802V91.0828C35.9802 91.9211 36.6602 92.601 37.4985 92.601H46.606Z" fill="#15AD92" fill-opacity="0.180392"/>
<path d="M73.9293 92.601H83.0372C83.8755 92.601 84.5555 91.9211 84.5555 91.0828V89.5649H72.4119V91.0828C72.4119 91.9211 73.091 92.601 73.9293 92.601Z" fill="#15AD92" fill-opacity="0.180392"/>
<path d="M89.109 33.4H31.4266C28.9151 33.4 26.8723 35.4429 26.8723 37.954V81.9749C26.8723 84.486 28.9151 86.5292 31.4266 86.5292H89.109C91.6205 86.5292 93.6634 84.486 93.6634 81.9749V37.954C93.6634 35.4429 91.6205 33.4 89.109 33.4ZM37.4985 51.6158H50.2215L54.3563 43.347C54.8703 42.3182 56.5575 42.3182 57.0719 43.347L64.8218 58.8476L68.0181 52.4549C68.2748 51.9401 68.8001 51.6158 69.3757 51.6158H83.0372C83.8755 51.6158 84.5555 52.2954 84.5555 53.1333C84.5555 53.972 83.8755 54.6516 83.0372 54.6516H70.3142L66.1794 62.9204C65.6215 64.0361 64.0228 64.0384 63.4638 62.9204L55.7139 47.4194L52.5175 53.8125C52.2609 54.3269 51.7352 54.6516 51.1599 54.6516H37.4985C36.6602 54.6516 35.9802 53.972 35.9802 53.1333C35.9802 52.2954 36.6602 51.6158 37.4985 51.6158ZM46.606 80.457H37.4985C36.6602 80.457 35.9802 79.7775 35.9802 78.9392C35.9802 78.1013 36.6602 77.4213 37.4985 77.4213H46.606C47.4447 77.4213 48.1238 78.1013 48.1238 78.9392C48.1238 79.7775 47.4447 80.457 46.606 80.457ZM57.2317 80.457H54.1957C53.3577 80.457 52.6782 79.7775 52.6782 78.9392C52.6782 78.1013 53.3577 77.4213 54.1957 77.4213H57.2317C58.07 77.4213 58.75 78.1013 58.75 78.9392C58.75 79.7775 58.07 80.457 57.2317 80.457ZM66.34 80.457H63.3036C62.4656 80.457 61.7857 79.7775 61.7857 78.9392C61.7857 78.1013 62.4656 77.4213 63.3036 77.4213H66.34C67.178 77.4213 67.8575 78.1013 67.8575 78.9392C67.8575 79.7775 67.178 80.457 66.34 80.457ZM83.0372 80.457H73.9293C73.091 80.457 72.4118 79.7775 72.4118 78.9392C72.4118 78.1013 73.091 77.4213 73.9293 77.4213H83.0372C83.8755 77.4213 84.5555 78.1013 84.5555 78.9392C84.5555 79.7775 83.8755 80.457 83.0372 80.457ZM89.1117 72.7835L31.4285 72.8674C31.4278 72.8674 31.427 72.8674 31.4266 72.8674C30.5887 72.8674 29.9095 72.1889 29.9084 71.3514C29.9065 70.5135 30.5857 69.8332 31.424 69.8313L89.1071 69.7474C89.1079 69.7474 89.1087 69.7474 89.109 69.7474C89.947 69.7474 90.6258 70.4258 90.6273 71.2633C90.6288 72.1016 89.95 72.7819 89.1117 72.7835Z" fill="#15AD92" fill-opacity="0.180392"/>
<path d="M36.7747 69.6476C37.2263 69.8925 37.7702 69.8925 38.2215 69.6476C70.6113 52.089 75.4475 33.377 75.4475 23.7857C75.4475 10.4504 66.7792 0.0045166 55.7139 0.0045166C46.0292 0.0045166 39.9835 5.90512 37.4984 8.96692C35.013 5.90512 28.9669 0.0045166 19.2822 0.0045166C8.21693 0.0045166 -0.451416 10.4504 -0.451416 23.7857C-0.451416 33.377 4.38524 52.089 36.7747 69.6476ZM2.58505 23.7857C2.58505 11.9592 9.76351 3.04061 19.2822 3.04061C30.3287 3.04061 36.1314 12.2181 36.2039 12.3348C36.792 13.2937 38.1946 13.3035 38.7918 12.3348C38.8492 12.2422 44.6531 3.04061 55.7139 3.04061C65.233 3.04061 72.4118 11.9592 72.4118 23.7857C72.4118 26.3539 72.0214 29.6341 70.7345 33.4H52.0984L47.9639 25.1312C47.3713 23.9478 45.5991 24.0321 45.166 25.3296L37.7067 47.7082L29.863 16.334C29.4809 14.8067 27.3001 14.8067 26.918 16.334L22.6509 33.4H4.26203C2.9751 29.6341 2.58505 26.3539 2.58505 23.7857ZM23.8366 36.4361C24.5332 36.4361 25.1401 35.9618 25.3091 35.2864L28.3902 22.961L36.0256 53.5022C36.3922 54.9664 38.4554 55.0598 38.9384 53.6141L46.8868 29.7664L49.8019 35.5971C50.0593 36.1111 50.5847 36.4361 51.1599 36.4361H69.5356C65.6185 45.1892 56.751 56.0009 37.4984 66.5839C18.2455 56.0009 9.378 45.1892 5.4609 36.4361H23.8366Z" fill="#138B96"/>
</g>
<defs>
<clipPath id="clip0_368_32">
<rect width="94" height="93" fill="white"/>
</clipPath>
</defs>
</svg>
