<svg width="161" height="172" viewBox="0 0 161 172" fill="none" xmlns="http://www.w3.org/2000/svg">
<g clip-path="url(#clip0_368_61)" filter="url(#filter0_d_368_61)">
<path d="M104.89 71.8657C104.89 70.2223 103.552 68.8851 101.909 68.8851H85.5155C83.8725 68.8851 82.5349 70.2223 82.5349 71.8657V74.8462H101.909C103.552 74.8462 104.89 73.5086 104.89 71.8657Z" fill="#D5F1EC"/>
<path d="M97.438 98.6917H85.5155C83.8725 98.6917 82.5349 100.029 82.5349 101.672C82.5349 103.316 83.8725 104.653 85.5155 104.653H97.438C99.0813 104.653 100.419 103.316 100.419 101.672C100.419 100.029 99.0813 98.6917 97.438 98.6917Z" fill="#D5F1EC"/>
<path d="M109.361 83.7882H101.909C100.266 83.7882 98.9282 85.1258 98.9282 86.7691C98.9282 88.4121 100.266 89.7497 101.909 89.7497H112.341V86.7691C112.341 85.1258 111.004 83.7882 109.361 83.7882Z" fill="#D5F1EC"/>
<path d="M88.4964 113.595H85.5155C83.8725 113.595 82.5349 114.933 82.5349 116.575V119.556H88.4964C90.1393 119.556 91.4765 118.218 91.4765 116.575C91.4765 114.933 90.1393 113.595 88.4964 113.595Z" fill="#D5F1EC"/>
<path d="M116.812 53.9817H78.0637C75.5983 53.9817 73.5929 55.9875 73.5929 58.4529V124.027C73.5929 126.492 75.5983 128.498 78.0637 128.498H116.812C119.278 128.498 121.283 126.492 121.283 124.027V58.4529C121.283 55.9875 119.278 53.9817 116.812 53.9817ZM88.4963 122.537H81.0446C80.2207 122.537 79.554 121.87 79.554 121.046V116.575C79.554 113.287 82.2272 110.614 85.5154 110.614H88.4963C91.7838 110.614 94.4574 113.287 94.4574 116.575C94.4574 119.863 91.7838 122.537 88.4963 122.537ZM97.4379 107.633H85.5154C82.2272 107.633 79.554 104.96 79.554 101.672C79.554 98.3843 82.2272 95.7107 85.5154 95.7107H97.4379C100.726 95.7107 103.399 98.3843 103.399 101.672C103.399 104.96 100.726 107.633 97.4379 107.633ZM79.554 76.3365V71.8657C79.554 68.5778 82.2272 65.9046 85.5154 65.9046H101.909C105.197 65.9046 107.871 68.5778 107.871 71.8657C107.871 75.1535 105.197 77.8271 101.909 77.8271H81.0446C80.2207 77.8271 79.554 77.1604 79.554 76.3365ZM115.322 91.2399C115.322 92.0638 114.656 92.7305 113.832 92.7305H101.909C98.6213 92.7305 95.948 90.0565 95.948 86.7691C95.948 83.4813 98.6213 80.8073 101.909 80.8073H109.361C112.648 80.8073 115.322 83.4813 115.322 86.7691V91.2399ZM116.812 62.9237H78.0637C77.2398 62.9237 76.5734 62.257 76.5734 61.4334C76.5734 60.6095 77.2398 59.9431 78.0637 59.9431H116.812C117.636 59.9431 118.302 60.6095 118.302 61.4334C118.302 62.257 117.636 62.9237 116.812 62.9237Z" fill="#D5F1EC"/>
<path d="M110.851 53.9818H88.4964V40.5686C88.4964 38.1032 86.4906 36.0978 84.0248 36.0978H45.2767C42.8113 36.0978 40.8059 38.1032 40.8059 40.5686V106.143C40.8059 108.609 42.8113 110.614 45.2767 110.614H84.0248C86.4906 110.614 88.4964 108.609 88.4964 106.143V86.7692H110.851C113.316 86.7692 115.322 84.7634 115.322 82.298V58.4529C115.322 55.9875 113.316 53.9818 110.851 53.9818ZM43.7861 40.5686C43.7861 39.7465 44.4543 39.0787 45.2767 39.0787H84.0248C84.8476 39.0787 85.5155 39.7465 85.5155 40.5686V45.0401H43.7861V40.5686ZM85.5155 106.143C85.5155 106.965 84.8476 107.633 84.0248 107.633H45.2767C44.4543 107.633 43.7861 106.965 43.7861 106.143V101.672H85.5155V106.143ZM85.5155 98.6917H43.7861V48.0203H85.5155V53.9818H72.1027C69.6369 53.9818 67.6315 55.9875 67.6315 58.4529V82.298C67.6315 84.7634 69.6369 86.7692 72.1027 86.7692H76.5735V94.2205C76.5735 95.044 77.2398 95.7108 78.0637 95.7108C80.9812 95.7108 83.6204 94.5043 85.5155 92.5677V98.6917ZM112.341 82.298C112.341 83.1204 111.673 83.7882 110.851 83.7882H87.0057C86.1822 83.7882 85.5155 84.4549 85.5155 85.2789C85.5155 88.8777 82.951 91.8878 79.554 92.5806V85.2789C79.554 84.4549 78.8877 83.7882 78.0637 83.7882H72.1027C71.2799 83.7882 70.612 83.1204 70.612 82.298V58.4529C70.612 57.6305 71.2799 56.9627 72.1027 56.9627H110.851C111.673 56.9627 112.341 57.6305 112.341 58.4529V82.298Z" fill="#138B96"/>
<path d="M52.7284 74.8463H63.1603C63.9842 74.8463 64.6509 74.1796 64.6509 73.3564C64.6509 72.5325 63.9842 71.8658 63.1603 71.8658H52.7284C51.9056 71.8658 51.2377 71.1979 51.2377 70.3755V64.414C51.2377 63.5916 51.9056 62.9238 52.7284 62.9238H63.1603C63.9842 62.9238 64.6509 62.2571 64.6509 61.4335C64.6509 60.6096 63.9842 59.9432 63.1603 59.9432H52.7284C50.263 59.9432 48.2576 61.9487 48.2576 64.414V70.3755C48.2576 72.8409 50.263 74.8463 52.7284 74.8463Z" fill="#138B96"/>
<path d="M72.1026 89.7497H52.7284C51.9056 89.7497 51.2377 89.0818 51.2377 88.259V82.298C51.2377 81.4759 51.9056 80.8073 52.7284 80.8073H63.1603C63.9842 80.8073 64.6509 80.141 64.6509 79.3174C64.6509 78.4939 63.9842 77.8271 63.1603 77.8271H52.7284C50.263 77.8271 48.2576 79.8326 48.2576 82.298V88.259C48.2576 90.7244 50.263 92.7306 52.7284 92.7306H72.1026C72.9262 92.7306 73.5929 92.0639 73.5929 91.2399C73.5929 90.4164 72.9262 89.7497 72.1026 89.7497Z" fill="#138B96"/>
<path fill-rule="evenodd" clip-rule="evenodd" d="M90.5585 68.4528L86.3636 64.2522L82.3218 68.4732L90.5604 77.0629L90.5585 68.4528Z" fill="#138B96"/>
<path fill-rule="evenodd" clip-rule="evenodd" d="M90.1715 68.553L94.5882 64.3524L103.034 64.3411L90.1692 77.1631L90.1715 68.553Z" fill="#138B96"/>
</g>
<defs>
<filter id="filter0_d_368_61" x="-6" y="-2" width="167" height="174" filterUnits="userSpaceOnUse" color-interpolation-filters="sRGB">
<feFlood flood-opacity="0" result="BackgroundImageFix"/>
<feColorMatrix in="SourceAlpha" type="matrix" values="0 0 0 0 0 0 0 0 0 0 0 0 0 0 0 0 0 0 127 0" result="hardAlpha"/>
<feOffset dy="4"/>
<feGaussianBlur stdDeviation="20"/>
<feComposite in2="hardAlpha" operator="out"/>
<feColorMatrix type="matrix" values="0 0 0 0 0 0 0 0 0 0 0 0 0 0 0 0 0 0 0.25 0"/>
<feBlend mode="normal" in2="BackgroundImageFix" result="effect1_dropShadow_368_61"/>
<feBlend mode="normal" in="SourceGraphic" in2="effect1_dropShadow_368_61" result="shape"/>
</filter>
<clipPath id="clip0_368_61">
<rect width="87" height="94" fill="white" transform="translate(34 34)"/>
</clipPath>
</defs>
</svg>
