<svg width="87" height="94" viewBox="0 0 87 94" fill="none" xmlns="http://www.w3.org/2000/svg">
<g clip-path="url(#clip0_368_61)">
<path d="M70.8897 37.8657C70.8897 36.2223 69.5521 34.8851 67.9092 34.8851H51.5155C49.8725 34.8851 48.5349 36.2223 48.5349 37.8657V40.8462H67.9092C69.5521 40.8462 70.8897 39.5086 70.8897 37.8657Z" fill="#D5F1EC"/>
<path d="M63.438 64.6917H51.5155C49.8725 64.6917 48.5349 66.0292 48.5349 67.6722C48.5349 69.3155 49.8725 70.6527 51.5155 70.6527H63.438C65.0813 70.6527 66.4189 69.3155 66.4189 67.6722C66.4189 66.0292 65.0813 64.6917 63.438 64.6917Z" fill="#D5F1EC"/>
<path d="M75.3608 49.7882H67.9091C66.2658 49.7882 64.9282 51.1258 64.9282 52.7691C64.9282 54.4121 66.2658 55.7497 67.9091 55.7497H78.3414V52.7691C78.3414 51.1258 77.0038 49.7882 75.3608 49.7882Z" fill="#D5F1EC"/>
<path d="M54.4964 79.5951H51.5155C49.8725 79.5951 48.5349 80.9327 48.5349 82.5753V85.5562H54.4964C56.1393 85.5562 57.4765 84.2182 57.4765 82.5753C57.4765 80.9327 56.1393 79.5951 54.4964 79.5951Z" fill="#D5F1EC"/>
<path d="M82.8122 19.9817H44.0637C41.5983 19.9817 39.5929 21.9875 39.5929 24.4529V90.0269C39.5929 92.4923 41.5983 94.4977 44.0637 94.4977H82.8122C85.2776 94.4977 87.2834 92.4923 87.2834 90.0269V24.4529C87.2834 21.9875 85.2776 19.9817 82.8122 19.9817ZM54.4963 88.5367H47.0446C46.2207 88.5367 45.554 87.8699 45.554 87.046V82.5752C45.554 79.2874 48.2272 76.6141 51.5154 76.6141H54.4963C57.7838 76.6141 60.4574 79.2874 60.4574 82.5752C60.4574 85.8634 57.7838 88.5367 54.4963 88.5367ZM63.4379 73.6332H51.5154C48.2272 73.6332 45.554 70.9599 45.554 67.6721C45.554 64.3843 48.2272 61.7107 51.5154 61.7107H63.4379C66.7257 61.7107 69.399 64.3843 69.399 67.6721C69.399 70.9599 66.7257 73.6332 63.4379 73.6332ZM45.554 42.3365V37.8657C45.554 34.5778 48.2272 31.9046 51.5154 31.9046H67.9091C71.1966 31.9046 73.8706 34.5778 73.8706 37.8657C73.8706 41.1535 71.1966 43.8271 67.9091 43.8271H47.0446C46.2207 43.8271 45.554 43.1604 45.554 42.3365ZM81.3219 57.2399C81.3219 58.0638 80.6556 58.7305 79.8316 58.7305H67.9091C64.6213 58.7305 61.948 56.0565 61.948 52.7691C61.948 49.4813 64.6213 46.8073 67.9091 46.8073H75.3608C78.6483 46.8073 81.3219 49.4813 81.3219 52.7691V57.2399ZM82.8122 28.9237H44.0637C43.2398 28.9237 42.5734 28.257 42.5734 27.4334C42.5734 26.6095 43.2398 25.9431 44.0637 25.9431H82.8122C83.6357 25.9431 84.3024 26.6095 84.3024 27.4334C84.3024 28.257 83.6357 28.9237 82.8122 28.9237Z" fill="#D5F1EC"/>
<path d="M76.8507 19.9818H54.4964V6.56858C54.4964 4.1032 52.4906 2.09778 50.0248 2.09778H11.2767C8.81133 2.09778 6.80591 4.1032 6.80591 6.56858V72.1434C6.80591 74.6088 8.81133 76.6142 11.2767 76.6142H50.0248C52.4906 76.6142 54.4964 74.6088 54.4964 72.1434V52.7692H76.8507C79.3161 52.7692 81.3219 50.7634 81.3219 48.298V24.4529C81.3219 21.9875 79.3161 19.9818 76.8507 19.9818ZM9.78607 6.56858C9.78607 5.74654 10.4543 5.0787 11.2767 5.0787H50.0248C50.8476 5.0787 51.5155 5.74654 51.5155 6.56858V11.0401H9.78607V6.56858ZM51.5155 72.1434C51.5155 72.9654 50.8476 73.6333 50.0248 73.6333H11.2767C10.4543 73.6333 9.78607 72.9654 9.78607 72.1434V67.6722H51.5155V72.1434ZM51.5155 64.6917H9.78607V14.0203H51.5155V19.9818H38.1027C35.6369 19.9818 33.6315 21.9875 33.6315 24.4529V48.298C33.6315 50.7634 35.6369 52.7692 38.1027 52.7692H42.5735V60.2205C42.5735 61.044 43.2398 61.7108 44.0637 61.7108C46.9812 61.7108 49.6204 60.5043 51.5155 58.5677V64.6917ZM78.3414 48.298C78.3414 49.1204 77.6732 49.7882 76.8507 49.7882H53.0057C52.1822 49.7882 51.5155 50.4549 51.5155 51.2789C51.5155 54.8777 48.951 57.8878 45.554 58.5806V51.2789C45.554 50.4549 44.8877 49.7882 44.0637 49.7882H38.1027C37.2799 49.7882 36.612 49.1204 36.612 48.298V24.4529C36.612 23.6305 37.2799 22.9627 38.1027 22.9627H76.8507C77.6732 22.9627 78.3414 23.6305 78.3414 24.4529V48.298Z" fill="#138B96"/>
<path d="M18.7284 40.8463H29.1603C29.9842 40.8463 30.6509 40.1796 30.6509 39.3564C30.6509 38.5325 29.9842 37.8658 29.1603 37.8658H18.7284C17.9056 37.8658 17.2377 37.1979 17.2377 36.3755V30.414C17.2377 29.5916 17.9056 28.9238 18.7284 28.9238H29.1603C29.9842 28.9238 30.6509 28.2571 30.6509 27.4335C30.6509 26.6096 29.9842 25.9432 29.1603 25.9432H18.7284C16.263 25.9432 14.2576 27.9487 14.2576 30.414V36.3755C14.2576 38.8409 16.263 40.8463 18.7284 40.8463Z" fill="#138B96"/>
<path d="M38.1026 55.7497H18.7284C17.9056 55.7497 17.2377 55.0818 17.2377 54.259V48.298C17.2377 47.4759 17.9056 46.8073 18.7284 46.8073H29.1603C29.9842 46.8073 30.6509 46.141 30.6509 45.3174C30.6509 44.4939 29.9842 43.8271 29.1603 43.8271H18.7284C16.263 43.8271 14.2576 45.8326 14.2576 48.298V54.259C14.2576 56.7244 16.263 58.7306 18.7284 58.7306H38.1026C38.9262 58.7306 39.5929 58.0639 39.5929 57.2399C39.5929 56.4164 38.9262 55.7497 38.1026 55.7497Z" fill="#138B96"/>
<path fill-rule="evenodd" clip-rule="evenodd" d="M56.5585 34.4528L52.3636 30.2522L48.3218 34.4732L56.5604 43.0629L56.5585 34.4528Z" fill="#138B96"/>
<path fill-rule="evenodd" clip-rule="evenodd" d="M56.1715 34.553L60.5882 30.3524L69.0343 30.3411L56.1692 43.1631L56.1715 34.553Z" fill="#138B96"/>
</g>
<defs>
<clipPath id="clip0_368_61">
<rect width="87" height="94" fill="white"/>
</clipPath>
</defs>
</svg>
