<svg width="113" height="102" viewBox="0 0 113 102" fill="none" xmlns="http://www.w3.org/2000/svg">
<path d="M96.3662 39.1364H55.2948C53.1715 39.1364 51.4442 40.8632 51.4442 42.9866V91.7591C51.4442 93.882 53.1715 95.6093 55.2948 95.6093H96.3662C98.4891 95.6093 100.216 93.882 100.216 91.7591V42.9866C100.216 40.8632 98.4891 39.1364 96.3662 39.1364ZM60.4285 50.6877H75.8305C76.5392 50.6877 77.1136 51.2618 77.1136 51.9709C77.1136 52.6803 76.5392 53.2544 75.8305 53.2544H60.4285C59.7199 53.2544 59.145 52.6803 59.145 51.9709C59.145 51.2618 59.7199 50.6877 60.4285 50.6877ZM91.2321 87.9081H60.4285C59.7199 87.9081 59.145 87.334 59.145 86.6246C59.145 85.9156 59.7199 85.3415 60.4285 85.3415H91.2321C91.9407 85.3415 92.5156 85.9156 92.5156 86.6246C92.5156 87.334 91.9407 87.9081 91.2321 87.9081ZM91.2321 80.2077H60.4285C59.7199 80.2077 59.145 79.6336 59.145 78.9242C59.145 78.2144 59.7199 77.6403 60.4285 77.6403H91.2321C91.9407 77.6403 92.5156 78.2144 92.5156 78.9242C92.5156 79.6336 91.9407 80.2077 91.2321 80.2077ZM91.2321 72.5065H60.4285C59.7199 72.5065 59.145 71.9324 59.145 71.223C59.145 70.5136 59.7199 69.9395 60.4285 69.9395H91.2321C91.9407 69.9395 92.5156 70.5136 92.5156 71.223C92.5156 71.9324 91.9407 72.5065 91.2321 72.5065ZM91.2321 64.8058H60.4285C59.7199 64.8058 59.145 64.2317 59.145 63.5219C59.145 62.8128 59.7199 62.2387 60.4285 62.2387H91.2321C91.9407 62.2387 92.5156 62.8128 92.5156 63.5219C92.5156 64.2317 91.9407 64.8058 91.2321 64.8058ZM91.2321 53.2544H88.665V55.8215C88.665 56.5309 88.0905 57.105 87.3819 57.105C86.6732 57.105 86.0983 56.5309 86.0983 55.8215V53.2544H83.5313C82.8222 53.2544 82.2478 52.6803 82.2478 51.9709C82.2478 51.2618 82.8222 50.6877 83.5313 50.6877H86.0983V48.1203C86.0983 47.4109 86.6732 46.8368 87.3819 46.8368C88.0905 46.8368 88.665 47.4109 88.665 48.1203V50.6877H91.2321C91.9407 50.6877 92.5156 51.2618 92.5156 51.9709C92.5156 52.6803 91.9407 53.2544 91.2321 53.2544Z" fill="#D5F1EC"/>
<path fill-rule="evenodd" clip-rule="evenodd" d="M40.9382 45.3704C40.9382 46.135 42.9187 47.928 43.3673 48.228C44.0068 48.0576 44.3889 47.4211 44.8319 46.9782L64.5504 27.2589C65.0244 26.7792 65.467 26.2233 66.3726 26.2233C67.6481 26.2233 69.4336 27.8379 68.463 29.5988C68.025 30.394 66.142 32.0978 65.408 32.8318L52.9053 45.3348C51.9533 46.2865 47.0648 51.0442 46.654 51.6576C47.4776 52.209 48.3688 53.6324 49.24 53.9434C50.3394 54.3358 51.3969 52.8444 52.0478 52.1935L83.9836 20.2577C85.4165 18.8271 85.8057 18.2946 85.8057 16.364C85.8057 14.7014 84.6235 13.8245 83.7693 12.9704C81.6626 10.8633 79.9751 8.31133 76.9598 9.37526C75.666 9.83221 74.7597 10.906 73.8386 11.827L43.4032 42.2625C42.7592 42.9061 40.9382 44.3476 40.9382 45.3704Z" fill="#138B96"/>
<path fill-rule="evenodd" clip-rule="evenodd" d="M12.6462 77.8063C12.6462 78.7395 18.1322 78.95 18.7128 79.0369C20.0677 79.2399 23.642 78.6 25.0968 78.1113C28.6779 76.9079 31.4373 75.1123 33.8388 72.1359C35.9867 69.4743 37.7147 65.9692 39.2711 62.8507C40.083 61.2244 42.8776 56.2018 44.2548 54.8313C44.5953 54.4927 44.9691 54.326 45.225 53.9439L40.8306 49.4791C40.0157 50.0355 17.4421 72.7962 14.3251 75.9131C13.9763 76.262 12.6462 77.3513 12.6462 77.8063Z" fill="#138B96"/>
<path fill-rule="evenodd" clip-rule="evenodd" d="M55.2272 75.8062C54.9841 76.8489 55.0843 77.1328 55.0843 78.3781C55.0843 78.9386 55.7911 79.0925 56.3705 79.0925C58.0917 79.0925 64.62 79.3733 65.8011 78.8067C65.9542 78.1487 66.3367 75.6629 65.2293 75.6629C63.7832 75.6629 56.0107 75.5019 55.2272 75.8062Z" fill="#138B96"/>
<path fill-rule="evenodd" clip-rule="evenodd" d="M40.7955 76.3776C40.7955 77.895 40.506 79.0924 41.9388 79.0924H50.369C51.9708 79.0924 51.6552 78.4045 51.6552 76.5204C51.6552 76.0816 51.5229 75.6628 51.0837 75.6628H41.5098C41.1768 75.6628 40.7955 76.0442 40.7955 76.3776Z" fill="#138B96"/>
<path fill-rule="evenodd" clip-rule="evenodd" d="M69.3736 76.2347C69.3736 78.0205 69.0531 79.0924 70.3737 79.0924H79.0896C80.7923 79.0924 80.4646 75.6628 79.5186 75.6628H69.945C69.6106 75.6628 69.3736 75.9002 69.3736 76.2347Z" fill="#138B96"/>
<path fill-rule="evenodd" clip-rule="evenodd" d="M29.7928 79.0924C31.1743 79.0924 32.5553 79.0924 33.9367 79.0924C37.7718 79.0924 37.3663 79.5437 37.3663 76.2347C37.3663 75.3775 35.9304 75.6629 34.3653 75.6629C34.0716 75.6629 31.92 77.5969 30.929 78.2281C30.0151 78.8097 29.9822 78.5697 29.7928 79.0924Z" fill="#138B96"/>
</svg>
