<svg width="169" height="167" viewBox="0 0 169 167" fill="none" xmlns="http://www.w3.org/2000/svg">
<g filter="url(#filter0_d_368_111)">
<path d="M124.366 66.1364H83.2948C81.1715 66.1364 79.4442 67.8632 79.4442 69.9866V118.759C79.4442 120.882 81.1715 122.609 83.2948 122.609H124.366C126.489 122.609 128.216 120.882 128.216 118.759V69.9866C128.216 67.8632 126.489 66.1364 124.366 66.1364ZM88.4285 77.6877H103.83C104.539 77.6877 105.114 78.2618 105.114 78.9709C105.114 79.6803 104.539 80.2544 103.83 80.2544H88.4285C87.7199 80.2544 87.145 79.6803 87.145 78.9709C87.145 78.2618 87.7199 77.6877 88.4285 77.6877ZM119.232 114.908H88.4285C87.7199 114.908 87.145 114.334 87.145 113.625C87.145 112.916 87.7199 112.341 88.4285 112.341H119.232C119.941 112.341 120.516 112.916 120.516 113.625C120.516 114.334 119.941 114.908 119.232 114.908ZM119.232 107.208H88.4285C87.7199 107.208 87.145 106.634 87.145 105.924C87.145 105.214 87.7199 104.64 88.4285 104.64H119.232C119.941 104.64 120.516 105.214 120.516 105.924C120.516 106.634 119.941 107.208 119.232 107.208ZM119.232 99.5065H88.4285C87.7199 99.5065 87.145 98.9324 87.145 98.223C87.145 97.5136 87.7199 96.9395 88.4285 96.9395H119.232C119.941 96.9395 120.516 97.5136 120.516 98.223C120.516 98.9324 119.941 99.5065 119.232 99.5065ZM119.232 91.8058H88.4285C87.7199 91.8058 87.145 91.2317 87.145 90.5219C87.145 89.8128 87.7199 89.2387 88.4285 89.2387H119.232C119.941 89.2387 120.516 89.8128 120.516 90.5219C120.516 91.2317 119.941 91.8058 119.232 91.8058ZM119.232 80.2544H116.665V82.8215C116.665 83.5309 116.091 84.105 115.382 84.105C114.673 84.105 114.098 83.5309 114.098 82.8215V80.2544H111.531C110.822 80.2544 110.248 79.6803 110.248 78.9709C110.248 78.2618 110.822 77.6877 111.531 77.6877H114.098V75.1203C114.098 74.4109 114.673 73.8368 115.382 73.8368C116.091 73.8368 116.665 74.4109 116.665 75.1203V77.6877H119.232C119.941 77.6877 120.516 78.2618 120.516 78.9709C120.516 79.6803 119.941 80.2544 119.232 80.2544Z" fill="#D5F1EC"/>
<path fill-rule="evenodd" clip-rule="evenodd" d="M68.9382 72.3704C68.9382 73.135 70.9187 74.928 71.3673 75.228C72.0068 75.0576 72.3889 74.4211 72.8319 73.9782L92.5504 54.2589C93.0244 53.7792 93.467 53.2233 94.3726 53.2233C95.6481 53.2233 97.4336 54.8379 96.463 56.5988C96.025 57.394 94.142 59.0978 93.408 59.8318L80.9053 72.3348C79.9533 73.2865 75.0648 78.0442 74.654 78.6576C75.4776 79.209 76.3688 80.6324 77.24 80.9434C78.3394 81.3358 79.3969 79.8444 80.0478 79.1935L111.984 47.2577C113.416 45.8271 113.806 45.2946 113.806 43.364C113.806 41.7014 112.624 40.8245 111.769 39.9704C109.663 37.8633 107.975 35.3113 104.96 36.3753C103.666 36.8322 102.76 37.906 101.839 38.827L71.4032 69.2625C70.7592 69.9061 68.9382 71.3476 68.9382 72.3704Z" fill="#138B96"/>
<path fill-rule="evenodd" clip-rule="evenodd" d="M40.6462 104.806C40.6462 105.739 46.1322 105.95 46.7128 106.037C48.0677 106.24 51.642 105.6 53.0968 105.111C56.6779 103.908 59.4373 102.112 61.8388 99.1359C63.9867 96.4743 65.7147 92.9692 67.2711 89.8507C68.083 88.2244 70.8776 83.2018 72.2548 81.8313C72.5953 81.4927 72.9691 81.326 73.225 80.9439L68.8306 76.4791C68.0157 77.0355 45.4421 99.7962 42.3251 102.913C41.9763 103.262 40.6462 104.351 40.6462 104.806Z" fill="#138B96"/>
<path fill-rule="evenodd" clip-rule="evenodd" d="M83.2272 102.806C82.9841 103.849 83.0843 104.133 83.0843 105.378C83.0843 105.939 83.7911 106.092 84.3705 106.092C86.0917 106.092 92.62 106.373 93.8011 105.807C93.9542 105.149 94.3367 102.663 93.2293 102.663C91.7832 102.663 84.0107 102.502 83.2272 102.806Z" fill="#138B96"/>
<path fill-rule="evenodd" clip-rule="evenodd" d="M68.7955 103.378C68.7955 104.895 68.506 106.092 69.9388 106.092H78.369C79.9708 106.092 79.6552 105.405 79.6552 103.52C79.6552 103.082 79.5229 102.663 79.0837 102.663H69.5098C69.1768 102.663 68.7955 103.044 68.7955 103.378Z" fill="#138B96"/>
<path fill-rule="evenodd" clip-rule="evenodd" d="M97.3736 103.235C97.3736 105.021 97.0531 106.092 98.3737 106.092H107.09C108.792 106.092 108.465 102.663 107.519 102.663H97.945C97.6106 102.663 97.3736 102.9 97.3736 103.235Z" fill="#138B96"/>
<path fill-rule="evenodd" clip-rule="evenodd" d="M57.7928 106.092C59.1743 106.092 60.5553 106.092 61.9367 106.092C65.7718 106.092 65.3663 106.544 65.3663 103.235C65.3663 102.378 63.9304 102.663 62.3653 102.663C62.0716 102.663 59.92 104.597 58.929 105.228C58.0151 105.81 57.9822 105.57 57.7928 106.092Z" fill="#138B96"/>
</g>
<defs>
<filter id="filter0_d_368_111" x="-12" y="-9" width="193" height="182" filterUnits="userSpaceOnUse" color-interpolation-filters="sRGB">
<feFlood flood-opacity="0" result="BackgroundImageFix"/>
<feColorMatrix in="SourceAlpha" type="matrix" values="0 0 0 0 0 0 0 0 0 0 0 0 0 0 0 0 0 0 127 0" result="hardAlpha"/>
<feOffset dy="4"/>
<feGaussianBlur stdDeviation="20"/>
<feComposite in2="hardAlpha" operator="out"/>
<feColorMatrix type="matrix" values="0 0 0 0 0 0 0 0 0 0 0 0 0 0 0 0 0 0 0.25 0"/>
<feBlend mode="normal" in2="BackgroundImageFix" result="effect1_dropShadow_368_111"/>
<feBlend mode="normal" in="SourceGraphic" in2="effect1_dropShadow_368_111" result="shape"/>
</filter>
</defs>
</svg>
