<svg width="160" height="171" viewBox="0 0 160 171" fill="none" xmlns="http://www.w3.org/2000/svg">
<g clip-path="url(#clip0_368_137)" filter="url(#filter0_d_368_137)">
<path d="M85.7888 105.859H90.2849V101.362H85.7888V105.859Z" fill="#D5F1EC"/>
<path d="M85.7888 117.099H90.2849V112.602H85.7888V117.099Z" fill="#D5F1EC"/>
<path d="M85.7888 94.618H90.2849V90.1218H85.7888V94.618Z" fill="#D5F1EC"/>
<path d="M116.138 77.7575H115.014V82.2536C115.014 82.8742 114.511 83.3776 113.89 83.3776C113.269 83.3776 112.766 82.8742 112.766 82.2536C112.766 81.9626 112.766 75.0869 112.766 75.5094C112.766 74.8888 112.262 74.3854 111.641 74.3854C111.021 74.3854 110.517 74.8888 110.517 75.5094V77.7575H106.021V82.2536C106.021 82.8742 105.518 83.3776 104.897 83.3776C104.277 83.3776 103.774 82.8742 103.774 82.2536C103.774 81.9626 103.774 75.0869 103.774 75.5094C103.774 74.8888 103.27 74.3854 102.649 74.3854C102.029 74.3854 101.525 74.8888 101.525 75.5094V77.7575H97.0291V82.2536C97.0291 82.8742 96.5256 83.3776 95.905 83.3776C95.2844 83.3776 94.781 82.8742 94.781 82.2536C94.781 81.9626 94.781 75.0869 94.781 75.5094C94.781 74.8888 94.2779 74.3854 93.657 74.3854C93.0364 74.3854 92.5329 74.8888 92.5329 75.5094V77.7575H88.0368V82.2536C88.0368 82.8742 87.5334 83.3776 86.9128 83.3776C86.2922 83.3776 85.7888 82.8742 85.7888 82.2536C85.7888 81.9626 85.7888 75.0869 85.7888 75.5094C85.7888 74.8888 85.2857 74.3854 84.6647 74.3854C84.0437 74.3854 83.5407 74.8888 83.5407 75.5094V77.7575H80.1686C78.3091 77.7575 76.7965 79.27 76.7965 81.1296V123.843C76.7965 125.703 78.3091 127.215 80.1686 127.215H116.138C117.997 127.215 119.51 125.703 119.51 123.843V81.1296C119.51 79.27 117.997 77.7575 116.138 77.7575ZM92.5329 118.223C92.5329 118.844 92.0295 119.347 91.4089 119.347H84.6647C84.0437 119.347 83.5407 118.844 83.5407 118.223V111.479C83.5407 110.858 84.0437 110.355 84.6647 110.355H91.4089C92.0295 110.355 92.5329 110.858 92.5329 111.479V118.223ZM92.5329 106.982C92.5329 107.603 92.0295 108.106 91.4089 108.106H84.6647C84.0437 108.106 83.5407 107.603 83.5407 106.982V100.238C83.5407 99.6175 84.0437 99.1141 84.6647 99.1141H91.4089C92.0295 99.1141 92.5329 99.6175 92.5329 100.238V106.982ZM92.5329 95.742C92.5329 96.3629 92.0295 96.866 91.4089 96.866H84.6647C84.0437 96.866 83.5407 96.3629 83.5407 95.742V88.9978C83.5407 88.3772 84.0437 87.8737 84.6647 87.8737H91.4089C92.0295 87.8737 92.5329 88.3772 92.5329 88.9978V95.742ZM111.641 115.975H98.1531C97.5325 115.975 97.0291 115.471 97.0291 114.851C97.0291 114.23 97.5325 113.726 98.1531 113.726H111.641C112.262 113.726 112.766 114.23 112.766 114.851C112.766 115.471 112.262 115.975 111.641 115.975ZM111.641 104.734H98.1531C97.5325 104.734 97.0291 104.231 97.0291 103.61C97.0291 102.99 97.5325 102.486 98.1531 102.486H111.641C112.262 102.486 112.766 102.99 112.766 103.61C112.766 104.231 112.262 104.734 111.641 104.734ZM111.641 93.4939H98.1531C97.5325 93.4939 97.0291 92.9905 97.0291 92.3699C97.0291 91.7493 97.5325 91.2458 98.1531 91.2458H111.641C112.262 91.2458 112.766 91.7493 112.766 92.3699C112.766 92.9905 112.262 93.4939 111.641 93.4939Z" fill="#D5F1EC"/>
<path fill-rule="evenodd" clip-rule="evenodd" d="M51.3981 39.3472C51.3981 43.1162 51.2408 44.2338 53.1457 47.4437C53.4659 47.9831 53.7818 48.4158 53.9296 49.0508C50.8546 49.0508 49.2063 49.9393 47.7826 51.6228C43.5079 56.6767 40.007 63.4311 40.007 70.2857C40.007 72.5228 40.0946 74.9054 40.4473 77.0178C40.651 78.2378 40.843 80.2704 42.1167 80.2704C45.042 80.2704 40.1933 74.9213 43.0189 65C44.1667 60.9695 45.8289 57.8779 48.2641 54.6358C49.8609 52.5098 50.5201 51.3007 53.6484 51.3007C54.5608 51.3007 55.3946 51.7924 55.9619 52.2214C57.7193 53.5503 58.2197 56.7399 58.9756 59.333C59.4783 61.058 59.9802 62.6877 60.4795 64.4387C61.1243 66.6989 61.9501 67.8951 64.4768 67.8951C66.0713 67.8951 67.2891 66.4842 67.6085 65.1202C67.7763 64.4028 67.6606 63.2051 67.7045 62.2633C67.8084 60.0296 70.9069 59.9872 71.0868 62.1287C71.2296 63.8268 70.8245 65.7072 72.1726 66.9491C72.8949 67.6143 73.9622 67.8951 75.0239 67.8951C76.0822 67.8951 76.6124 67.3668 77.1714 66.8081C77.916 66.0643 77.9738 65.6868 78.289 64.5506C79.0173 61.9276 80.474 56.6454 81.3319 54.2336C81.6415 53.3636 82.1011 52.7804 82.7549 52.2815C84.8529 50.6805 87.4018 51.0607 89.1956 52.8794C89.6189 53.3092 89.8718 53.7574 90.2316 54.234C90.6137 54.7405 90.935 55.174 91.3171 55.6801C96.8148 62.9598 98.158 73.2825 94.5527 82.0801C93.5511 84.5243 92.4728 86.3865 89.6511 86.8854C87.5319 87.2599 85.7974 86.3294 84.616 84.8818C83.3192 83.2933 83.5358 82.5468 81.3746 80.8102C79.5283 79.3267 77.0769 78.7235 73.7581 78.7235H65.1797C61.2479 78.7235 58.2874 79.3444 56.0586 82.1182L54.3525 84.6312C52.2711 87.6012 48.3952 87.6432 45.9457 85.1604C45.5591 84.7688 45.3157 84.4181 45.0689 83.9275C44.7665 83.3254 44.539 82.8016 43.8042 82.8016C40.5327 82.8016 45.2684 89.13 49.2887 89.13C51.6067 89.13 54.0127 88.5707 55.4803 86.7436C56.6229 85.321 57.2847 83.57 58.8517 82.5204C58.8517 83.9574 58.3966 86.9481 60.961 87.1613V89.2706C59.9897 89.3515 58.8517 90.3656 58.8517 91.3804V95.5991C58.8517 96.609 60.001 97.6287 60.961 97.7084V99.8178C59.9897 99.8987 58.8517 100.913 58.8517 101.928V106.146C58.8517 107.093 60.0139 108.256 60.961 108.256H77.8366C78.7834 108.256 79.946 107.093 79.946 106.146C79.946 104.072 80.6127 100.049 77.8366 99.8178V97.7084C80.6078 97.4779 79.946 93.5608 79.946 91.6615C79.946 90.4392 78.9459 89.3628 77.8366 89.2706V87.1613C80.2574 86.9598 79.946 84.3281 79.946 82.5204C80.7034 83.0276 81.3266 83.6879 81.8051 84.4582C82.8536 86.1461 83.5403 87.4152 85.4743 88.3832C88.8041 90.0492 93.468 88.7657 95.2708 85.6105C97.2513 82.1436 98.7903 77.5843 98.7903 72.9578V70.5669C98.7903 63.1511 95.2606 56.8823 91.0778 51.7006C89.4727 49.7114 87.5863 49.0508 84.868 49.0508C85.0158 48.4158 85.3318 47.9831 85.6519 47.4437C85.9728 46.9029 86.2321 46.4641 86.5107 45.9119C87.4767 43.9957 87.3992 41.8961 87.3992 39.6284C87.3992 37.8604 86.1728 36.2533 84.4463 36.2533C79.3964 36.2533 82.1687 41.2903 76.6071 42.618C75.6264 42.852 74.7763 42.6796 73.6995 43.0855C72.9312 43.3751 72.2055 43.9428 71.7656 44.5267C70.6812 45.9678 70.962 49.0508 69.3988 49.0508C67.9082 49.0508 68.0624 46.2343 67.2505 44.8702C66.2157 43.1305 64.2742 42.7223 62.0858 42.7223C60.7297 42.7223 60.7418 44.5395 62.0609 44.8566C62.5424 44.9727 63.2352 44.8956 63.886 45.0006C64.9836 45.1779 65.5339 46.0196 65.7743 47.0499C66.2535 49.1022 66.7044 51.3007 69.3988 51.3007C71.6008 51.3007 72.4289 49.7209 72.8333 47.8444C73.5083 44.7111 74.0722 45.2867 76.7149 44.8351C79.463 44.3657 81.4177 42.7155 82.5266 40.3809C82.8577 39.6828 83.1469 38.3627 84.0241 38.3627C85.6406 38.3627 85.1493 40.387 85.1493 42.7223C85.1493 44.0588 84.5751 44.9791 84.0498 45.8416C83.4553 46.8175 82.1487 49.9299 81.9083 50.1695C81.0836 50.9923 79.6036 51.8212 79.102 53.9725C77.7425 53.9725 76.3834 53.9732 75.0239 53.9725C73.6466 53.9721 71.93 53.7359 71.93 55.0976C71.93 56.4613 73.2668 56.2236 74.6021 56.2228C75.8679 56.2217 77.1333 56.2228 78.399 56.2228C78.32 57.1719 77.2172 60.3565 76.9318 61.3652C76.544 62.7357 76.1245 65.7854 74.6021 65.7854C72.6065 65.7854 73.6115 62.4042 73.0971 60.962C71.8593 57.4905 66.783 57.5075 65.665 61.0674C65.2126 62.5085 66.232 66.0757 63.9612 65.7355C62.604 65.5322 62.2276 62.5089 61.8575 61.3732C61.4989 60.2722 60.4746 57.139 60.3983 56.2228C61.9921 56.2228 63.5859 56.2228 65.1797 56.2228C66.7668 56.2228 69.1173 56.6839 69.1173 55.0976C69.1173 53.4479 66.1518 53.9725 65.0391 53.9725C63.2579 53.9725 61.4766 53.9725 59.6953 53.9725C59.0611 51.2505 57.0655 50.8366 56.5522 49.6623C56.0276 48.4604 55.4762 47.0442 54.8015 45.9285C53.2788 43.4102 53.6484 42.1036 53.6484 39.2066C53.6484 38.645 54.8613 37.4401 55.839 39.8284C57.3546 43.5312 58.9923 42.5814 58.9923 41.316C58.9923 40.7226 58.5153 40.3027 58.2428 39.8151C57.2235 37.9911 57.0677 36.2533 54.3514 36.2533C52.798 36.2533 51.3981 37.7833 51.3981 39.3472Z" fill="#138B96"/>
<path fill-rule="evenodd" clip-rule="evenodd" d="M80.2272 66.6294C80.2272 68.7414 82.0527 70.5669 84.1647 70.5669C86.2661 70.5669 88.1026 68.7248 88.1026 66.6294C88.1026 64.517 86.2771 62.6919 84.1647 62.6919C82.0527 62.6919 80.2272 64.517 80.2272 66.6294Z" fill="#138B96"/>
<path fill-rule="evenodd" clip-rule="evenodd" d="M52.5232 69.7233C52.5232 72.2991 54.2939 73.942 56.4607 73.942C58.2942 73.942 60.2576 72.2144 60.2576 70.4263V69.5827C60.2576 66.9684 56.3904 64.6958 53.8184 67.0811C53.2228 67.6336 52.5232 68.6333 52.5232 69.7233Z" fill="#138B96"/>
<path fill-rule="evenodd" clip-rule="evenodd" d="M66.1643 72.6766C66.1643 77.0529 72.6333 76.8273 72.6333 72.8172C72.6333 68.383 66.1643 68.6741 66.1643 72.6766Z" fill="#138B96"/>
<path fill-rule="evenodd" clip-rule="evenodd" d="M86.9774 74.2232C86.9774 78.5617 93.0806 78.7027 93.3875 74.4564C93.5069 72.8009 91.8746 71.1296 90.2119 71.1296C88.5395 71.1296 86.9774 72.5727 86.9774 74.2232Z" fill="#138B96"/>
<path fill-rule="evenodd" clip-rule="evenodd" d="M82.7587 57.207C82.7587 59.1879 84.2372 60.5821 85.8522 60.5821C88.7946 60.5821 90.2399 57.2229 88.2847 55.1967C87.3977 54.2771 86.2706 53.9048 84.8446 54.3708C83.8116 54.7084 82.7587 55.9046 82.7587 57.207Z" fill="#138B96"/>
<path fill-rule="evenodd" clip-rule="evenodd" d="M48.5854 58.7539C48.5854 60.0087 48.4557 60.6206 49.5998 61.6778C51.6116 63.5365 54.9138 62.1903 54.9138 59.1757C54.9138 56.5641 51.5247 55.0772 49.6701 56.8853C49.254 57.2909 48.5854 58.0181 48.5854 58.7539Z" fill="#138B96"/>
<path fill-rule="evenodd" clip-rule="evenodd" d="M46.7576 81.5358C46.7576 82.3593 47.148 83.0748 47.5645 83.5416C49.1459 85.3146 51.8777 84.9139 52.8592 82.8563C53.9262 80.6189 52.338 78.3016 49.8511 78.3016C48.1647 78.3016 46.7576 79.8392 46.7576 81.5358Z" fill="#138B96"/>
<path fill-rule="evenodd" clip-rule="evenodd" d="M79.1021 72.6766C79.1021 74.0111 81.3524 74.2239 81.3524 72.6766C81.3524 71.1289 79.1021 71.3416 79.1021 72.6766Z" fill="#138B96"/>
<path fill-rule="evenodd" clip-rule="evenodd" d="M87.8214 82.9422C87.8214 83.4959 88.2799 84.0674 88.9462 84.0674C89.6125 84.0674 90.0714 83.4959 90.0714 82.9422C90.0714 81.5627 87.8214 81.5627 87.8214 82.9422Z" fill="#138B96"/>
<path fill-rule="evenodd" clip-rule="evenodd" d="M85.1493 80.2704C85.1493 80.8237 85.6081 81.3956 86.2741 81.3956C86.9408 81.3956 87.3992 80.8237 87.3992 80.2704C87.3992 78.8905 85.1493 78.8905 85.1493 80.2704Z" fill="#138B96"/>
<path fill-rule="evenodd" clip-rule="evenodd" d="M75.1646 74.0826C75.1646 74.7629 75.6094 75.2077 76.2897 75.2077C77.4447 75.2077 78.1697 73.0984 76.0085 73.0984C75.6109 73.0984 75.1646 73.685 75.1646 74.0826Z" fill="#138B96"/>
<path fill-rule="evenodd" clip-rule="evenodd" d="M48.3042 72.9577C48.3042 74.9035 50.4135 74.4971 50.4135 73.2389C50.4135 71.6217 48.3042 72.0042 48.3042 72.9577Z" fill="#138B96"/>
<path fill-rule="evenodd" clip-rule="evenodd" d="M45.0696 75.9107C45.0696 76.591 45.5144 77.0359 46.1947 77.0359C47.453 77.0359 47.8593 74.9265 45.9136 74.9265C45.5159 74.9265 45.0696 75.5131 45.0696 75.9107Z" fill="#138B96"/>
<path fill-rule="evenodd" clip-rule="evenodd" d="M44.5072 71.9732C44.5072 73.7504 46.6166 73.5591 46.6166 72.2544C46.6166 70.5801 44.5072 71.0008 44.5072 71.9732Z" fill="#138B96"/>
<path fill-rule="evenodd" clip-rule="evenodd" d="M76.0085 70.4262C76.0085 71.5098 78.1179 72.1485 78.1179 70.145C78.1179 69.1057 76.0085 68.8452 76.0085 70.4262Z" fill="#138B96"/>
</g>
<defs>
<filter id="filter0_d_368_137" x="-8" y="-8" width="168" height="179" filterUnits="userSpaceOnUse" color-interpolation-filters="sRGB">
<feFlood flood-opacity="0" result="BackgroundImageFix"/>
<feColorMatrix in="SourceAlpha" type="matrix" values="0 0 0 0 0 0 0 0 0 0 0 0 0 0 0 0 0 0 127 0" result="hardAlpha"/>
<feOffset dy="4"/>
<feGaussianBlur stdDeviation="20"/>
<feComposite in2="hardAlpha" operator="out"/>
<feColorMatrix type="matrix" values="0 0 0 0 0 0 0 0 0 0 0 0 0 0 0 0 0 0 0.25 0"/>
<feBlend mode="normal" in2="BackgroundImageFix" result="effect1_dropShadow_368_137"/>
<feBlend mode="normal" in="SourceGraphic" in2="effect1_dropShadow_368_137" result="shape"/>
</filter>
<clipPath id="clip0_368_137">
<rect width="88" height="99" fill="white" transform="translate(32 28)"/>
</clipPath>
</defs>
</svg>
