<svg width="96" height="94" viewBox="0 0 96 94" fill="none" xmlns="http://www.w3.org/2000/svg">
<g clip-path="url(#clip0_368_54)">
<path d="M45.9146 31.4111C38.949 39.6013 29.4011 43.9803 29.4011 56.0993C29.4011 65.7054 36.2319 73.6246 45.181 75.435C44.7925 73.5887 44.5809 71.6921 44.5809 69.7608C44.5809 53.9038 56.6712 47.5807 61.9841 41.0413L52.3546 31.4111C52.3546 31.4111 52.3546 31.4111 52.3546 31.4099C50.5801 29.6415 47.6922 29.6366 45.9146 31.4111Z" fill="#D5F1EC"/>
<path d="M75.124 38.6338C73.348 36.8574 70.46 36.8574 68.6844 38.6338C59.4926 49.3847 47.6166 54.7901 47.6166 69.7608C47.6166 83.1835 58.4804 94.0481 71.9042 94.0481C85.3268 94.0481 96.1914 83.1846 96.1914 69.7608C96.1914 54.7811 84.3831 49.4629 75.124 38.6338ZM90.1196 71.2791C89.2806 71.2791 88.6018 70.5999 88.6018 69.7608C88.6018 65.3002 86.8647 61.1084 83.7115 57.9536C83.1184 57.361 83.1184 56.3998 83.7115 55.8072C84.3045 55.2142 85.2652 55.2142 85.8582 55.8072C89.5848 59.5338 91.6379 64.4895 91.6379 69.7608C91.6379 70.5999 90.9587 71.2791 90.1196 71.2791Z" fill="#D5F1EC"/>
<path d="M26.3654 25.7396H29.4011V28.7757C29.4011 29.6147 30.0799 30.2939 30.919 30.2939C31.758 30.2939 32.4372 29.6147 32.4372 28.7757V25.7396H35.4729C36.312 25.7396 36.9908 25.0608 36.9908 24.2221C36.9908 23.383 36.312 22.7039 35.4729 22.7039H32.4372V19.6678C32.4372 18.8287 31.758 18.1499 30.919 18.1499C30.0799 18.1499 29.4011 18.8287 29.4011 19.6678V22.7039H26.3654C25.5263 22.7039 24.8472 23.383 24.8472 24.2221C24.8472 25.0608 25.5263 25.7396 26.3654 25.7396Z" fill="#138B96"/>
<path d="M76.4581 54.5811H71.9042C70.2306 54.5811 68.8681 53.219 68.8681 51.5454V33.3296C68.8681 29.9809 66.1453 27.2578 62.7962 27.2578C59.4476 27.2578 56.7244 29.9809 56.7244 33.3296V60.653C56.7244 67.3491 51.2766 72.7966 44.5808 72.7966C37.8846 72.7966 32.4372 67.3491 32.4372 60.653V57.6172H43.0626C47.2473 57.6172 50.6526 54.2119 50.6526 50.0272V16.632C50.6526 12.447 47.2473 9.04237 43.0626 9.04237H32.4372V2.97017H40.0269C40.8655 2.97017 41.5447 2.29137 41.5447 1.45232C41.5447 0.61326 40.8655 -0.065918 40.0269 -0.065918H9.66743C5.48274 -0.065918 2.07739 3.33943 2.07739 7.52412V74.3148C2.07739 75.1539 2.75657 75.8327 3.59563 75.8327C4.43468 75.8327 5.11348 75.1539 5.11348 74.3148V7.52412C5.11348 5.013 7.15631 2.97017 9.66743 2.97017H29.4011V9.04237H18.7753C14.5903 9.04237 11.1857 12.447 11.1857 16.632V50.0272C11.1857 54.2119 14.5903 57.6172 18.7753 57.6172H29.4011V60.653C29.4011 69.0227 36.2111 75.8327 44.5808 75.8327C52.9502 75.8327 59.7605 69.0227 59.7605 60.653V33.3296C59.7605 31.656 61.1227 30.2939 62.7962 30.2939C64.4702 30.2939 65.8323 31.656 65.8323 33.3296V51.5454C65.8323 54.8941 68.5551 57.6172 71.9042 57.6172H76.4581C77.2972 57.6172 77.976 56.9384 77.976 56.0994C77.976 55.2599 77.2972 54.5811 76.4581 54.5811ZM14.221 16.632C14.221 14.1209 16.2642 12.0777 18.7753 12.0777H43.0626C45.5737 12.0777 47.6165 14.1209 47.6165 16.632V39.2196C43.049 41.5478 35.9888 41.4484 31.7032 38.8606C26.8745 35.9466 19.6669 35.5743 14.221 37.7339V16.632ZM18.7753 54.5811C16.2642 54.5811 14.221 52.5387 14.221 50.0272V41.1015C18.7886 38.7733 25.8491 38.873 30.1347 41.4601C34.9154 44.3454 42.0958 44.777 47.6165 42.5868V50.0272C47.6165 52.5387 45.5737 54.5811 43.0626 54.5811H18.7753Z" fill="#138B96"/>
</g>
<defs>
<clipPath id="clip0_368_54">
<rect width="96" height="94" fill="white"/>
</clipPath>
</defs>
</svg>
