<svg width="261" height="226" viewBox="0 0 261 226" fill="none" xmlns="http://www.w3.org/2000/svg">
<g id="&#208;&#189;&#208;&#181;&#208;&#178;&#209;&#128;&#208;&#190;&#208;&#187;&#208;&#190;&#208;&#179;&#208;&#184;&#209;&#143; 1" filter="url(#filter0_d_190_753)">
<g id="&#208;&#161;&#208;&#187;&#208;&#190;&#208;&#185;_x0020_1">
<path id="Vector" fill-rule="evenodd" clip-rule="evenodd" d="M183.331 123.222C182.714 123.222 178.469 121.062 173.779 124.524C171.688 126.068 171.307 127.322 170.909 127.612C170.686 127.774 167.303 128.424 164.948 131.579C163.881 133.008 162.812 134.935 162.812 137.387C161.081 138.303 159.474 140.001 158.968 142.016C158.82 142.608 158.82 143.205 158.674 143.84C158.61 144.12 155.822 148.6 157.742 153.047C158.715 155.299 157.85 156.762 159.783 159.347C160.812 160.723 162.394 161.854 164.268 162.01C164.268 162.854 163.99 162.868 164.343 164.583C164.795 166.789 166.223 168.429 168.026 169.637C169.177 170.408 170.622 170.937 172.282 171.206C173.656 171.429 176.532 171.348 177.507 170.88C177.95 171.542 179.028 172.215 180.154 171.674C180.154 172.865 180.154 174.057 180.154 175.248C180.154 178.279 180.214 177.897 182.44 180.112C183.265 180.933 183.397 181.735 184.655 181.735C185.009 181.735 185.434 181.222 185.53 180.889C185.885 179.663 184.932 173.997 186.49 169.67C187.14 167.864 188.05 166.837 189.479 165.775C190.918 164.707 191.539 163.253 191.539 160.819C191.926 160.909 192.287 161.092 192.712 161.235C197.412 162.809 202.575 161.767 206.367 158.834C208.362 157.292 209.23 154.957 209.808 152.479C216.72 152.479 216.745 148.269 217.534 147.627C218.023 147.229 218.228 147.318 218.889 146.467C221.135 143.575 220.002 141.662 220.002 140.564C220.002 140.164 220.266 139.765 220.266 138.049C220.266 134.828 218.15 131.892 215.608 130.262C215.303 130.066 215.122 130.004 214.834 129.846C214.172 129.483 214.148 129.1 213.67 128.495C213.453 128.221 213.259 128.084 213.018 127.823C212.431 127.185 212.563 127.233 211.739 126.586C210.798 125.845 209.801 125.308 208.537 124.89C207.676 124.605 207.368 124.664 206.416 124.496C205.643 124.361 205.31 123.934 204.773 123.623C199.026 120.295 194.049 122.012 193.242 121.793C190.478 121.045 189.348 120.672 186.093 121.748C185.494 121.946 185.141 122.089 184.612 122.384C184.419 122.491 183.34 123.222 183.331 123.222Z" fill="#D5F1EC"/>
<path id="Vector_2" d="M144.051 157.102C144.051 157.102 149.816 147.928 147.391 138.891C144.966 129.854 134.815 122.118 140.381 106.371C145.948 90.6252 167.95 87.6125 179.017 94.664C190.083 101.716 188.451 116.161 188.186 117.599C192.904 124.377 197.225 127.937 189.885 130.881C189.168 131.429 190.999 147.997 184.451 148.545C177.903 149.093 172.79 147.244 171.949 152.105C171.091 156.965 171.355 161.347 171.355 161.347" stroke="#138B96" stroke-width="2.67024" stroke-miterlimit="10" stroke-linecap="round" stroke-linejoin="round"/>
<path id="Vector_3" d="M180.492 114.19H173.12L166.49 104.981L163.175 126.206L158.383 109.279L153.716 114.436H144.142" stroke="#138B96" stroke-width="2.67024" stroke-miterlimit="10" stroke-linecap="round" stroke-linejoin="round"/>
</g>
</g>
<defs>
<filter id="filter0_d_190_753" x="-40" y="-36" width="325.669" height="268.976" filterUnits="userSpaceOnUse" color-interpolation-filters="sRGB">
<feFlood flood-opacity="0" result="BackgroundImageFix"/>
<feColorMatrix in="SourceAlpha" type="matrix" values="0 0 0 0 0 0 0 0 0 0 0 0 0 0 0 0 0 0 127 0" result="hardAlpha"/>
<feOffset dy="4"/>
<feGaussianBlur stdDeviation="20"/>
<feComposite in2="hardAlpha" operator="out"/>
<feColorMatrix type="matrix" values="0 0 0 0 0 0 0 0 0 0 0 0 0 0 0 0 0 0 0.25 0"/>
<feBlend mode="normal" in2="BackgroundImageFix" result="effect1_dropShadow_190_753"/>
<feBlend mode="normal" in="SourceGraphic" in2="effect1_dropShadow_190_753" result="shape"/>
</filter>
</defs>
</svg>
