<svg width="163" height="173" viewBox="0 0 163 173" fill="none" xmlns="http://www.w3.org/2000/svg">
<g clip-path="url(#clip0_368_87)" filter="url(#filter0_d_368_87)">
<path fill-rule="evenodd" clip-rule="evenodd" d="M86.3313 70.2218C85.7141 70.2218 81.4686 68.0621 76.7785 71.5242C74.6877 73.0677 74.3075 74.3218 73.9087 74.6117C73.6861 74.7738 70.3027 75.4235 67.9477 78.5794C66.8811 80.0081 65.8119 81.9353 65.8119 84.3871C64.0812 85.3028 62.4738 87.0014 61.9681 89.0158C61.8195 89.6081 61.8203 90.2049 61.6744 90.8398C61.6101 91.1199 58.8224 95.6002 60.7424 100.047C61.7152 102.299 60.8501 103.762 62.7829 106.347C63.8121 107.723 65.3942 108.854 67.2681 109.01C67.2681 109.854 66.9903 109.868 67.3426 111.583C67.7954 113.789 69.2233 115.429 71.0261 116.637C72.1766 117.408 73.6219 117.937 75.2818 118.206C76.6561 118.429 79.5319 118.348 80.5067 117.88C80.95 118.542 82.0279 119.215 83.1542 118.674C83.1542 119.865 83.1542 121.057 83.1542 122.248C83.1538 125.279 83.2139 124.897 85.4397 127.112C86.2648 127.933 86.3967 128.735 87.6553 128.735C88.0094 128.735 88.4338 128.222 88.5302 127.889C88.8855 126.663 87.9315 120.997 89.4898 116.67C90.1403 114.864 91.05 113.837 92.4795 112.775C93.9183 111.707 94.5393 110.253 94.5393 107.819C94.9263 107.909 95.2873 108.092 95.7117 108.235C100.412 109.809 105.575 108.767 109.367 105.834C111.362 104.292 112.23 101.957 112.808 99.4787C119.72 99.4787 119.745 95.2691 120.534 94.6273C121.023 94.2293 121.228 94.3178 121.889 93.4674C124.135 90.5749 123.002 88.6617 123.002 87.5638C123.002 87.1643 123.266 86.7651 123.266 85.0489C123.266 81.8283 121.15 78.8924 118.608 77.2623C118.303 77.0665 118.122 77.0041 117.834 76.8458C117.172 76.4826 117.148 76.0997 116.67 75.495C116.453 75.2213 116.259 75.0837 116.018 74.8226C115.431 74.1846 115.563 74.2334 114.739 73.5859C113.798 72.8448 112.801 72.3084 111.537 71.8897C110.676 71.6047 110.368 71.6637 109.416 71.4962C108.643 71.3609 108.31 70.9342 107.773 70.6232C102.026 67.2945 97.0489 69.0116 96.2416 68.7931C93.478 68.0448 92.3479 67.6721 89.0934 68.7477C88.4943 68.9458 88.1406 69.089 87.6118 69.3842C87.419 69.4912 86.3404 70.2218 86.3313 70.2218Z" fill="#D5F1EC"/>
<path d="M47.051 104.102C47.051 104.102 52.8155 94.9277 50.391 85.8912C47.9664 76.8536 37.815 69.1177 43.3815 53.371C48.9476 37.6252 70.9497 34.6125 82.0166 41.664C93.0834 48.7158 91.4506 63.1612 91.1864 64.5993C95.9037 71.3771 100.225 74.9374 92.8853 77.8813C92.168 78.4289 93.9988 94.9969 87.4511 95.5445C80.9031 96.0929 75.7902 94.244 74.9492 99.1048C74.0913 103.965 74.3554 108.347 74.3554 108.347" stroke="#138B96" stroke-width="2.67024" stroke-miterlimit="10" stroke-linecap="round" stroke-linejoin="round"/>
<path d="M83.4925 61.1902H76.1201L69.4901 51.9806L66.1747 73.2064L61.3834 56.2787L56.716 61.4358H47.1417" stroke="#138B96" stroke-width="2.67024" stroke-miterlimit="10" stroke-linecap="round" stroke-linejoin="round"/>
</g>
<defs>
<filter id="filter0_d_368_87" x="-4" y="-3" width="167" height="183" filterUnits="userSpaceOnUse" color-interpolation-filters="sRGB">
<feFlood flood-opacity="0" result="BackgroundImageFix"/>
<feColorMatrix in="SourceAlpha" type="matrix" values="0 0 0 0 0 0 0 0 0 0 0 0 0 0 0 0 0 0 127 0" result="hardAlpha"/>
<feOffset dy="4"/>
<feGaussianBlur stdDeviation="20"/>
<feComposite in2="hardAlpha" operator="out"/>
<feColorMatrix type="matrix" values="0 0 0 0 0 0 0 0 0 0 0 0 0 0 0 0 0 0 0.25 0"/>
<feBlend mode="normal" in2="BackgroundImageFix" result="effect1_dropShadow_368_87"/>
<feBlend mode="normal" in="SourceGraphic" in2="effect1_dropShadow_368_87" result="shape"/>
</filter>
<clipPath id="clip0_368_87">
<rect width="87" height="103" fill="white" transform="translate(36 33)"/>
</clipPath>
</defs>
</svg>
