<svg width="169" height="171" viewBox="0 0 169 171" fill="none" xmlns="http://www.w3.org/2000/svg">
<g clip-path="url(#clip0_368_73)" filter="url(#filter0_d_368_73)">
<path d="M103.652 111.035C100.921 109.184 99.1211 106.057 99.1211 102.516C99.1211 98.4386 101.515 94.9172 104.965 93.2565C102.748 90.7628 99.552 89.2982 96.1837 89.2982C94.0872 89.2982 92.0825 89.8742 90.2967 90.9159C92.1184 92.772 93.2462 95.3111 93.2462 98.1106C93.2462 101.65 91.4468 104.778 88.7153 106.628C92.8566 108.397 96.0098 112.022 97.163 116.446C98.7443 114.066 100.997 112.169 103.652 111.035Z" fill="#D5F1EC"/>
<path d="M90.3092 98.1105C90.3092 94.0615 87.0142 90.7668 82.9659 90.7668C78.9169 90.7668 75.6223 94.0615 75.6223 98.1105C75.6223 102.159 78.9169 105.454 82.9659 105.454C87.0142 105.454 90.3092 102.159 90.3092 98.1105Z" fill="#D5F1EC"/>
<path d="M96.1837 62.8616C78.3678 62.8616 63.8729 77.3561 63.8729 95.1728C63.8729 102.081 66.059 108.485 69.7663 113.743C71.3122 110.567 73.9559 108.021 77.2162 106.629C74.4843 104.778 72.6849 101.65 72.6849 98.1106C72.6849 92.442 77.2967 87.8291 82.966 87.8291C84.6962 87.8291 86.3252 88.2634 87.758 89.022C88.6031 88.4289 89.4989 87.9334 90.4336 87.5351C87.7021 85.685 85.9026 82.5571 85.9026 79.0172C85.9026 73.349 90.5156 68.7361 96.1837 68.7361C101.852 68.7361 106.465 73.349 106.465 79.0172C106.465 82.5688 104.654 85.7043 101.907 87.5525C104.301 88.5692 106.42 90.2012 108 92.3426C108.46 92.2799 108.926 92.2357 109.402 92.2357C115.07 92.2357 119.683 96.8482 119.683 102.516C119.683 106.057 117.883 109.184 115.152 111.035C117.526 112.049 119.57 113.68 121.108 115.714C125.721 110.126 128.495 102.968 128.495 95.1728C128.495 77.3561 114 62.8616 96.1837 62.8616Z" fill="#D5F1EC"/>
<path d="M109.402 109.86C113.451 109.86 116.746 106.566 116.746 102.516C116.746 98.4677 113.451 95.1727 109.402 95.1727C105.353 95.1727 102.059 98.4677 102.059 102.516C102.059 106.566 105.353 109.86 109.402 109.86Z" fill="#D5F1EC"/>
<path d="M103.527 79.0171C103.527 74.9681 100.233 71.6738 96.1837 71.6738C92.1347 71.6738 88.8405 74.9681 88.8405 79.0171C88.8405 83.0661 92.1347 86.3607 96.1837 86.3607C100.233 86.3607 103.527 83.0661 103.527 79.0171Z" fill="#D5F1EC"/>
<path d="M82.9659 108.391C77.8016 108.391 73.4136 111.746 71.8424 116.386C77.469 122.834 85.604 127.037 94.715 127.447V120.141C94.715 113.662 89.444 108.391 82.9659 108.391Z" fill="#D5F1EC"/>
<path d="M109.402 112.798C102.923 112.798 97.6528 118.069 97.6528 124.547V127.447C106.019 127.071 113.565 123.501 119.101 117.926C116.982 114.833 113.426 112.798 109.402 112.798Z" fill="#D5F1EC"/>
<path d="M76.461 77.3398C84.1534 74.126 89.5748 66.528 89.5748 57.6836C89.5748 45.941 80.0213 36.3875 68.2787 36.3875C56.5364 36.3875 46.9826 45.941 46.9826 57.6836C46.9826 66.494 52.3608 74.0716 60.0068 77.3069C48.7604 80.7897 40.3733 91.2254 40.3733 103.948V105.417C40.3733 107.846 42.35 109.823 44.7795 109.823H91.7779C94.2078 109.823 96.1837 107.846 96.1837 105.417V104.582C96.1837 91.9828 87.8619 80.987 76.461 77.3398ZM68.2787 39.3249C77.1447 39.3249 84.5616 45.642 86.267 54.0118H82.7573C82.1008 51.4848 79.821 49.606 77.091 49.606C74.3618 49.606 72.0816 51.4848 71.4244 54.0118H65.133C64.4761 51.4848 62.1959 49.606 59.4663 49.606C56.7375 49.606 54.4573 51.4848 53.8001 54.0118H50.29C51.9957 45.642 59.4127 39.3249 68.2787 39.3249ZM80.0285 55.4809C80.0285 57.0996 78.7102 58.4179 77.091 58.4179C75.4707 58.4179 74.1536 57.0996 74.1536 55.4809C74.1536 53.8613 75.4707 52.543 77.091 52.543C78.7102 52.543 80.0285 53.8613 80.0285 55.4809ZM62.4042 55.4809C62.4042 57.0996 61.0866 58.4179 59.4663 58.4179C57.8464 58.4179 56.5293 57.0996 56.5293 55.4809C56.5293 53.8613 57.8464 52.543 59.4663 52.543C61.0866 52.543 62.4042 53.8613 62.4042 55.4809ZM49.92 57.6836C49.92 57.4356 49.9476 57.1949 49.957 56.9496H53.8001C54.4573 59.4762 56.7375 61.3554 59.4663 61.3554C62.1959 61.3554 64.4761 59.4762 65.133 56.9496H71.4244C72.0816 59.4762 74.3618 61.3554 77.091 61.3554C79.821 61.3554 82.1008 59.4762 82.7573 56.9496H86.5999C86.6098 57.1949 86.637 57.4356 86.637 57.6836C86.637 67.807 78.4021 76.0426 68.2787 76.0426C58.156 76.0426 49.92 67.807 49.92 57.6836ZM75.2409 80.0346L73.2801 86.5709C70.1284 88.0653 66.429 88.0653 63.2776 86.5709L61.296 79.9677C63.5346 79.3195 65.8757 78.9797 68.27 78.9797C70.5067 78.9797 72.7404 79.276 75.2409 80.0346ZM44.7795 106.885C43.9699 106.885 43.3107 106.227 43.3107 105.417V103.948C43.3107 93.4303 49.7114 84.7072 58.5279 80.9636L66.3046 106.885H44.7795ZM64.3291 90.076C65.6198 90.4366 66.9464 90.6392 68.2787 90.6392C69.611 90.6392 70.938 90.4366 72.2283 90.076L68.2787 103.242L64.3291 90.076ZM93.2462 105.417C93.2462 106.227 92.5882 106.885 91.7779 106.885H70.2531L78.003 81.0509C86.9159 84.9926 93.2462 94.1451 93.2462 104.582V105.417Z" fill="#138B96"/>
<path d="M78.1444 69.0188C78.7173 68.445 78.7173 67.5156 78.1444 66.9419C77.5706 66.3682 76.6416 66.3682 76.0679 66.9419C71.7732 71.2362 64.7841 71.2362 60.4898 66.9419C59.9161 66.3682 58.9867 66.3682 58.413 66.9419C57.8392 67.5156 57.8392 68.445 58.413 69.0188C61.1335 71.7396 64.7059 73.0991 68.2787 73.0991C71.8518 73.0991 75.4246 71.7396 78.1444 69.0188Z" fill="#138B96"/>
<path fill-rule="evenodd" clip-rule="evenodd" d="M52.2607 99.6726L49.7881 97.1967L47.4059 99.6847L52.2618 104.747L52.2607 99.6726Z" fill="#138B96"/>
<path fill-rule="evenodd" clip-rule="evenodd" d="M52.255 99.7315L54.8588 97.2556L59.8368 97.2491L52.2539 104.806L52.255 99.7315Z" fill="#138B96"/>
</g>
<defs>
<filter id="filter0_d_368_73" x="0" y="-3" width="173" height="174" filterUnits="userSpaceOnUse" color-interpolation-filters="sRGB">
<feFlood flood-opacity="0" result="BackgroundImageFix"/>
<feColorMatrix in="SourceAlpha" type="matrix" values="0 0 0 0 0 0 0 0 0 0 0 0 0 0 0 0 0 0 127 0" result="hardAlpha"/>
<feOffset dy="4"/>
<feGaussianBlur stdDeviation="20"/>
<feComposite in2="hardAlpha" operator="out"/>
<feColorMatrix type="matrix" values="0 0 0 0 0 0 0 0 0 0 0 0 0 0 0 0 0 0 0.25 0"/>
<feBlend mode="normal" in2="BackgroundImageFix" result="effect1_dropShadow_368_73"/>
<feBlend mode="normal" in="SourceGraphic" in2="effect1_dropShadow_368_73" result="shape"/>
</filter>
<clipPath id="clip0_368_73">
<rect width="93" height="94" fill="white" transform="translate(40 33)"/>
</clipPath>
</defs>
</svg>
