<svg width="175" height="172" viewBox="0 0 175 172" fill="none" xmlns="http://www.w3.org/2000/svg">
<g id="&#209;&#130;&#208;&#181;&#209;&#128;&#208;&#176;&#208;&#191;&#208;&#184;&#209;&#143; 1" filter="url(#filter0_d_190_683)">
<g id="&#208;&#161;&#208;&#187;&#208;&#190;&#208;&#185;_x0020_1">
<g id="_2574474292752">
<path id="Vector" d="M117.235 75.8165C108.843 75.8165 103.538 80.0572 101.296 82.3305C99.055 80.0572 93.7497 75.8165 85.3576 75.8165C75.5694 75.8165 67.9011 83.5956 67.9011 93.5263C67.9011 100.622 72.1584 114.446 100.672 127.294C101.068 127.472 101.524 127.472 101.92 127.294C130.434 114.446 134.692 100.622 134.692 93.5263C134.692 83.5956 127.023 75.8165 117.235 75.8165ZM121.789 103.899C120.236 103.899 118.902 102.96 118.316 101.622H114.958C114.555 101.622 114.169 101.462 113.885 101.178L111.068 98.3599L107.289 109.692C106.863 110.971 105.097 111.102 104.492 109.891L96.7423 94.3903L93.5464 100.783C93.2882 101.298 92.7636 101.622 92.1884 101.622H78.5269C77.6878 101.622 77.0087 100.943 77.0087 100.104C77.0087 99.2658 77.6878 98.5863 78.5269 98.5863H91.2499L95.3847 90.3174C95.9006 89.2887 97.5844 89.2887 98.1003 90.3174L105.569 105.255L108.965 95.0702C109.319 94.0047 110.676 93.6759 111.478 94.4772L115.587 98.5863H118.316C118.902 97.2487 120.236 96.3091 121.789 96.3091C123.882 96.3091 125.584 98.0118 125.584 100.104C125.584 102.196 123.882 103.899 121.789 103.899Z" fill="#D5F1EC"/>
<path id="Vector_2" d="M63.3468 84.8478V90.2374C63.3468 102.374 73.2212 112.248 85.3576 112.248C97.494 112.248 107.368 102.374 107.368 90.2374V84.8035C112.509 84.0627 116.476 79.6411 116.476 74.2987C116.476 68.4393 111.708 63.6729 105.85 63.6729C99.9919 63.6729 95.2244 68.4393 95.2244 74.2987C95.2244 79.6411 99.1922 84.0627 104.332 84.8035V90.2374C104.332 100.7 95.8205 109.212 85.3576 109.212C74.8947 109.212 66.3829 100.7 66.3829 90.2374V84.8478C79.0673 84.0578 89.1526 73.5163 89.1526 60.6369V54.565C89.1526 46.707 83.1504 40.2266 75.4911 39.4624V37.8671C75.4911 37.0292 74.812 36.3496 73.9729 36.3496C73.1339 36.3496 72.455 37.0292 72.455 37.8671V43.9397C72.455 44.7776 73.1339 45.4571 73.9729 45.4571C74.812 45.4571 75.4911 44.7776 75.4911 43.9397V42.5269C81.4715 43.2779 86.1165 48.3844 86.1165 54.565V60.6369C86.1165 72.3557 76.5831 81.8888 64.865 81.8888C53.147 81.8888 43.6135 72.3557 43.6135 60.6369V54.565C43.6135 48.3844 48.2589 43.2779 54.2392 42.5269V43.9397C54.2392 44.7776 54.9184 45.4571 55.7571 45.4571C56.5961 45.4571 57.275 44.7776 57.275 43.9397V37.8671C57.275 37.0292 56.5961 36.3496 55.7571 36.3496C54.9184 36.3496 54.2392 37.0292 54.2392 37.8671V39.4624C46.5796 40.2266 40.5778 46.707 40.5778 54.565V60.6369C40.5778 73.5163 50.6634 84.0578 63.3468 84.8478ZM98.2601 74.2987C98.2601 70.114 101.666 66.7087 105.85 66.7087C110.035 66.7087 113.44 70.114 113.44 74.2987C113.44 78.4838 110.035 81.8888 105.85 81.8888C101.666 81.8888 98.2601 78.4838 98.2601 74.2987Z" fill="#138B96"/>
</g>
</g>
</g>
<defs>
<filter id="filter0_d_190_683" x="-18" y="-9" width="214" height="189" filterUnits="userSpaceOnUse" color-interpolation-filters="sRGB">
<feFlood flood-opacity="0" result="BackgroundImageFix"/>
<feColorMatrix in="SourceAlpha" type="matrix" values="0 0 0 0 0 0 0 0 0 0 0 0 0 0 0 0 0 0 127 0" result="hardAlpha"/>
<feOffset dy="4"/>
<feGaussianBlur stdDeviation="20"/>
<feComposite in2="hardAlpha" operator="out"/>
<feColorMatrix type="matrix" values="0 0 0 0 0 0 0 0 0 0 0 0 0 0 0 0 0 0 0.25 0"/>
<feBlend mode="normal" in2="BackgroundImageFix" result="effect1_dropShadow_190_683"/>
<feBlend mode="normal" in="SourceGraphic" in2="effect1_dropShadow_190_683" result="shape"/>
</filter>
</defs>
</svg>
