<svg width="169" height="163" viewBox="0 0 169 163" fill="none" xmlns="http://www.w3.org/2000/svg">
<g filter="url(#filter0_d_368_121)">
<path d="M99.4344 60.1553C83.2599 60.1553 70.1011 73.3141 70.1011 89.4886C70.1011 105.663 83.2599 118.822 99.4344 118.822C115.609 118.822 128.768 105.663 128.768 89.4886C128.768 73.3141 115.609 60.1553 99.4344 60.1553ZM117.347 73.4607L83.4073 107.402C82.8865 107.923 82.0425 107.923 81.5217 107.402C81.0009 106.881 81.0009 106.037 81.5217 105.516L115.462 71.5751C115.983 71.0543 116.826 71.0543 117.347 71.5751C117.868 72.0959 117.868 72.9399 117.347 73.4607Z" fill="#D5F1EC"/>
<path fill-rule="evenodd" clip-rule="evenodd" d="M57.6472 75.3644C58.021 75.7696 58.405 76.0292 58.6684 76.5334C61.1059 74.7971 62.6328 73.286 63.3932 69.7779C64.4572 64.8717 61.5586 62.59 61.3814 60.4602C67.2272 60.4602 66.6417 64.7999 66.6417 69.6656L66.6157 80.5987C66.3866 81.206 64.9232 80.8674 63.9284 81.5016C64.1072 82.0492 64.6238 82.1895 64.9515 82.8165C74.5836 79.9852 85.2181 87.5012 81.5909 96.0123C81.1774 96.9829 80.4718 98.1757 79.7926 98.8043C80.1301 98.9974 79.8436 98.8103 80.0825 99.0348C80.3826 99.3164 80.7658 99.6838 80.8981 100.059C81.2077 99.3856 82.6261 98.4754 83.5336 95.3245C85.522 88.4177 79.6195 82.3954 73.1017 81.0326C71.5672 80.7113 71.9021 81.3648 71.9021 77.4102C71.9021 74.8776 71.9021 72.3445 71.9021 69.8119C71.9021 66.4024 71.2705 62.4777 74.3909 60.9028C75.6026 60.2913 76.4337 60.5286 75.4091 58.9987C73.7166 58.9987 72.0941 60.4549 71.3797 61.5449C70.3237 63.1565 70.2946 64.6196 70.2946 67.1817C70.2946 71.6627 70.2946 76.1437 70.2946 80.6247H68.2492C68.2492 75.8523 68.2318 71.0765 68.2495 66.3045C68.2624 62.8372 67.3122 60.5725 64.4511 59.2901C63.3872 58.8131 62.7443 58.8528 61.2355 58.8528C60.7918 57.9283 61.0027 57.4732 61.0923 56.3719C61.1535 55.622 61.3708 54.4326 61.6735 53.9409C61.1724 53.6661 60.7234 53.2171 60.4486 52.7156C59.1235 54.9587 59.1076 59.4057 60.167 62.113C61.2238 64.8142 63.0882 66.6522 61.217 71.2545C60.8855 72.0698 60.35 72.9651 59.7407 73.5774C58.0709 75.2552 58.5789 74.5442 57.7107 75.3016C57.6986 75.3122 57.6657 75.341 57.6472 75.3644Z" fill="#138B96" stroke="#138B96" stroke-width="0.944882" stroke-miterlimit="22.9256"/>
<path fill-rule="evenodd" clip-rule="evenodd" d="M76.9655 44.3867L75.9443 43.2177C74.9937 44.74 74.5599 47.0641 75.0315 49.4403C75.2636 50.6104 75.6283 51.2563 76.0909 52.18C76.4893 52.9745 77.0789 54.0483 77.1624 55.0536C74.3868 55.0536 72.8787 55.4021 70.7592 56.833C70.1038 57.2756 69.8453 57.7382 69.2719 58.1222C68.008 57.2756 67.3799 55.9788 64.2406 55.2554C63.089 54.9901 63.0217 55.0396 62.5504 55.9305C63.0716 56.915 63.0293 56.5923 64.2108 56.9003C65.9943 57.3648 67.8157 58.6476 68.8339 60.1677H69.7104C70.4644 59.0422 71.4206 58.245 72.661 57.5659C74.1951 56.7253 75.1661 56.6611 77.455 56.6611C77.469 57.2949 77.6515 57.3758 77.5672 58.0769C76.8393 64.1256 74.9571 63.2854 74.9673 67.4705C74.9726 69.7866 75.4405 71.4114 76.2905 72.876C77.0967 74.265 78.2385 75.55 79.6165 76.4174C84.8451 79.7086 91.1905 77.4496 93.5104 73.1496C94.2055 71.8619 92.9174 71.2791 92.2738 72.06C92.1781 72.1764 92.039 72.4614 91.9412 72.6084C91.2363 73.6682 90.8712 74.031 89.8976 74.8024C86.2046 77.7285 80.0232 76.6997 77.5 71.6665C76.7463 70.163 76.238 68.0809 76.758 65.9005C77.1598 64.2144 78.1924 63.0175 78.6864 61.1073C79.5035 57.9469 79.2593 55.5533 78.0627 52.5459C77.39 50.8553 75.7893 48.986 76.6405 45.7643C76.792 45.1909 77.0022 44.9649 76.9655 44.3867Z" fill="#138B96" stroke="#138B96" stroke-width="0.944882" stroke-miterlimit="22.9256"/>
<path fill-rule="evenodd" clip-rule="evenodd" d="M75.9442 43.2177L76.9654 44.3867L77.1204 44.2201C77.3105 43.9702 77.1831 44.1554 77.3109 43.9491C78.2293 42.4633 78.2135 42.362 79.6123 41.1379C83.0554 38.126 88.8143 38.5795 91.7982 42.61C92.4388 43.4755 93.3368 45.3581 93.779 46.4738C94.6922 48.7797 95.2814 50.8119 95.6567 53.3635C95.7916 54.2834 95.789 55.0786 95.9277 56.0148C96.3272 58.7062 95.2523 60.8704 96.5967 61.0446C98.1425 61.2449 97.5831 56.2703 97.5136 55.7438C97.1719 53.1602 97.4029 53.0184 96.6863 50.1422C95.9852 47.3287 94.2783 42.9241 92.6872 41.1363C90.3741 38.5379 87.2341 37.1282 83.4666 37.6864C81.7012 37.9476 80.1716 38.6978 78.9554 39.6045C77.8071 40.4606 76.5096 41.7842 75.9442 43.2177Z" fill="#138B96" stroke="#138B96" stroke-width="0.944882" stroke-miterlimit="22.9256"/>
<path fill-rule="evenodd" clip-rule="evenodd" d="M74.2245 104.004C73.9426 103.612 73.596 103.147 73.071 102.992C70.1302 104.821 72.1276 107.706 70.2428 108.776C69.5141 109.19 68.7525 109.116 68.1225 108.661C66.7706 107.683 67.9501 106.564 66.7452 104.339C65.9012 102.78 64.5694 102.458 63.2998 101.94C60.6628 100.865 58.4764 99.0825 57.1906 96.5056C54.7479 91.6111 57.657 88.2799 57.8743 87.5081L56.8361 86.4698C55.8564 87.1744 55.0412 89.7675 54.7887 90.9822C54.1473 94.072 55.3469 97.3239 57.3225 99.5882C57.6377 99.9495 57.759 100.21 58.129 100.535C59.165 101.443 60.8374 102.645 62.0688 103.171C63.8599 103.935 65.2485 103.977 65.6639 106.151C65.8136 106.935 65.4454 109.485 67.9698 110.421C69.8293 111.11 71.6431 110.205 72.3472 108.833C72.9905 107.58 72.591 107.275 72.8858 106.011C73.0037 105.504 73.1285 105.193 73.3545 104.872C73.7113 104.364 73.9634 104.399 74.2245 104.004Z" fill="#138B96" stroke="#138B96" stroke-width="0.944882" stroke-miterlimit="22.9256"/>
<path fill-rule="evenodd" clip-rule="evenodd" d="M58.6684 76.5334C58.405 76.0292 58.021 75.7696 57.6472 75.3644C54.8314 76.5436 52.7089 76.8437 49.8372 75.5111C43.9165 72.7637 41.5226 58.8381 42.8239 54.0758C42.2301 53.7308 41.7581 53.1559 41.3627 52.609C40.9753 56.737 40.5701 58.1902 41.3816 62.9256C41.9342 66.1526 42.8692 68.8806 44.1392 71.4193C45.6268 74.3942 46.5796 75.6724 49.6403 77.1691C50.6173 77.6472 52.8045 78.1552 54.3295 77.9568C56.0284 77.7357 57.4189 77.3596 58.6684 76.5334Z" fill="#138B96" stroke="#138B96" stroke-width="0.944882" stroke-miterlimit="22.9256"/>
<path fill-rule="evenodd" clip-rule="evenodd" d="M44.2854 43.7419C44.7926 44.0102 45.0398 44.3901 45.454 44.7612L45.8951 44.1009C46.0244 43.8383 46.1207 43.6089 46.2829 43.3159C49.8757 36.8307 59.4659 37.9917 61.7291 45.208C62.9857 49.2135 60.7415 51.5187 60.4486 52.7156C60.7233 53.2172 61.1723 53.6662 61.6735 53.9409C62.8312 50.9959 64.5036 49.2483 63.4 45.1445C63.0307 43.7721 62.3243 42.5736 61.5291 41.4628C60.9558 40.6616 60.238 39.9866 59.5059 39.3947C57.129 37.4732 53.1197 36.8065 49.7506 38.1626C48.5502 38.6456 47.2739 39.5614 46.4378 40.4023C45.7859 41.0577 44.556 42.8083 44.2854 43.7419Z" fill="#138B96" stroke="#138B96" stroke-width="0.944882" stroke-miterlimit="22.9256"/>
<path fill-rule="evenodd" clip-rule="evenodd" d="M54.3677 42.0486C54.3677 40.6207 50.3693 40.8169 48.1666 44.4691C47.2588 45.9741 45.3047 50.7933 45.3308 52.1407C45.3444 52.8452 46.0871 53.2576 46.6559 52.761C46.9957 52.4643 47.1881 51.2578 47.3211 50.7835C47.7146 49.3851 48.1432 48.156 48.7169 46.9189C49.3451 45.5636 49.7638 44.6996 50.8217 43.7634C52.3354 42.4236 54.3677 43.3567 54.3677 42.0486Z" fill="#138B96" stroke="#138B96" stroke-width="0.944882" stroke-miterlimit="22.9256"/>
<path fill-rule="evenodd" clip-rule="evenodd" d="M84.9071 41.4643C84.5597 41.5694 84.3613 41.346 84.2203 41.953C83.7815 43.8462 87.25 41.7232 89.3397 45.9446C90.2842 47.8521 90.9154 49.4902 91.4211 51.6078C91.5817 52.281 91.7571 53.1461 92.5969 52.959C93.4038 52.7791 93.1997 52.036 93.0323 51.3164C92.8615 50.5832 92.6793 49.9584 92.4521 49.2619C91.7193 47.0168 90.6251 44.1005 88.7289 42.6107C87.9069 41.9647 86.1607 41.2704 85.2045 41.371C84.9929 41.3933 84.9717 41.4447 84.9071 41.4643Z" fill="#138B96" stroke="#138B96" stroke-width="0.944882" stroke-miterlimit="22.9256"/>
<path fill-rule="evenodd" clip-rule="evenodd" d="M41.3627 52.6091C41.758 53.156 42.2301 53.7309 42.8238 54.0759C42.8238 50.3705 45.3263 45.425 45.454 44.7613C45.0398 44.3901 44.7926 44.0103 44.2854 43.7419C43.3065 45.2054 41.5286 50.3901 41.3627 52.6091Z" fill="#138B96" stroke="#138B96" stroke-width="0.944882" stroke-miterlimit="22.9256"/>
<path fill-rule="evenodd" clip-rule="evenodd" d="M56.8361 86.4698L57.8743 87.508C58.569 86.9494 59.8374 84.8559 62.7779 83.6287C63.5632 83.301 64.1869 83.1105 64.9515 82.8165C64.6238 82.1895 64.1071 82.0492 63.9283 81.5016C62.7019 81.7386 60.7475 82.8006 59.8344 83.4617C59.0898 84.0006 57.1229 85.5714 56.8361 86.4698Z" fill="#138B96" stroke="#138B96" stroke-width="0.944882" stroke-miterlimit="22.9256"/>
<path fill-rule="evenodd" clip-rule="evenodd" d="M73.071 102.992C73.596 103.147 73.9426 103.612 74.2246 104.004C74.9007 103.855 75.5818 103.527 76.1623 103.296C76.8445 103.025 77.3128 102.735 77.8865 102.39C79 101.72 79.9332 100.991 80.8981 100.059C80.7658 99.6838 80.3826 99.3164 80.0825 99.0349C79.8436 98.8104 80.1301 98.9975 79.7926 98.8043C76.7897 101.956 74.4653 101.998 73.4755 102.655L73.071 102.992Z" fill="#138B96" stroke="#138B96" stroke-width="0.944882" stroke-miterlimit="22.9256"/>
<path fill-rule="evenodd" clip-rule="evenodd" d="M95.574 66.5975C96.444 66.5975 96.5037 65.9871 96.6882 65.2278C97.1168 63.4635 97.4471 62.5057 96.1583 62.5057C95.3619 62.5057 94.885 65.7429 94.885 65.7463C94.877 66.1292 95.1227 66.5975 95.574 66.5975Z" fill="#138B96" stroke="#138B96" stroke-width="0.944882" stroke-miterlimit="22.9256"/>
</g>
<defs>
<filter id="filter0_d_368_121" x="-14" y="-10" width="192" height="184" filterUnits="userSpaceOnUse" color-interpolation-filters="sRGB">
<feFlood flood-opacity="0" result="BackgroundImageFix"/>
<feColorMatrix in="SourceAlpha" type="matrix" values="0 0 0 0 0 0 0 0 0 0 0 0 0 0 0 0 0 0 127 0" result="hardAlpha"/>
<feOffset dy="4"/>
<feGaussianBlur stdDeviation="20"/>
<feComposite in2="hardAlpha" operator="out"/>
<feColorMatrix type="matrix" values="0 0 0 0 0 0 0 0 0 0 0 0 0 0 0 0 0 0 0.25 0"/>
<feBlend mode="normal" in2="BackgroundImageFix" result="effect1_dropShadow_368_121"/>
<feBlend mode="normal" in="SourceGraphic" in2="effect1_dropShadow_368_121" result="shape"/>
</filter>
</defs>
</svg>
