<svg width="106" height="100" viewBox="0 0 106 100" fill="none" xmlns="http://www.w3.org/2000/svg">
<path fill-rule="evenodd" clip-rule="evenodd" d="M71.9068 43.4785C71.7643 43.6723 71.807 43.5242 71.5817 43.7487C71.4729 43.8575 71.3709 43.9664 71.2556 44.0718L69.7986 45.7533C69.5759 46.0432 69.6459 46.0334 69.4943 46.2613L69.4251 46.3539C69.4183 46.3634 69.4078 46.3755 69.4013 46.3845C69.3949 46.394 69.3851 46.4065 69.3783 46.4155C69.3775 46.417 69.3167 46.5115 69.3152 46.5149C68.9913 47.066 68.5506 48.1828 68.3605 48.7532L67.9526 50.1909C67.9201 50.3107 67.9568 50.1652 67.9152 50.3058L67.6575 51.5916C67.5962 52.1086 67.5766 51.7995 67.5441 52.4151C67.5433 52.4291 67.5361 52.4991 67.5335 52.5127L67.5044 52.6102C67.4764 52.7122 67.4704 52.7451 67.4549 52.8755C67.4349 53.0418 67.4488 53.1257 67.4424 53.258C67.4367 53.3876 67.3815 53.5263 67.3642 53.7111C67.1453 56.0367 67.2538 58.3951 67.1805 60.7736C67.1737 60.978 67.1865 60.9962 67.157 61.1379L66.8785 64.5327L66.3822 67.0499C66.3796 67.0589 66.3766 67.0744 66.3747 67.0839L66.341 67.2532C66.2186 67.6021 66.1494 68.0658 65.9903 68.4124L65.8769 68.734C65.7575 69.1547 65.5492 69.5795 65.4257 69.875L65.1962 70.4276L64.3262 71.7758C64.0076 72.1265 63.9592 72.3514 63.5189 72.6466L62.6314 73.3284C62.4738 73.4059 62.3589 73.4456 62.2199 73.5121L61.7179 73.7332C61.2599 73.9067 60.9647 73.9063 60.8131 73.9479C60.318 74.0832 59.7356 74.0307 59.4442 74.0235C57.9849 73.9876 57.1262 73.9029 55.7111 73.7018C55.5592 73.6803 55.4685 73.6126 55.2908 73.5695L52.5753 72.7445C52.4366 72.6972 52.6425 72.7656 52.4834 72.7188L49.0758 71.9723C48.9265 71.975 48.9084 71.9712 48.7825 71.9663L48.5765 71.9587C48.5671 71.958 48.5508 71.9561 48.5417 71.9549C48.1887 71.9103 47.3062 71.8654 46.9687 71.9266C46.3031 72.0472 46.7124 71.8623 45.6081 72.1571L45.1027 72.3008C44.9104 72.3729 44.834 72.3612 44.6549 72.4515L44.0777 72.7411C43.7795 72.9145 43.9345 72.7736 43.6344 73.0007C43.3237 73.2358 43.3264 73.119 42.7387 73.6746C42.6786 73.7313 42.6393 73.7555 42.5542 73.8152C42.3188 73.98 42.1532 74.155 41.968 74.3647L40.017 77.0683C39.9834 77.1181 39.9928 77.1026 39.9558 77.1692C39.9097 77.2508 39.8896 77.2973 39.8443 77.3823L39.6542 77.7871L39.5605 77.9137C39.4161 78.1001 39.4822 78.0781 39.3367 78.3922C39.2766 78.5219 39.246 78.6428 39.2226 78.6844C39.2192 78.6897 39.2101 78.7021 39.2063 78.7082C39.2025 78.7142 39.1919 78.7267 39.1874 78.7331L38.4096 80.4392L37.0712 83.9167C36.939 84.2437 36.8793 84.5672 36.7481 84.8922C36.4639 85.5945 36.756 86.0677 37.1854 86.5874C37.1926 86.5961 37.2028 86.6082 37.21 86.6172C37.425 86.8939 37.5792 87.1362 37.9224 87.366C38.0362 87.5353 38.2357 87.6415 38.3877 87.7658C38.7792 88.0871 39.3057 88.2813 39.754 88.5104C39.8927 88.5811 40.0318 88.6208 40.1901 88.6729C40.7302 88.8506 41.3553 88.9522 41.8815 88.9628C42.4318 88.9734 43.1536 89.0433 43.8366 88.8914C44.1756 88.8162 44.1484 88.8596 44.396 88.7576C44.6129 88.6676 44.7694 88.5656 44.9297 88.3664C45.144 88.1007 45.1655 87.7027 45.277 87.3724C45.2796 87.3648 45.2864 87.3508 45.2887 87.3436C45.291 87.3368 45.2974 87.3225 45.2989 87.3161L45.7498 85.6606C45.757 85.633 45.7691 85.5968 45.7785 85.5737C45.7816 85.5654 45.7891 85.5518 45.7925 85.5435L45.8243 85.4762C45.8844 85.3254 45.8949 85.1818 45.9702 85.023C46.0348 84.8873 46.0106 84.9678 46.0665 84.8492C46.3511 84.2486 46.3247 84.0377 46.8164 83.4345L46.9086 83.3101C47.3221 82.7886 48.0255 82.8766 48.6793 82.9855C49.4292 83.1102 49.3245 82.9598 50.1802 83.3872L51.4308 84.2475C51.5098 84.317 51.5449 84.3374 51.6137 84.3888L52.2321 84.9614C52.2427 84.9728 52.2752 85.0041 52.2865 85.0151C52.3394 85.0672 52.3356 85.0612 52.3704 85.0937L52.5412 85.2472C52.7502 85.4282 52.9982 85.6047 53.1853 85.794L53.9945 86.5001C54.0515 86.5477 54.1041 86.6074 54.1555 86.6633L55.4655 87.7348C55.535 87.7832 55.5622 87.7945 55.6287 87.8418L56.9523 88.7372C56.9621 88.7436 56.9754 88.7523 56.9852 88.7587C56.9947 88.7651 57.0075 88.7742 57.017 88.7806C57.0268 88.7867 57.0392 88.7965 57.0491 88.8029L57.15 88.8649C57.1606 88.8709 57.1749 88.8778 57.1855 88.8842C57.2048 88.8951 57.2513 88.9171 57.2921 88.9431L57.5892 89.128C58.1701 89.4696 58.7828 89.7724 59.4117 90.0116C59.5693 90.0713 59.5035 90.0596 59.6256 90.1227C59.7873 90.2048 59.9026 90.2044 60.0689 90.2747L61.01 90.5933C61.4413 90.7014 62.2372 90.989 62.6515 91.0207C63.0665 91.0529 63.4962 91.2048 63.9441 91.2279L64.3927 91.2698C64.4022 91.2729 64.4169 91.2789 64.4271 91.2819C64.7691 91.3881 65.1875 91.3741 65.5137 91.3896L65.8565 91.4373C65.9839 91.455 66.1581 91.4448 66.2719 91.4433C67.4076 91.4274 67.8018 91.5435 69.0672 91.4051C69.596 91.3469 69.9025 91.3726 70.4078 91.2917C70.4233 91.2891 70.4626 91.2823 70.4758 91.28C71.008 91.1776 71.5012 91.1973 72.047 91.0763L73.0913 90.9002C73.2372 90.876 73.2236 90.8616 73.3101 90.8322L74.0513 90.6851C74.1715 90.6572 74.1522 90.6522 74.2478 90.6307L75.116 90.4126C75.2736 90.3582 75.184 90.3896 75.322 90.3563C75.9259 90.2119 76.5337 89.9848 77.1286 89.7735L78.0515 89.4005C78.0632 89.3948 78.0776 89.3884 78.0897 89.3831C78.1876 89.3411 78.222 89.3336 78.3229 89.2901C78.3384 89.2837 78.3826 89.264 78.3977 89.2572L78.5829 89.1714C78.595 89.1665 78.6094 89.1608 78.6219 89.1563L80.7709 88.1128C80.8457 88.078 80.879 88.0629 80.9512 88.0221L81.3174 87.7927C81.3983 87.7458 81.452 87.7303 81.5351 87.6865C81.6614 87.6207 81.7543 87.5406 81.9014 87.4578L82.2971 87.2038C82.5514 87.056 82.7574 86.8973 83.0171 86.7333C83.1225 86.6667 83.0881 86.6864 83.1785 86.6236L84.2677 85.819C84.276 85.8114 84.287 85.7997 84.2949 85.7922L84.9258 85.2868C85.0021 85.2177 85.038 85.1958 85.1106 85.147C85.2444 84.9644 85.1215 85.1194 85.2871 84.9985L85.9833 84.3419C85.9908 84.334 86.0018 84.3223 86.0097 84.314L86.4636 83.9024L86.8964 83.4693C87.0827 83.3445 87.2029 83.1181 87.3628 82.9613L87.5223 82.7965C87.7354 82.5622 87.9864 82.383 88.1572 82.1237L90.4469 79.0105C90.5213 78.8919 90.4858 78.9626 90.5372 78.8843L91.7346 76.8381C91.7758 76.7738 91.8434 76.6351 91.8665 76.5879L92.0275 76.2617C92.0316 76.2519 92.0377 76.2368 92.0411 76.2273C92.0445 76.2186 92.0494 76.2027 92.0524 76.1944L93.4576 72.9259C93.4618 72.9146 93.4701 72.8786 93.4747 72.8662L93.8235 71.8888C93.8719 71.7429 93.8855 71.7055 93.9278 71.5569L94.6705 68.7389C94.7348 68.3878 94.8481 68.0507 94.8735 67.7135C94.8855 67.5567 94.8693 67.6852 94.9373 67.4834L95.2257 65.8771C95.2454 65.6926 95.2476 65.6692 95.2733 65.5426L95.4823 64.0308C95.564 63.7171 95.5515 63.1074 95.5723 63.0201C95.5731 63.0148 95.5776 63.0005 95.5783 62.9952C95.6501 62.6267 95.6154 62.2446 95.6524 61.8625C95.7832 60.5109 95.7136 58.7307 95.5428 57.3629L95.4468 56.4645C95.4067 56.2669 95.4321 56.3666 95.423 56.1886C95.4154 56.0325 95.3523 55.8194 95.3073 55.5771C95.2813 55.4365 95.2775 55.3329 95.2484 55.1992L95.0205 54.1859C94.8701 53.5082 94.7158 52.7897 94.4577 52.1513C94.4116 52.0368 94.4494 52.1313 94.3878 52.0047L94.2449 51.6521C94.2415 51.6396 94.2336 51.6052 94.2302 51.592C94.0427 50.9015 93.6122 50.1758 93.2906 49.5306L92.8786 48.7517C92.7736 48.588 92.6802 48.3004 92.5245 48.1862C92.4833 48.1088 92.5165 48.1662 92.4617 48.0868L92.416 48.0245C92.4096 48.0146 92.3998 48.0022 92.3933 47.9923C92.3869 47.9829 92.3778 47.9697 92.3718 47.9602C92.3351 47.9009 92.3276 47.8763 92.3147 47.8548L92.0683 47.5063C92.0324 47.4523 92.04 47.4583 92.0029 47.4088L91.4968 46.7784C91.2769 46.5603 91.4133 46.592 91.2255 46.4548L90.4004 45.5481C90.3169 45.4642 90.2696 45.4124 90.1842 45.3319L89.6218 44.8115C89.5613 44.7627 89.5428 44.7556 89.494 44.7231C89.3644 44.5299 89.3999 44.6327 89.2624 44.522L87.362 43.1757C87.0956 43.0075 87.5382 43.2846 87.3004 43.1326L86.6296 42.7717C86.6194 42.7653 86.6069 42.7554 86.5967 42.7498L85.8249 42.3854C85.727 42.3378 85.6442 42.2822 85.5324 42.2448C85.3691 42.1908 85.3056 42.193 85.1646 42.1254C85.0826 42.0539 85.1045 42.0694 84.9964 42.0233L83.8055 41.6832C83.7976 41.6805 83.7832 41.673 83.7749 41.6696C83.4476 41.5415 82.9335 41.4341 82.5987 41.3993C82.4339 41.3819 82.3368 41.3392 82.1599 41.2996L78.5966 41.2882C78.335 41.3109 78.3467 41.2451 77.8818 41.3374C77.2794 41.4575 76.7737 41.481 76.0488 41.6635C75.9467 41.6888 75.8764 41.6941 75.7736 41.7172C75.6323 41.7489 75.413 41.8102 75.3027 41.8461L74.5105 42.1156C74.5029 42.1186 74.4882 42.1239 74.481 42.1265C74.3431 42.176 74.568 42.0967 74.3918 42.1511L71.9068 43.4785Z" fill="#D5F1EC"/>
<path fill-rule="evenodd" clip-rule="evenodd" d="M68.876 43.0453L69.3843 42.5196C69.5657 42.3567 69.6292 42.3484 69.7423 42.1794C69.7702 42.1605 69.788 42.1556 69.8394 42.1148L69.9263 42.0392C69.9342 42.0317 69.9448 42.0196 69.9528 42.0116C70.1138 41.8495 70.3689 41.7319 70.5367 41.5664L70.59 41.5097C70.7332 41.3128 70.6055 41.1019 70.5896 40.871C70.5768 40.6861 70.5866 40.5384 70.5703 40.3653C70.5257 39.9064 70.5008 39.3607 70.4732 38.9691C70.4554 38.7185 70.4895 38.3837 70.4653 38.1304C70.3799 37.2434 70.4313 37.0192 70.4059 36.2951C70.3753 35.4182 70.4176 34.2776 70.3632 33.4174C70.3439 33.1105 70.1553 32.8387 69.8938 32.6664C69.695 32.5356 69.4754 32.4536 69.1806 32.4388H64.3304H64.2755H62.7637C62.3079 32.4846 61.9394 32.6233 61.693 32.9956C61.3683 33.4865 61.532 34.8218 61.5339 35.4073C61.5361 36.0751 61.5221 36.4833 61.5539 37.1893C61.5834 37.8269 61.6174 37.8436 61.6246 38.4475L61.6775 39.5814C61.6877 39.8161 61.6972 39.7636 61.7304 39.9038C61.7584 40.0262 61.7429 39.9049 61.7489 40.0085L62.6303 46.8026C62.6469 47.1121 62.7917 47.4439 62.8465 47.7304C62.848 47.7387 62.8495 47.755 62.851 47.7633C62.8526 47.7716 62.8544 47.7875 62.8559 47.7966L63.7067 50.4872C63.7801 50.7049 63.8477 50.8761 63.9441 51.0621L64.59 52.3645C64.6592 52.5157 64.6459 52.51 64.74 52.6468C64.8519 52.8105 64.9457 53.0067 65.0881 53.1106C65.0881 52.9715 65.1032 52.7882 65.1074 52.7425L65.2333 51.6963C65.2522 51.3996 65.3822 51.0258 65.4294 50.7219L65.5757 50.0265C65.7307 49.2354 66.1453 47.7758 66.4507 47.0596L66.6771 46.5282C66.682 46.5161 66.6884 46.5021 66.6933 46.4904L67.6212 44.7125C67.6714 44.6271 67.6476 44.6656 67.6854 44.6142L68.2047 43.8889C68.2153 43.8776 68.2478 43.8462 68.2584 43.8345C68.4289 43.6433 68.5203 43.4365 68.7086 43.2566L68.876 43.0453Z" fill="#D5F1EC"/>
<path fill-rule="evenodd" clip-rule="evenodd" d="M71.9068 43.4785V43.4241L71.8433 43.4694L71.9068 43.4785Z" fill="#F8F8F8"/>
<path fill-rule="evenodd" clip-rule="evenodd" d="M38.4096 80.4392V80.3848L38.3461 80.4297L38.4096 80.4392Z" fill="#E6E6E6"/>
<path fill-rule="evenodd" clip-rule="evenodd" d="M85.1106 85.147V85.201L85.1741 85.156L85.1106 85.147Z" fill="#B5B5B5"/>
<path fill-rule="evenodd" clip-rule="evenodd" d="M63.5189 72.6466V72.5922L63.4558 72.6371L63.5189 72.6466Z" fill="#E6E6E6"/>
<path fill-rule="evenodd" clip-rule="evenodd" d="M62.2199 73.512V73.458L62.1567 73.503L62.2199 73.512Z" fill="#F8F8F8"/>
<path fill-rule="evenodd" clip-rule="evenodd" d="M62.1658 44.7771L62.182 44.7609C62.1809 44.762 62.1605 44.7718 62.1658 44.7771Z" fill="#E6E6E6"/>
<path d="M9.07861 61.4822H72.0232V50.4396H9.07861V61.4822Z" stroke="#138B96" stroke-width="2.83465" stroke-miterlimit="10" stroke-linecap="round" stroke-linejoin="round"/>
<path d="M9.07861 50.4396H72.0232V7.4917H9.07861V50.4396Z" stroke="#138B96" stroke-width="2.83465" stroke-miterlimit="10" stroke-linecap="round" stroke-linejoin="round"/>
<path d="M17.2919 61.4823V72.2691H84.3978V56.9438" stroke="#138B96" stroke-width="2.83465" stroke-miterlimit="10" stroke-linecap="round" stroke-linejoin="round"/>
<path d="M89.7144 36.4418L84.3978 57.3093L79.0713 36.4418H89.7144Z" stroke="#138B96" stroke-width="2.83465" stroke-miterlimit="10" stroke-linecap="round" stroke-linejoin="round"/>
<path d="M89.8021 36.4418H78.9741C77.8077 36.4418 76.8647 35.4924 76.8647 34.3219C76.8647 33.1529 77.8077 32.2087 78.9741 32.2087H89.8021C90.9684 32.2087 91.9114 33.1529 91.9114 34.3219C91.9114 35.4924 90.9684 36.4418 89.8021 36.4418Z" stroke="#138B96" stroke-width="2.21443" stroke-miterlimit="10" stroke-linecap="round" stroke-linejoin="round"/>
<path d="M63.8307 31.9464C50.1352 42.5147 30.9677 42.5147 17.2726 31.9464C20.8783 27.318 24.4847 22.688 28.0907 18.0653C35.4291 23.7176 45.6837 23.7176 53.0027 18.0653C56.6186 22.688 60.2243 27.318 63.8307 31.9464Z" stroke="#138B96" stroke-width="2.83465" stroke-miterlimit="10" stroke-linecap="round" stroke-linejoin="round"/>
<path d="M27.974 56.1886C27.974 57.9431 26.5453 59.3623 24.7859 59.3623C23.0167 59.3623 21.5979 57.9431 21.5979 56.1886C21.5979 54.4342 23.0167 53.0161 24.7859 53.0161C26.5453 53.0161 27.974 54.4342 27.974 56.1886Z" stroke="#138B96" stroke-width="2.83465" stroke-miterlimit="10" stroke-linecap="round" stroke-linejoin="round"/>
<path d="M59.515 56.1886C59.515 57.9431 58.0765 59.3623 56.3171 59.3623C54.5577 59.3623 53.1196 57.9431 53.1196 56.1886C53.1196 54.4342 54.5577 53.0161 56.3171 53.0161C58.0765 53.0161 59.515 54.4342 59.515 56.1886Z" stroke="#138B96" stroke-width="2.83465" stroke-miterlimit="10" stroke-linecap="round" stroke-linejoin="round"/>
</svg>
