<svg width="169" height="166" viewBox="0 0 169 166" fill="none" xmlns="http://www.w3.org/2000/svg">
<g filter="url(#filter0_d_368_92)">
<path fill-rule="evenodd" clip-rule="evenodd" d="M104.907 73.4785C104.764 73.6723 104.807 73.5242 104.582 73.7487C104.473 73.8575 104.371 73.9664 104.256 74.0718L102.799 75.7533C102.576 76.0432 102.646 76.0334 102.494 76.2613L102.425 76.3539C102.418 76.3634 102.408 76.3755 102.401 76.3845C102.395 76.394 102.385 76.4065 102.378 76.4155C102.378 76.417 102.317 76.5115 102.315 76.5149C101.991 77.066 101.551 78.1828 101.36 78.7532L100.953 80.1909C100.92 80.3107 100.957 80.1652 100.915 80.3058L100.657 81.5916C100.596 82.1086 100.577 81.7995 100.544 82.4151C100.543 82.4291 100.536 82.4991 100.534 82.5127L100.504 82.6102C100.476 82.7122 100.47 82.7451 100.455 82.8755C100.435 83.0418 100.449 83.1257 100.442 83.258C100.437 83.3876 100.382 83.5263 100.364 83.7111C100.145 86.0367 100.254 88.3951 100.18 90.7736C100.174 90.978 100.187 90.9962 100.157 91.1379L99.8785 94.5327L99.3822 97.0499C99.3796 97.0589 99.3766 97.0744 99.3747 97.0839L99.341 97.2532C99.2186 97.6021 99.1494 98.0658 98.9903 98.4124L98.8769 98.734C98.7575 99.1547 98.5492 99.5795 98.4257 99.875L98.1962 100.428L97.3262 101.776C97.0076 102.127 96.9592 102.351 96.5189 102.647L95.6314 103.328C95.4738 103.406 95.3589 103.446 95.2199 103.512L94.7179 103.733C94.2599 103.907 93.9647 103.906 93.8131 103.948C93.318 104.083 92.7356 104.031 92.4442 104.023C90.9849 103.988 90.1262 103.903 88.7111 103.702C88.5592 103.68 88.4685 103.613 88.2908 103.57L85.5753 102.744C85.4366 102.697 85.6425 102.766 85.4834 102.719L82.0758 101.972C81.9265 101.975 81.9084 101.971 81.7825 101.966L81.5765 101.959C81.5671 101.958 81.5508 101.956 81.5417 101.955C81.1887 101.91 80.3062 101.865 79.9687 101.927C79.3031 102.047 79.7124 101.862 78.6081 102.157L78.1027 102.301C77.9104 102.373 77.834 102.361 77.6549 102.452L77.0777 102.741C76.7795 102.915 76.9345 102.774 76.6344 103.001C76.3237 103.236 76.3264 103.119 75.7387 103.675C75.6786 103.731 75.6393 103.755 75.5542 103.815C75.3188 103.98 75.1532 104.155 74.968 104.365L73.017 107.068C72.9834 107.118 72.9928 107.103 72.9558 107.169C72.9097 107.251 72.8896 107.297 72.8443 107.382L72.6542 107.787L72.5605 107.914C72.4161 108.1 72.4822 108.078 72.3367 108.392C72.2766 108.522 72.246 108.643 72.2226 108.684C72.2192 108.69 72.2101 108.702 72.2063 108.708C72.2025 108.714 72.1919 108.727 72.1874 108.733L71.4096 110.439L70.0712 113.917C69.939 114.244 69.8793 114.567 69.7481 114.892C69.4639 115.594 69.756 116.068 70.1854 116.587C70.1926 116.596 70.2028 116.608 70.21 116.617C70.425 116.894 70.5792 117.136 70.9224 117.366C71.0362 117.535 71.2357 117.641 71.3877 117.766C71.7792 118.087 72.3057 118.281 72.754 118.51C72.8927 118.581 73.0318 118.621 73.1901 118.673C73.7302 118.851 74.3553 118.952 74.8815 118.963C75.4318 118.973 76.1536 119.043 76.8366 118.891C77.1756 118.816 77.1484 118.86 77.396 118.758C77.6129 118.668 77.7694 118.566 77.9297 118.366C78.144 118.101 78.1655 117.703 78.277 117.372C78.2796 117.365 78.2864 117.351 78.2887 117.344C78.291 117.337 78.2974 117.322 78.2989 117.316L78.7498 115.661C78.757 115.633 78.7691 115.597 78.7785 115.574C78.7816 115.565 78.7891 115.552 78.7925 115.543L78.8243 115.476C78.8844 115.325 78.8949 115.182 78.9702 115.023C79.0348 114.887 79.0106 114.968 79.0665 114.849C79.3511 114.249 79.3247 114.038 79.8164 113.434L79.9086 113.31C80.3221 112.789 81.0255 112.877 81.6793 112.985C82.4292 113.11 82.3245 112.96 83.1802 113.387L84.4308 114.247C84.5098 114.317 84.5449 114.337 84.6137 114.389L85.2321 114.961C85.2427 114.973 85.2752 115.004 85.2865 115.015C85.3394 115.067 85.3356 115.061 85.3704 115.094L85.5412 115.247C85.7502 115.428 85.9982 115.605 86.1853 115.794L86.9945 116.5C87.0515 116.548 87.1041 116.607 87.1555 116.663L88.4655 117.735C88.535 117.783 88.5622 117.795 88.6287 117.842L89.9523 118.737C89.9621 118.744 89.9754 118.752 89.9852 118.759C89.9947 118.765 90.0075 118.774 90.017 118.781C90.0268 118.787 90.0392 118.797 90.0491 118.803L90.15 118.865C90.1606 118.871 90.1749 118.878 90.1855 118.884C90.2048 118.895 90.2513 118.917 90.2921 118.943L90.5892 119.128C91.1701 119.47 91.7828 119.772 92.4117 120.012C92.5693 120.071 92.5035 120.06 92.6256 120.123C92.7873 120.205 92.9026 120.204 93.0689 120.275L94.01 120.593C94.4413 120.701 95.2372 120.989 95.6515 121.021C96.0665 121.053 96.4962 121.205 96.9441 121.228L97.3927 121.27C97.4022 121.273 97.4169 121.279 97.4271 121.282C97.7691 121.388 98.1875 121.374 98.5137 121.39L98.8565 121.437C98.9839 121.455 99.1581 121.445 99.2719 121.443C100.408 121.427 100.802 121.543 102.067 121.405C102.596 121.347 102.903 121.373 103.408 121.292C103.423 121.289 103.463 121.282 103.476 121.28C104.008 121.178 104.501 121.197 105.047 121.076L106.091 120.9C106.237 120.876 106.224 120.862 106.31 120.832L107.051 120.685C107.171 120.657 107.152 120.652 107.248 120.631L108.116 120.413C108.274 120.358 108.184 120.39 108.322 120.356C108.926 120.212 109.534 119.985 110.129 119.774L111.052 119.4C111.063 119.395 111.078 119.388 111.09 119.383C111.188 119.341 111.222 119.334 111.323 119.29C111.338 119.284 111.383 119.264 111.398 119.257L111.583 119.171C111.595 119.167 111.609 119.161 111.622 119.156L113.771 118.113C113.846 118.078 113.879 118.063 113.951 118.022L114.317 117.793C114.398 117.746 114.452 117.73 114.535 117.686C114.661 117.621 114.754 117.541 114.901 117.458L115.297 117.204C115.551 117.056 115.757 116.897 116.017 116.733C116.123 116.667 116.088 116.686 116.178 116.624L117.268 115.819C117.276 115.811 117.287 115.8 117.295 115.792L117.926 115.287C118.002 115.218 118.038 115.196 118.111 115.147C118.244 114.964 118.122 115.119 118.287 114.998L118.983 114.342C118.991 114.334 119.002 114.322 119.01 114.314L119.464 113.902L119.896 113.469C120.083 113.345 120.203 113.118 120.363 112.961L120.522 112.797C120.735 112.562 120.986 112.383 121.157 112.124L123.447 109.011C123.521 108.892 123.486 108.963 123.537 108.884L124.735 106.838C124.776 106.774 124.843 106.635 124.866 106.588L125.027 106.262C125.032 106.252 125.038 106.237 125.041 106.227C125.044 106.219 125.049 106.203 125.052 106.194L126.458 102.926C126.462 102.915 126.47 102.879 126.475 102.866L126.824 101.889C126.872 101.743 126.885 101.705 126.928 101.557L127.671 98.7389C127.735 98.3878 127.848 98.0507 127.873 97.7135C127.886 97.5567 127.869 97.6852 127.937 97.4834L128.226 95.8771C128.245 95.6926 128.248 95.6692 128.273 95.5426L128.482 94.0308C128.564 93.7171 128.552 93.1074 128.572 93.0201C128.573 93.0148 128.578 93.0005 128.578 92.9952C128.65 92.6267 128.615 92.2446 128.652 91.8625C128.783 90.5109 128.714 88.7307 128.543 87.3629L128.447 86.4645C128.407 86.2669 128.432 86.3666 128.423 86.1886C128.415 86.0325 128.352 85.8194 128.307 85.5771C128.281 85.4365 128.277 85.3329 128.248 85.1992L128.02 84.1859C127.87 83.5082 127.716 82.7897 127.458 82.1513C127.412 82.0368 127.449 82.1313 127.388 82.0047L127.245 81.6521C127.242 81.6396 127.234 81.6052 127.23 81.592C127.043 80.9015 126.612 80.1758 126.291 79.5306L125.879 78.7517C125.774 78.588 125.68 78.3004 125.524 78.1862C125.483 78.1088 125.517 78.1662 125.462 78.0868L125.416 78.0245C125.41 78.0146 125.4 78.0022 125.393 77.9923C125.387 77.9829 125.378 77.9697 125.372 77.9602C125.335 77.9009 125.328 77.8763 125.315 77.8548L125.068 77.5063C125.032 77.4523 125.04 77.4583 125.003 77.4088L124.497 76.7784C124.277 76.5603 124.413 76.592 124.225 76.4548L123.4 75.5481C123.317 75.4642 123.27 75.4124 123.184 75.3319L122.622 74.8115C122.561 74.7627 122.543 74.7556 122.494 74.7231C122.364 74.5299 122.4 74.6327 122.262 74.522L120.362 73.1757C120.096 73.0075 120.538 73.2846 120.3 73.1326L119.63 72.7717C119.619 72.7653 119.607 72.7554 119.597 72.7498L118.825 72.3854C118.727 72.3378 118.644 72.2822 118.532 72.2448C118.369 72.1908 118.306 72.193 118.165 72.1254C118.083 72.0539 118.105 72.0694 117.996 72.0233L116.805 71.6832C116.798 71.6805 116.783 71.673 116.775 71.6696C116.448 71.5415 115.934 71.4341 115.599 71.3993C115.434 71.3819 115.337 71.3392 115.16 71.2996L111.597 71.2882C111.335 71.3109 111.347 71.2451 110.882 71.3374C110.279 71.4575 109.774 71.481 109.049 71.6635C108.947 71.6888 108.876 71.6941 108.774 71.7172C108.632 71.7489 108.413 71.8102 108.303 71.8461L107.51 72.1156C107.503 72.1186 107.488 72.1239 107.481 72.1265C107.343 72.176 107.568 72.0967 107.392 72.1511L104.907 73.4785Z" fill="#D5F1EC"/>
<path fill-rule="evenodd" clip-rule="evenodd" d="M101.876 73.0453L102.384 72.5196C102.566 72.3567 102.629 72.3484 102.742 72.1794C102.77 72.1605 102.788 72.1556 102.839 72.1148L102.926 72.0392C102.934 72.0317 102.945 72.0196 102.953 72.0116C103.114 71.8495 103.369 71.7319 103.537 71.5664L103.59 71.5097C103.733 71.3128 103.605 71.1019 103.59 70.871C103.577 70.6861 103.587 70.5384 103.57 70.3653C103.526 69.9064 103.501 69.3607 103.473 68.9691C103.455 68.7185 103.489 68.3837 103.465 68.1304C103.38 67.2434 103.431 67.0192 103.406 66.2951C103.375 65.4182 103.418 64.2776 103.363 63.4174C103.344 63.1105 103.155 62.8387 102.894 62.6664C102.695 62.5356 102.475 62.4536 102.181 62.4388H97.3304H97.2755H95.7637C95.3079 62.4846 94.9394 62.6233 94.693 62.9956C94.3683 63.4865 94.532 64.8218 94.5339 65.4073C94.5361 66.0751 94.5221 66.4833 94.5539 67.1893C94.5834 67.8269 94.6174 67.8436 94.6246 68.4475L94.6775 69.5814C94.6877 69.8161 94.6972 69.7636 94.7304 69.9038C94.7584 70.0262 94.7429 69.9049 94.7489 70.0085L95.6303 76.8026C95.6469 77.1121 95.7917 77.4439 95.8465 77.7304C95.848 77.7387 95.8495 77.755 95.851 77.7633C95.8526 77.7716 95.8544 77.7875 95.8559 77.7966L96.7067 80.4872C96.7801 80.7049 96.8477 80.8761 96.9441 81.0621L97.59 82.3645C97.6592 82.5157 97.6459 82.51 97.74 82.6468C97.8519 82.8105 97.9457 83.0067 98.0881 83.1106C98.0881 82.9715 98.1032 82.7882 98.1074 82.7425L98.2333 81.6963C98.2522 81.3996 98.3822 81.0258 98.4294 80.7219L98.5757 80.0265C98.7307 79.2354 99.1453 77.7758 99.4507 77.0596L99.6771 76.5282C99.682 76.5161 99.6884 76.5021 99.6933 76.4904L100.621 74.7125C100.671 74.6271 100.648 74.6656 100.685 74.6142L101.205 73.8889C101.215 73.8776 101.248 73.8462 101.258 73.8345C101.429 73.6433 101.52 73.4365 101.709 73.2566L101.876 73.0453Z" fill="#D5F1EC"/>
<path fill-rule="evenodd" clip-rule="evenodd" d="M104.907 73.4785V73.4241L104.843 73.4694L104.907 73.4785Z" fill="#F8F8F8"/>
<path fill-rule="evenodd" clip-rule="evenodd" d="M71.4096 110.439V110.385L71.3461 110.43L71.4096 110.439Z" fill="#E6E6E6"/>
<path fill-rule="evenodd" clip-rule="evenodd" d="M118.111 115.147V115.201L118.174 115.156L118.111 115.147Z" fill="#B5B5B5"/>
<path fill-rule="evenodd" clip-rule="evenodd" d="M96.5189 102.647V102.592L96.4558 102.637L96.5189 102.647Z" fill="#E6E6E6"/>
<path fill-rule="evenodd" clip-rule="evenodd" d="M95.2199 103.512V103.458L95.1567 103.503L95.2199 103.512Z" fill="#F8F8F8"/>
<path fill-rule="evenodd" clip-rule="evenodd" d="M95.1658 74.7771L95.182 74.7609C95.1809 74.762 95.1605 74.7718 95.1658 74.7771Z" fill="#E6E6E6"/>
<path d="M42.0786 91.4822H105.023V80.4396H42.0786V91.4822Z" stroke="#138B96" stroke-width="2.83465" stroke-miterlimit="10" stroke-linecap="round" stroke-linejoin="round"/>
<path d="M42.0786 80.4396H105.023V37.4917H42.0786V80.4396Z" stroke="#138B96" stroke-width="2.83465" stroke-miterlimit="10" stroke-linecap="round" stroke-linejoin="round"/>
<path d="M50.2919 91.4823V102.269H117.398V86.9438" stroke="#138B96" stroke-width="2.83465" stroke-miterlimit="10" stroke-linecap="round" stroke-linejoin="round"/>
<path d="M122.714 66.4418L117.398 87.3093L112.071 66.4418H122.714Z" stroke="#138B96" stroke-width="2.83465" stroke-miterlimit="10" stroke-linecap="round" stroke-linejoin="round"/>
<path d="M122.802 66.4418H111.974C110.808 66.4418 109.865 65.4924 109.865 64.3219C109.865 63.1529 110.808 62.2087 111.974 62.2087H122.802C123.968 62.2087 124.911 63.1529 124.911 64.3219C124.911 65.4924 123.968 66.4418 122.802 66.4418Z" stroke="#138B96" stroke-width="2.21443" stroke-miterlimit="10" stroke-linecap="round" stroke-linejoin="round"/>
<path d="M96.8307 61.9464C83.1352 72.5147 63.9677 72.5147 50.2726 61.9464C53.8783 57.318 57.4847 52.688 61.0907 48.0653C68.4291 53.7176 78.6837 53.7176 86.0027 48.0653C89.6186 52.688 93.2243 57.318 96.8307 61.9464Z" stroke="#138B96" stroke-width="2.83465" stroke-miterlimit="10" stroke-linecap="round" stroke-linejoin="round"/>
<path d="M60.974 86.1886C60.974 87.9431 59.5453 89.3623 57.7859 89.3623C56.0167 89.3623 54.5979 87.9431 54.5979 86.1886C54.5979 84.4342 56.0167 83.0161 57.7859 83.0161C59.5453 83.0161 60.974 84.4342 60.974 86.1886Z" stroke="#138B96" stroke-width="2.83465" stroke-miterlimit="10" stroke-linecap="round" stroke-linejoin="round"/>
<path d="M92.515 86.1886C92.515 87.9431 91.0765 89.3623 89.3171 89.3623C87.5577 89.3623 86.1196 87.9431 86.1196 86.1886C86.1196 84.4342 87.5577 83.0161 89.3171 83.0161C91.0765 83.0161 92.515 84.4342 92.515 86.1886Z" stroke="#138B96" stroke-width="2.83465" stroke-miterlimit="10" stroke-linecap="round" stroke-linejoin="round"/>
</g>
<defs>
<filter id="filter0_d_368_92" x="-7" y="-6" width="186" height="180" filterUnits="userSpaceOnUse" color-interpolation-filters="sRGB">
<feFlood flood-opacity="0" result="BackgroundImageFix"/>
<feColorMatrix in="SourceAlpha" type="matrix" values="0 0 0 0 0 0 0 0 0 0 0 0 0 0 0 0 0 0 127 0" result="hardAlpha"/>
<feOffset dy="4"/>
<feGaussianBlur stdDeviation="20"/>
<feComposite in2="hardAlpha" operator="out"/>
<feColorMatrix type="matrix" values="0 0 0 0 0 0 0 0 0 0 0 0 0 0 0 0 0 0 0.25 0"/>
<feBlend mode="normal" in2="BackgroundImageFix" result="effect1_dropShadow_368_92"/>
<feBlend mode="normal" in="SourceGraphic" in2="effect1_dropShadow_368_92" result="shape"/>
</filter>
</defs>
</svg>
