<svg width="264" height="224" viewBox="0 0 264 224" fill="none" xmlns="http://www.w3.org/2000/svg">
<g id="&#209;&#131;&#208;&#183;&#208;&#184; 1" filter="url(#filter0_d_190_758)">
<g id="&#208;&#161;&#208;&#187;&#208;&#190;&#208;&#185;_x0020_1">
<g id="_2574456779184">
<path id="Vector" fill-rule="evenodd" clip-rule="evenodd" d="M199.907 131.478C199.764 131.672 199.807 131.524 199.582 131.749C199.473 131.858 199.371 131.966 199.256 132.072L197.799 133.753C197.576 134.043 197.646 134.033 197.494 134.261L197.425 134.354C197.418 134.363 197.408 134.375 197.401 134.385C197.395 134.394 197.385 134.406 197.378 134.416C197.378 134.417 197.317 134.512 197.315 134.515C196.991 135.066 196.551 136.183 196.36 136.753L195.953 138.191C195.92 138.311 195.957 138.165 195.915 138.306L195.657 139.592C195.596 140.109 195.577 139.799 195.544 140.415C195.543 140.429 195.536 140.499 195.534 140.513L195.504 140.61C195.476 140.712 195.47 140.745 195.455 140.875C195.435 141.042 195.449 141.126 195.442 141.258C195.437 141.388 195.382 141.526 195.364 141.711C195.145 144.037 195.254 146.395 195.18 148.774C195.174 148.978 195.187 148.996 195.157 149.138L194.879 152.533L194.382 155.05C194.38 155.059 194.377 155.074 194.375 155.084L194.341 155.253C194.219 155.602 194.149 156.066 193.99 156.412L193.877 156.734C193.757 157.155 193.549 157.579 193.426 157.875L193.196 158.428L192.326 159.776C192.008 160.127 191.959 160.351 191.519 160.647L190.631 161.328C190.474 161.406 190.359 161.446 190.22 161.512L189.718 161.733C189.26 161.907 188.965 161.906 188.813 161.948C188.318 162.083 187.736 162.031 187.444 162.023C185.985 161.988 185.126 161.903 183.711 161.702C183.559 161.68 183.468 161.613 183.291 161.57L180.575 160.744C180.437 160.697 180.643 160.766 180.483 160.719L177.076 159.972C176.926 159.975 176.908 159.971 176.783 159.966L176.577 159.959C176.567 159.958 176.551 159.956 176.542 159.955C176.189 159.91 175.306 159.865 174.969 159.927C174.303 160.047 174.712 159.862 173.608 160.157L173.103 160.301C172.91 160.373 172.834 160.361 172.655 160.452L172.078 160.741C171.78 160.915 171.935 160.774 171.634 161.001C171.324 161.236 171.326 161.119 170.739 161.675C170.679 161.731 170.639 161.755 170.554 161.815C170.319 161.98 170.153 162.155 169.968 162.365L168.017 165.068C167.983 165.118 167.993 165.103 167.956 165.169C167.91 165.251 167.89 165.297 167.844 165.382L167.654 165.787L167.56 165.914C167.416 166.1 167.482 166.078 167.337 166.392C167.277 166.522 167.246 166.643 167.223 166.684C167.219 166.69 167.21 166.702 167.206 166.708C167.203 166.714 167.192 166.727 167.187 166.733L166.41 168.439L165.071 171.917C164.939 172.244 164.879 172.567 164.748 172.892C164.464 173.594 164.756 174.068 165.185 174.587C165.193 174.596 165.203 174.608 165.21 174.617C165.425 174.894 165.579 175.136 165.922 175.366C166.036 175.535 166.236 175.641 166.388 175.766C166.779 176.087 167.306 176.281 167.754 176.51C167.893 176.581 168.032 176.621 168.19 176.673C168.73 176.851 169.355 176.952 169.881 176.963C170.432 176.973 171.154 177.043 171.837 176.891C172.176 176.816 172.148 176.86 172.396 176.758C172.613 176.668 172.769 176.566 172.93 176.366C173.144 176.101 173.165 175.703 173.277 175.372C173.28 175.365 173.286 175.351 173.289 175.344C173.291 175.337 173.297 175.322 173.299 175.316L173.75 173.661C173.757 173.633 173.769 173.597 173.779 173.574C173.782 173.565 173.789 173.552 173.793 173.543L173.824 173.476C173.884 173.325 173.895 173.182 173.97 173.023C174.035 172.887 174.011 172.968 174.067 172.849C174.351 172.249 174.325 172.038 174.816 171.434L174.909 171.31C175.322 170.789 176.025 170.877 176.679 170.985C177.429 171.11 177.324 170.96 178.18 171.387L179.431 172.247C179.51 172.317 179.545 172.337 179.614 172.389L180.232 172.961C180.243 172.973 180.275 173.004 180.287 173.015C180.339 173.067 180.336 173.061 180.37 173.094L180.541 173.247C180.75 173.428 180.998 173.605 181.185 173.794L181.994 174.5C182.052 174.548 182.104 174.607 182.155 174.663L183.465 175.735C183.535 175.783 183.562 175.795 183.629 175.842L184.952 176.737C184.962 176.744 184.975 176.752 184.985 176.759C184.995 176.765 185.008 176.774 185.017 176.781C185.027 176.787 185.039 176.797 185.049 176.803L185.15 176.865C185.161 176.871 185.175 176.878 185.186 176.884C185.205 176.895 185.251 176.917 185.292 176.943L185.589 177.128C186.17 177.47 186.783 177.772 187.412 178.012C187.569 178.071 187.503 178.06 187.626 178.123C187.787 178.205 187.903 178.204 188.069 178.275L189.01 178.593C189.441 178.701 190.237 178.989 190.651 179.021C191.066 179.053 191.496 179.205 191.944 179.228L192.393 179.27C192.402 179.273 192.417 179.279 192.427 179.282C192.769 179.388 193.188 179.374 193.514 179.39L193.857 179.437C193.984 179.455 194.158 179.445 194.272 179.443C195.408 179.427 195.802 179.543 197.067 179.405C197.596 179.347 197.903 179.373 198.408 179.292C198.423 179.289 198.463 179.282 198.476 179.28C199.008 179.178 199.501 179.197 200.047 179.076L201.091 178.9C201.237 178.876 201.224 178.862 201.31 178.832L202.051 178.685C202.171 178.657 202.152 178.652 202.248 178.631L203.116 178.413C203.274 178.358 203.184 178.39 203.322 178.356C203.926 178.212 204.534 177.985 205.129 177.774L206.052 177.4C206.063 177.395 206.078 177.388 206.09 177.383C206.188 177.341 206.222 177.334 206.323 177.29C206.338 177.284 206.383 177.264 206.398 177.257L206.583 177.171C206.595 177.167 206.609 177.161 206.622 177.156L208.771 176.113C208.846 176.078 208.879 176.063 208.951 176.022L209.317 175.793C209.398 175.746 209.452 175.73 209.535 175.686C209.661 175.621 209.754 175.541 209.901 175.458L210.297 175.204C210.551 175.056 210.757 174.897 211.017 174.733C211.123 174.667 211.088 174.686 211.178 174.624L212.268 173.819C212.276 173.811 212.287 173.8 212.295 173.792L212.926 173.287C213.002 173.218 213.038 173.196 213.111 173.147C213.244 172.964 213.122 173.119 213.287 172.998L213.983 172.342C213.991 172.334 214.002 172.322 214.01 172.314L214.464 171.902L214.896 171.469C215.083 171.345 215.203 171.118 215.363 170.961L215.522 170.797C215.735 170.562 215.986 170.383 216.157 170.124L218.447 167.011C218.521 166.892 218.486 166.963 218.537 166.884L219.735 164.838C219.776 164.774 219.843 164.635 219.866 164.588L220.027 164.262C220.032 164.252 220.038 164.237 220.041 164.227C220.044 164.219 220.049 164.203 220.052 164.194L221.458 160.926C221.462 160.915 221.47 160.879 221.475 160.866L221.824 159.889C221.872 159.743 221.885 159.705 221.928 159.557L222.671 156.739C222.735 156.388 222.848 156.051 222.873 155.714C222.886 155.557 222.869 155.685 222.937 155.483L223.226 153.877C223.245 153.693 223.248 153.669 223.273 153.543L223.482 152.031C223.564 151.717 223.552 151.107 223.572 151.02C223.573 151.015 223.578 151 223.578 150.995C223.65 150.627 223.615 150.245 223.652 149.862C223.783 148.511 223.714 146.731 223.543 145.363L223.447 144.465C223.407 144.267 223.432 144.367 223.423 144.189C223.415 144.033 223.352 143.819 223.307 143.577C223.281 143.437 223.277 143.333 223.248 143.199L223.02 142.186C222.87 141.508 222.716 140.79 222.458 140.151C222.412 140.037 222.449 140.131 222.388 140.005L222.245 139.652C222.242 139.64 222.234 139.605 222.23 139.592C222.043 138.901 221.612 138.176 221.291 137.531L220.879 136.752C220.774 136.588 220.68 136.3 220.524 136.186C220.483 136.109 220.517 136.166 220.462 136.087L220.416 136.024C220.41 136.015 220.4 136.002 220.393 135.992C220.387 135.983 220.378 135.97 220.372 135.96C220.335 135.901 220.328 135.876 220.315 135.855L220.068 135.506C220.032 135.452 220.04 135.458 220.003 135.409L219.497 134.778C219.277 134.56 219.413 134.592 219.225 134.455L218.4 133.548C218.317 133.464 218.27 133.412 218.184 133.332L217.622 132.811C217.561 132.763 217.543 132.756 217.494 132.723C217.364 132.53 217.4 132.633 217.262 132.522L215.362 131.176C215.096 131.008 215.538 131.285 215.3 131.133L214.63 130.772C214.619 130.765 214.607 130.755 214.597 130.75L213.825 130.385C213.727 130.338 213.644 130.282 213.532 130.245C213.369 130.191 213.306 130.193 213.165 130.125C213.083 130.054 213.105 130.069 212.996 130.023L211.805 129.683C211.798 129.681 211.783 129.673 211.775 129.67C211.448 129.541 210.934 129.434 210.599 129.399C210.434 129.382 210.337 129.339 210.16 129.3L206.597 129.288C206.335 129.311 206.347 129.245 205.882 129.337C205.279 129.458 204.774 129.481 204.049 129.664C203.947 129.689 203.876 129.694 203.774 129.717C203.632 129.749 203.413 129.81 203.303 129.846L202.51 130.116C202.503 130.119 202.488 130.124 202.481 130.127C202.343 130.176 202.568 130.097 202.392 130.151L199.907 131.478Z" fill="#D5F1EC"/>
<path id="Vector_2" fill-rule="evenodd" clip-rule="evenodd" d="M196.876 131.045L197.384 130.52C197.566 130.357 197.629 130.348 197.742 130.179C197.77 130.161 197.788 130.156 197.839 130.115L197.926 130.039C197.934 130.032 197.945 130.02 197.953 130.012C198.114 129.849 198.369 129.732 198.537 129.566L198.59 129.51C198.733 129.313 198.605 129.102 198.59 128.871C198.577 128.686 198.587 128.538 198.57 128.365C198.526 127.906 198.501 127.361 198.473 126.969C198.455 126.719 198.489 126.384 198.465 126.13C198.38 125.243 198.431 125.019 198.406 124.295C198.375 123.418 198.418 122.278 198.363 121.417C198.344 121.11 198.155 120.839 197.894 120.666C197.695 120.536 197.475 120.454 197.181 120.439H192.33H192.276H190.764C190.308 120.485 189.939 120.623 189.693 120.996C189.368 121.487 189.532 122.822 189.534 123.407C189.536 124.075 189.522 124.483 189.554 125.189C189.583 125.827 189.617 125.844 189.625 126.448L189.677 127.581C189.688 127.816 189.697 127.764 189.73 127.904C189.758 128.026 189.743 127.905 189.749 128.008L190.63 134.803C190.647 135.112 190.792 135.444 190.847 135.73C190.848 135.739 190.85 135.755 190.851 135.763C190.853 135.772 190.854 135.787 190.856 135.797L191.707 138.487C191.78 138.705 191.848 138.876 191.944 139.062L192.59 140.365C192.659 140.516 192.646 140.51 192.74 140.647C192.852 140.81 192.946 141.007 193.088 141.111C193.088 140.972 193.103 140.788 193.107 140.742L193.233 139.696C193.252 139.4 193.382 139.026 193.429 138.722L193.576 138.026C193.731 137.235 194.145 135.776 194.451 135.06L194.677 134.528C194.682 134.516 194.688 134.502 194.693 134.49L195.621 132.712C195.671 132.627 195.648 132.666 195.685 132.614L196.205 131.889C196.215 131.878 196.248 131.846 196.258 131.834C196.429 131.643 196.52 131.437 196.709 131.257L196.876 131.045Z" fill="#D5F1EC"/>
<path id="Vector_3" fill-rule="evenodd" clip-rule="evenodd" d="M199.907 131.478V131.424L199.843 131.469L199.907 131.478Z" fill="#F8F8F8"/>
<path id="Vector_4" fill-rule="evenodd" clip-rule="evenodd" d="M166.41 168.439V168.385L166.346 168.43L166.41 168.439Z" fill="#E6E6E6"/>
<path id="Vector_5" fill-rule="evenodd" clip-rule="evenodd" d="M213.111 173.147V173.201L213.174 173.156L213.111 173.147Z" fill="#B5B5B5"/>
<path id="Vector_6" fill-rule="evenodd" clip-rule="evenodd" d="M191.519 160.647V160.592L191.456 160.637L191.519 160.647Z" fill="#E6E6E6"/>
<path id="Vector_7" fill-rule="evenodd" clip-rule="evenodd" d="M190.22 161.512V161.458L190.157 161.503L190.22 161.512Z" fill="#F8F8F8"/>
<path id="Vector_8" fill-rule="evenodd" clip-rule="evenodd" d="M190.166 132.777L190.182 132.761C190.181 132.762 190.161 132.772 190.166 132.777Z" fill="#E6E6E6"/>
</g>
<path id="Vector_9" d="M137.079 149.482H200.023V138.44H137.079V149.482Z" stroke="#138B96" stroke-width="2.83465" stroke-miterlimit="10" stroke-linecap="round" stroke-linejoin="round"/>
<path id="Vector_10" d="M137.079 138.44H200.023V95.4917H137.079V138.44Z" stroke="#138B96" stroke-width="2.83465" stroke-miterlimit="10" stroke-linecap="round" stroke-linejoin="round"/>
<path id="Vector_11" d="M145.292 149.482V160.269H212.398V144.944" stroke="#138B96" stroke-width="2.83465" stroke-miterlimit="10" stroke-linecap="round" stroke-linejoin="round"/>
<path id="Vector_12" d="M217.714 124.442L212.398 145.309L207.071 124.442H217.714Z" stroke="#138B96" stroke-width="2.83465" stroke-miterlimit="10" stroke-linecap="round" stroke-linejoin="round"/>
<path id="Vector_13" d="M217.802 124.442H206.974C205.808 124.442 204.865 123.492 204.865 122.322C204.865 121.153 205.808 120.209 206.974 120.209H217.802C218.968 120.209 219.911 121.153 219.911 122.322C219.911 123.492 218.968 124.442 217.802 124.442Z" stroke="#138B96" stroke-width="2.21443" stroke-miterlimit="10" stroke-linecap="round" stroke-linejoin="round"/>
<path id="Vector_14" d="M191.831 119.946C178.135 130.515 158.968 130.515 145.273 119.946C148.878 115.318 152.485 110.688 156.091 106.065C163.429 111.718 173.684 111.718 181.003 106.065C184.619 110.688 188.224 115.318 191.831 119.946Z" stroke="#138B96" stroke-width="2.83465" stroke-miterlimit="10" stroke-linecap="round" stroke-linejoin="round"/>
<path id="Vector_15" d="M155.974 144.189C155.974 145.943 154.545 147.362 152.786 147.362C151.017 147.362 149.598 145.943 149.598 144.189C149.598 142.434 151.017 141.016 152.786 141.016C154.545 141.016 155.974 142.434 155.974 144.189Z" stroke="#138B96" stroke-width="2.83465" stroke-miterlimit="10" stroke-linecap="round" stroke-linejoin="round"/>
<path id="Vector_16" d="M187.515 144.189C187.515 145.943 186.076 147.362 184.317 147.362C182.558 147.362 181.12 145.943 181.12 144.189C181.12 142.434 182.558 141.016 184.317 141.016C186.076 141.016 187.515 142.434 187.515 144.189Z" stroke="#138B96" stroke-width="2.83465" stroke-miterlimit="10" stroke-linecap="round" stroke-linejoin="round"/>
</g>
</g>
<defs>
<filter id="filter0_d_190_758" x="-40" y="-36" width="325.669" height="268.976" filterUnits="userSpaceOnUse" color-interpolation-filters="sRGB">
<feFlood flood-opacity="0" result="BackgroundImageFix"/>
<feColorMatrix in="SourceAlpha" type="matrix" values="0 0 0 0 0 0 0 0 0 0 0 0 0 0 0 0 0 0 127 0" result="hardAlpha"/>
<feOffset dy="4"/>
<feGaussianBlur stdDeviation="20"/>
<feComposite in2="hardAlpha" operator="out"/>
<feColorMatrix type="matrix" values="0 0 0 0 0 0 0 0 0 0 0 0 0 0 0 0 0 0 0.25 0"/>
<feBlend mode="normal" in2="BackgroundImageFix" result="effect1_dropShadow_190_758"/>
<feBlend mode="normal" in="SourceGraphic" in2="effect1_dropShadow_190_758" result="shape"/>
</filter>
</defs>
</svg>
