<svg width="175" height="176" viewBox="0 0 175 176" fill="none" xmlns="http://www.w3.org/2000/svg">
<g id="&#208;&#176;&#208;&#189;&#208;&#176;&#208;&#187;&#208;&#184;&#208;&#183;&#209;&#139; 1" filter="url(#filter0_d_190_698)">
<g id="&#208;&#161;&#208;&#187;&#208;&#190;&#208;&#185;_x0020_1">
<g id="_2574456771600">
<path id="Vector" d="M116.778 108.242C113.849 108.242 111.465 110.626 111.465 113.555C111.465 116.484 113.849 118.868 116.778 118.868C119.708 118.868 122.092 116.484 122.092 113.555C122.092 110.626 119.708 108.242 116.778 108.242Z" fill="#D5F1EC"/>
<path id="Vector_2" d="M100.84 94.5801C99.1661 94.5801 97.8036 95.9426 97.8036 97.6165C97.8036 99.2897 99.1661 100.652 100.84 100.652C102.513 100.652 103.875 99.2897 103.875 97.6165C103.875 95.9426 102.513 94.5801 100.84 94.5801Z" fill="#D5F1EC"/>
<path id="Vector_3" d="M132.717 64.2211H78.0707C76.7207 64.2211 76.043 65.8584 76.9977 66.8127L85.6604 75.4757V120.386C85.6604 126.244 90.4275 131.012 96.2858 131.012H123.609C129.468 131.012 134.235 126.244 134.235 120.386V65.7393C134.235 64.901 133.556 64.2211 132.717 64.2211ZM98.5629 117.35C96.4694 117.35 94.7679 115.648 94.7679 113.555C94.7679 111.462 96.4694 109.76 98.5629 109.76C100.656 109.76 102.358 111.462 102.358 113.555C102.358 115.648 100.656 117.35 98.5629 117.35ZM100.84 103.688C97.4911 103.688 94.7679 100.965 94.7679 97.6166C94.7679 94.2676 97.4911 91.5444 100.84 91.5444C104.188 91.5444 106.912 94.2676 106.912 97.6166C106.912 100.965 104.188 103.688 100.84 103.688ZM116.778 121.904C112.176 121.904 108.43 118.158 108.43 113.555C108.43 108.952 112.176 105.206 116.778 105.206C121.381 105.206 125.127 108.952 125.127 113.555C125.127 118.158 121.381 121.904 116.778 121.904ZM112.984 96.8573C112.984 94.7642 114.685 93.0623 116.778 93.0623C118.872 93.0623 120.573 94.7642 120.573 96.8573C120.573 98.9504 118.872 100.652 116.778 100.652C114.685 100.652 112.984 98.9504 112.984 96.8573ZM130.419 87.5585C124.469 90.8717 115.157 90.8698 109.209 87.5585C104.261 84.801 95.9006 84.801 90.9521 87.5585C90.223 87.9614 89.2967 87.7033 88.8873 86.9697C88.4795 86.2372 88.7437 85.3131 89.4758 84.9057C95.4229 81.5929 104.738 81.5929 110.686 84.9057C115.634 87.6602 123.995 87.6602 128.943 84.9057C129.671 84.4982 130.599 84.7601 131.008 85.4934C131.415 86.2259 131.152 87.1492 130.419 87.5585Z" fill="#D5F1EC"/>
<path id="Vector_4" d="M51.4749 112.796H77.3428C83.6028 112.796 88.6957 107.702 88.6957 101.442C88.6957 94.2607 83.4705 92.402 71.9989 78.81V58.1492C72.8372 58.1492 73.5167 57.4697 73.5167 56.6318C73.5167 55.7931 72.8372 55.1135 71.9989 55.1135H56.8192C55.9809 55.1135 55.3009 55.7931 55.3009 56.6318C55.3009 57.4697 55.9809 58.1492 56.8192 58.1492V78.81C45.2863 92.4749 40.1212 94.2645 40.1212 101.442C40.1212 107.702 45.2149 112.796 51.4749 112.796ZM59.4561 80.4265C59.7128 80.1465 59.8553 79.7806 59.8553 79.4008V58.1492H68.9628V79.4008C68.9628 79.7806 69.1053 80.1465 69.3615 80.4265L80.2069 92.2572C75.5422 93.4852 69.0323 93.286 64.9761 91.6544C60.9547 90.0367 55.1883 89.6456 50.2829 90.4336L59.4561 80.4265ZM46.4731 94.5888C51.0936 92.5955 59.0472 92.5418 63.8427 94.4705C66.5548 95.5617 70.0362 96.1074 73.5167 96.1074C76.7033 96.1074 79.8611 95.627 82.458 94.7128C82.8854 95.333 85.6604 97.3463 85.6604 101.442C85.6604 106.029 81.9296 109.76 77.3428 109.76H51.4749C46.8885 109.76 43.1573 106.029 43.1573 101.442C43.1573 97.301 45.9984 95.2714 46.4731 94.5888Z" fill="#138B96"/>
<path id="Vector_5" d="M114.502 46.0056H93.2501C92.411 46.0056 91.7318 46.6856 91.7318 47.5239C91.7318 48.3618 92.411 49.0417 93.2501 49.0417V102.17C93.2501 108.028 98.0172 112.796 103.875 112.796C109.734 112.796 114.502 108.028 114.502 102.17V49.0417C115.34 49.0417 116.019 48.3618 116.019 47.5239C116.019 46.6856 115.34 46.0056 114.502 46.0056ZM111.465 102.17C111.465 106.355 108.061 109.76 103.875 109.76C99.6911 109.76 96.2858 106.355 96.2858 102.17V61.1853H111.465V102.17ZM111.465 58.1492H96.2858V49.0417H111.465V58.1492Z" fill="#138B96"/>
<path id="Vector_6" d="M68.9628 52.0774C68.9628 52.9157 69.6427 53.5957 70.4806 53.5957C71.3189 53.5957 71.9989 52.9157 71.9989 52.0774C71.9989 48.0122 68.6914 44.7047 64.6261 44.7047C61.158 44.7047 58.337 41.884 58.337 38.4156C58.337 37.5776 57.6571 36.8977 56.8191 36.8977C55.9808 36.8977 55.3009 37.5776 55.3009 38.4156C55.3009 43.5576 59.4841 47.7408 64.6261 47.7408C67.0174 47.7408 68.9628 49.6865 68.9628 52.0774Z" fill="#138B96"/>
<path id="Vector_7" d="M50.7474 42.9699C50.7474 42.1316 50.0675 41.452 49.2292 41.452C48.3909 41.452 47.7109 42.1316 47.7109 42.9699C47.7109 46.6765 50.727 49.6922 54.434 49.6922C55.7489 49.6922 56.8192 50.7625 56.8192 52.0774C56.8192 52.9157 57.4988 53.5957 58.3371 53.5957C59.1754 53.5957 59.8553 52.9157 59.8553 52.0774C59.8553 49.0882 57.4232 46.6568 54.434 46.6568C52.4009 46.6568 50.7474 45.0029 50.7474 42.9699Z" fill="#138B96"/>
</g>
</g>
</g>
<defs>
<filter id="filter0_d_190_698" x="-8" y="-3" width="203" height="186" filterUnits="userSpaceOnUse" color-interpolation-filters="sRGB">
<feFlood flood-opacity="0" result="BackgroundImageFix"/>
<feColorMatrix in="SourceAlpha" type="matrix" values="0 0 0 0 0 0 0 0 0 0 0 0 0 0 0 0 0 0 127 0" result="hardAlpha"/>
<feOffset dy="4"/>
<feGaussianBlur stdDeviation="20"/>
<feComposite in2="hardAlpha" operator="out"/>
<feColorMatrix type="matrix" values="0 0 0 0 0 0 0 0 0 0 0 0 0 0 0 0 0 0 0.25 0"/>
<feBlend mode="normal" in2="BackgroundImageFix" result="effect1_dropShadow_190_698"/>
<feBlend mode="normal" in="SourceGraphic" in2="effect1_dropShadow_190_698" result="shape"/>
</filter>
</defs>
</svg>
