<svg width="174" height="175" viewBox="0 0 174 175" fill="none" xmlns="http://www.w3.org/2000/svg">
<g clip-path="url(#clip0_368_44)" filter="url(#filter0_d_368_44)">
<path d="M116.778 107.242C113.849 107.242 111.465 109.626 111.465 112.555C111.465 115.484 113.849 117.868 116.778 117.868C119.708 117.868 122.092 115.484 122.092 112.555C122.092 109.626 119.708 107.242 116.778 107.242Z" fill="#D5F1EC"/>
<path d="M100.84 93.5801C99.1661 93.5801 97.8036 94.9426 97.8036 96.6165C97.8036 98.2897 99.1661 99.6519 100.84 99.6519C102.513 99.6519 103.875 98.2897 103.875 96.6165C103.875 94.9426 102.513 93.5801 100.84 93.5801Z" fill="#D5F1EC"/>
<path d="M132.717 63.2211H78.0707C76.7207 63.2211 76.043 64.8584 76.9977 65.8127L85.6604 74.4757V119.386C85.6604 125.244 90.4275 130.012 96.2858 130.012H123.609C129.468 130.012 134.235 125.244 134.235 119.386V64.7393C134.235 63.901 133.556 63.2211 132.717 63.2211ZM98.5629 116.35C96.4694 116.35 94.7679 114.648 94.7679 112.555C94.7679 110.462 96.4694 108.76 98.5629 108.76C100.656 108.76 102.358 110.462 102.358 112.555C102.358 114.648 100.656 116.35 98.5629 116.35ZM100.84 102.688C97.4911 102.688 94.7679 99.9649 94.7679 96.6166C94.7679 93.2676 97.4911 90.5444 100.84 90.5444C104.188 90.5444 106.912 93.2676 106.912 96.6166C106.912 99.9649 104.188 102.688 100.84 102.688ZM116.778 120.904C112.176 120.904 108.43 117.158 108.43 112.555C108.43 107.952 112.176 104.206 116.778 104.206C121.381 104.206 125.127 107.952 125.127 112.555C125.127 117.158 121.381 120.904 116.778 120.904ZM112.984 95.8573C112.984 93.7642 114.685 92.0623 116.778 92.0623C118.872 92.0623 120.573 93.7642 120.573 95.8573C120.573 97.9504 118.872 99.6519 116.778 99.6519C114.685 99.6519 112.984 97.9504 112.984 95.8573ZM130.419 86.5585C124.469 89.8717 115.157 89.8698 109.209 86.5585C104.261 83.801 95.9006 83.801 90.9521 86.5585C90.223 86.9614 89.2967 86.7033 88.8873 85.9697C88.4795 85.2372 88.7437 84.3131 89.4758 83.9057C95.4229 80.5929 104.738 80.5929 110.686 83.9057C115.634 86.6602 123.995 86.6602 128.943 83.9057C129.671 83.4982 130.599 83.7601 131.008 84.4934C131.415 85.2259 131.152 86.1492 130.419 86.5585Z" fill="#D5F1EC"/>
<path d="M51.4749 111.796H77.3428C83.6028 111.796 88.6957 106.702 88.6957 100.442C88.6957 93.2607 83.4705 91.402 71.9989 77.81V57.1492C72.8372 57.1492 73.5167 56.4697 73.5167 55.6318C73.5167 54.7931 72.8372 54.1135 71.9989 54.1135H56.8192C55.9809 54.1135 55.3009 54.7931 55.3009 55.6318C55.3009 56.4697 55.9809 57.1492 56.8192 57.1492V77.81C45.2863 91.4749 40.1212 93.2645 40.1212 100.442C40.1212 106.702 45.2149 111.796 51.4749 111.796ZM59.4561 79.4265C59.7128 79.1465 59.8553 78.7806 59.8553 78.4008V57.1492H68.9628V78.4008C68.9628 78.7806 69.1053 79.1465 69.3615 79.4265L80.2069 91.2572C75.5422 92.4852 69.0323 92.286 64.9761 90.6544C60.9547 89.0367 55.1883 88.6456 50.2829 89.4336L59.4561 79.4265ZM46.4731 93.5888C51.0936 91.5955 59.0472 91.5418 63.8427 93.4705C66.5548 94.5617 70.0362 95.1074 73.5167 95.1074C76.7033 95.1074 79.8611 94.627 82.458 93.7128C82.8854 94.333 85.6604 96.3463 85.6604 100.442C85.6604 105.029 81.9296 108.76 77.3428 108.76H51.4749C46.8885 108.76 43.1573 105.029 43.1573 100.442C43.1573 96.301 45.9984 94.2714 46.4731 93.5888Z" fill="#138B96"/>
<path d="M114.502 45.0056H93.2501C92.411 45.0056 91.7318 45.6856 91.7318 46.5239C91.7318 47.3618 92.411 48.0417 93.2501 48.0417V101.17C93.2501 107.028 98.0172 111.796 103.875 111.796C109.734 111.796 114.502 107.028 114.502 101.17V48.0417C115.34 48.0417 116.019 47.3618 116.019 46.5239C116.019 45.6856 115.34 45.0056 114.502 45.0056ZM111.465 101.17C111.465 105.355 108.061 108.76 103.875 108.76C99.6911 108.76 96.2858 105.355 96.2858 101.17V60.1853H111.465V101.17ZM111.465 57.1492H96.2858V48.0417H111.465V57.1492Z" fill="#138B96"/>
<path d="M68.9628 51.0774C68.9628 51.9157 69.6427 52.5957 70.4806 52.5957C71.3189 52.5957 71.9989 51.9157 71.9989 51.0774C71.9989 47.0122 68.6914 43.7047 64.6261 43.7047C61.158 43.7047 58.337 40.884 58.337 37.4156C58.337 36.5776 57.6571 35.8977 56.8191 35.8977C55.9808 35.8977 55.3009 36.5776 55.3009 37.4156C55.3009 42.5576 59.4841 46.7408 64.6261 46.7408C67.0174 46.7408 68.9628 48.6865 68.9628 51.0774Z" fill="#138B96"/>
<path d="M50.7474 41.9699C50.7474 41.1316 50.0675 40.452 49.2292 40.452C48.3909 40.452 47.7109 41.1316 47.7109 41.9699C47.7109 45.6765 50.727 48.6922 54.434 48.6922C55.7489 48.6922 56.8192 49.7625 56.8192 51.0774C56.8192 51.9157 57.4988 52.5957 58.3371 52.5957C59.1754 52.5957 59.8553 51.9157 59.8553 51.0774C59.8553 48.0882 57.4232 45.6568 54.434 45.6568C52.4009 45.6568 50.7474 44.0029 50.7474 41.9699Z" fill="#138B96"/>
</g>
<defs>
<filter id="filter0_d_368_44" x="0" y="0" width="174" height="176" filterUnits="userSpaceOnUse" color-interpolation-filters="sRGB">
<feFlood flood-opacity="0" result="BackgroundImageFix"/>
<feColorMatrix in="SourceAlpha" type="matrix" values="0 0 0 0 0 0 0 0 0 0 0 0 0 0 0 0 0 0 127 0" result="hardAlpha"/>
<feOffset dy="4"/>
<feGaussianBlur stdDeviation="20"/>
<feComposite in2="hardAlpha" operator="out"/>
<feColorMatrix type="matrix" values="0 0 0 0 0 0 0 0 0 0 0 0 0 0 0 0 0 0 0.25 0"/>
<feBlend mode="normal" in2="BackgroundImageFix" result="effect1_dropShadow_368_44"/>
<feBlend mode="normal" in="SourceGraphic" in2="effect1_dropShadow_368_44" result="shape"/>
</filter>
<clipPath id="clip0_368_44">
<rect width="94" height="96" fill="white" transform="translate(40 36)"/>
</clipPath>
</defs>
</svg>
