<svg width="174" height="173" viewBox="0 0 174 173" fill="none" xmlns="http://www.w3.org/2000/svg">
<g id="&#208;&#186;&#208;&#176;&#209;&#128;&#208;&#180;&#208;&#184;&#208;&#190;&#208;&#187;&#208;&#190;&#208;&#179;&#208;&#184;&#209;&#143; 1" clip-path="url(#clip0_190_676)" filter="url(#filter0_d_190_676)">
<g id="&#208;&#161;&#208;&#187;&#208;&#190;&#208;&#185;_x0020_1">
<g id="_2574302348144">
<path id="Vector" d="M86.6061 128.601C87.4447 128.601 88.1239 127.921 88.1239 127.083V125.565H75.9803V127.083C75.9803 127.921 76.6602 128.601 77.4985 128.601H86.6061Z" fill="#15AD92" fill-opacity="0.180392"/>
<path id="Vector_2" d="M113.929 128.601H123.037C123.876 128.601 124.555 127.921 124.555 127.083V125.565H112.412V127.083C112.412 127.921 113.091 128.601 113.929 128.601Z" fill="#15AD92" fill-opacity="0.180392"/>
<path id="Vector_3" d="M129.109 69.4H71.4267C68.9152 69.4 66.8724 71.4429 66.8724 73.954V117.975C66.8724 120.486 68.9152 122.529 71.4267 122.529H129.109C131.621 122.529 133.663 120.486 133.663 117.975V73.954C133.663 71.4429 131.621 69.4 129.109 69.4ZM77.4985 87.6158H90.2215L94.3563 79.347C94.8704 78.3182 96.5575 78.3182 97.0719 79.347L104.822 94.8476L108.018 88.4549C108.275 87.9401 108.8 87.6158 109.376 87.6158H123.037C123.876 87.6158 124.556 88.2954 124.556 89.1333C124.556 89.972 123.876 90.6516 123.037 90.6516H110.314L106.179 98.9204C105.622 100.036 104.023 100.038 103.464 98.9204L95.714 83.4194L92.5176 89.8125C92.261 90.3269 91.7352 90.6516 91.16 90.6516H77.4985C76.6602 90.6516 75.9803 89.972 75.9803 89.1333C75.9803 88.2954 76.6602 87.6158 77.4985 87.6158ZM86.606 116.457H77.4985C76.6602 116.457 75.9803 115.777 75.9803 114.939C75.9803 114.101 76.6602 113.421 77.4985 113.421H86.606C87.4447 113.421 88.1239 114.101 88.1239 114.939C88.1239 115.777 87.4447 116.457 86.606 116.457ZM97.2318 116.457H94.1957C93.3578 116.457 92.6782 115.777 92.6782 114.939C92.6782 114.101 93.3578 113.421 94.1957 113.421H97.2318C98.0701 113.421 98.7501 114.101 98.7501 114.939C98.7501 115.777 98.0701 116.457 97.2318 116.457ZM106.34 116.457H103.304C102.466 116.457 101.786 115.777 101.786 114.939C101.786 114.101 102.466 113.421 103.304 113.421H106.34C107.178 113.421 107.858 114.101 107.858 114.939C107.858 115.777 107.178 116.457 106.34 116.457ZM123.037 116.457H113.929C113.091 116.457 112.412 115.777 112.412 114.939C112.412 114.101 113.091 113.421 113.929 113.421H123.037C123.876 113.421 124.556 114.101 124.556 114.939C124.556 115.777 123.876 116.457 123.037 116.457ZM129.112 108.783L71.4286 108.867C71.4278 108.867 71.4271 108.867 71.4267 108.867C70.5888 108.867 69.9096 108.189 69.9085 107.351C69.9066 106.513 70.5858 105.833 71.4241 105.831L129.107 105.747C129.108 105.747 129.109 105.747 129.109 105.747C129.947 105.747 130.626 106.426 130.627 107.263C130.629 108.102 129.95 108.782 129.112 108.783Z" fill="#15AD92" fill-opacity="0.180392"/>
<path id="Vector_4" d="M76.7747 105.648C77.2264 105.893 77.7702 105.893 78.2215 105.648C110.611 88.089 115.448 69.377 115.448 59.7857C115.448 46.4504 106.779 36.0045 95.7139 36.0045C86.0293 36.0045 79.9835 41.9051 77.4985 44.9669C75.0131 41.9051 68.967 36.0045 59.2823 36.0045C48.217 36.0045 39.5486 46.4504 39.5486 59.7857C39.5486 69.377 44.3853 88.089 76.7747 105.648ZM42.5851 59.7857C42.5851 47.9592 49.7636 39.0406 59.2823 39.0406C70.3287 39.0406 76.1314 48.2181 76.204 48.3348C76.7921 49.2937 78.1947 49.3035 78.7919 48.3348C78.8493 48.2422 84.6531 39.0406 95.7139 39.0406C105.233 39.0406 112.412 47.9592 112.412 59.7857C112.412 62.3539 112.021 65.6341 110.735 69.4H92.0984L87.964 61.1312C87.3714 59.9478 85.5992 60.0321 85.166 61.3296L77.7068 83.7082L69.8631 52.334C69.481 50.8067 67.3002 50.8067 66.9181 52.334L62.651 69.4H44.2621C42.9752 65.6341 42.5851 62.3539 42.5851 59.7857ZM63.8366 72.4361C64.5332 72.4361 65.1402 71.9618 65.3092 71.2864L68.3902 58.961L76.0256 89.5022C76.3922 90.9664 78.4555 91.0598 78.9385 89.6141L86.8868 65.7664L89.802 71.5971C90.0594 72.1111 90.5847 72.4361 91.16 72.4361H109.536C105.619 81.1892 96.751 92.0009 77.4985 102.584C58.2456 92.0009 49.3781 81.1892 45.461 72.4361H63.8366Z" fill="#138B96"/>
</g>
</g>
</g>
<defs>
<filter id="filter0_d_190_676" x="0" y="0" width="174" height="173" filterUnits="userSpaceOnUse" color-interpolation-filters="sRGB">
<feFlood flood-opacity="0" result="BackgroundImageFix"/>
<feColorMatrix in="SourceAlpha" type="matrix" values="0 0 0 0 0 0 0 0 0 0 0 0 0 0 0 0 0 0 127 0" result="hardAlpha"/>
<feOffset dy="4"/>
<feGaussianBlur stdDeviation="20"/>
<feComposite in2="hardAlpha" operator="out"/>
<feColorMatrix type="matrix" values="0 0 0 0 0 0 0 0 0 0 0 0 0 0 0 0 0 0 0.25 0"/>
<feBlend mode="normal" in2="BackgroundImageFix" result="effect1_dropShadow_190_676"/>
<feBlend mode="normal" in="SourceGraphic" in2="effect1_dropShadow_190_676" result="shape"/>
</filter>
<clipPath id="clip0_190_676">
<rect width="94" height="93" fill="white" transform="translate(40 36)"/>
</clipPath>
</defs>
</svg>
