<svg width="174" height="173" viewBox="0 0 174 173" fill="none" xmlns="http://www.w3.org/2000/svg">
<g clip-path="url(#clip0_368_32)" filter="url(#filter0_d_368_32)">
<path d="M86.606 128.601C87.4447 128.601 88.1238 127.921 88.1238 127.083V125.565H75.9802V127.083C75.9802 127.921 76.6602 128.601 77.4985 128.601H86.606Z" fill="#15AD92" fill-opacity="0.180392"/>
<path d="M113.929 128.601H123.037C123.876 128.601 124.555 127.921 124.555 127.083V125.565H112.412V127.083C112.412 127.921 113.091 128.601 113.929 128.601Z" fill="#15AD92" fill-opacity="0.180392"/>
<path d="M129.109 69.4H71.4266C68.9151 69.4 66.8723 71.4429 66.8723 73.954V117.975C66.8723 120.486 68.9151 122.529 71.4266 122.529H129.109C131.621 122.529 133.663 120.486 133.663 117.975V73.954C133.663 71.4429 131.621 69.4 129.109 69.4ZM77.4985 87.6158H90.2215L94.3563 79.347C94.8703 78.3182 96.5575 78.3182 97.0719 79.347L104.822 94.8476L108.018 88.4549C108.275 87.9401 108.8 87.6158 109.376 87.6158H123.037C123.876 87.6158 124.555 88.2954 124.555 89.1333C124.555 89.972 123.876 90.6516 123.037 90.6516H110.314L106.179 98.9204C105.622 100.036 104.023 100.038 103.464 98.9204L95.7139 83.4194L92.5175 89.8125C92.2609 90.3269 91.7352 90.6516 91.1599 90.6516H77.4985C76.6602 90.6516 75.9802 89.972 75.9802 89.1333C75.9802 88.2954 76.6602 87.6158 77.4985 87.6158ZM86.606 116.457H77.4985C76.6602 116.457 75.9802 115.777 75.9802 114.939C75.9802 114.101 76.6602 113.421 77.4985 113.421H86.606C87.4447 113.421 88.1238 114.101 88.1238 114.939C88.1238 115.777 87.4447 116.457 86.606 116.457ZM97.2317 116.457H94.1957C93.3577 116.457 92.6782 115.777 92.6782 114.939C92.6782 114.101 93.3577 113.421 94.1957 113.421H97.2317C98.07 113.421 98.75 114.101 98.75 114.939C98.75 115.777 98.07 116.457 97.2317 116.457ZM106.34 116.457H103.304C102.466 116.457 101.786 115.777 101.786 114.939C101.786 114.101 102.466 113.421 103.304 113.421H106.34C107.178 113.421 107.858 114.101 107.858 114.939C107.858 115.777 107.178 116.457 106.34 116.457ZM123.037 116.457H113.929C113.091 116.457 112.412 115.777 112.412 114.939C112.412 114.101 113.091 113.421 113.929 113.421H123.037C123.876 113.421 124.555 114.101 124.555 114.939C124.555 115.777 123.876 116.457 123.037 116.457ZM129.112 108.783L71.4285 108.867C71.4278 108.867 71.427 108.867 71.4266 108.867C70.5887 108.867 69.9095 108.189 69.9084 107.351C69.9065 106.513 70.5857 105.833 71.424 105.831L129.107 105.747C129.108 105.747 129.109 105.747 129.109 105.747C129.947 105.747 130.626 106.426 130.627 107.263C130.629 108.102 129.95 108.782 129.112 108.783Z" fill="#15AD92" fill-opacity="0.180392"/>
<path d="M76.7747 105.648C77.2263 105.893 77.7702 105.893 78.2215 105.648C110.611 88.089 115.448 69.377 115.448 59.7857C115.448 46.4504 106.779 36.0045 95.7139 36.0045C86.0292 36.0045 79.9835 41.9051 77.4984 44.9669C75.013 41.9051 68.9669 36.0045 59.2822 36.0045C48.2169 36.0045 39.5486 46.4504 39.5486 59.7857C39.5486 69.377 44.3852 88.089 76.7747 105.648ZM42.5851 59.7857C42.5851 47.9592 49.7635 39.0406 59.2822 39.0406C70.3287 39.0406 76.1314 48.2181 76.2039 48.3348C76.792 49.2937 78.1946 49.3035 78.7918 48.3348C78.8492 48.2422 84.6531 39.0406 95.7139 39.0406C105.233 39.0406 112.412 47.9592 112.412 59.7857C112.412 62.3539 112.021 65.6341 110.734 69.4H92.0984L87.9639 61.1312C87.3713 59.9478 85.5991 60.0321 85.166 61.3296L77.7067 83.7082L69.863 52.334C69.4809 50.8067 67.3001 50.8067 66.918 52.334L62.6509 69.4H44.262C42.9751 65.6341 42.5851 62.3539 42.5851 59.7857ZM63.8366 72.4361C64.5332 72.4361 65.1401 71.9618 65.3091 71.2864L68.3902 58.961L76.0256 89.5022C76.3922 90.9664 78.4554 91.0598 78.9384 89.6141L86.8868 65.7664L89.8019 71.5971C90.0593 72.1111 90.5847 72.4361 91.1599 72.4361H109.536C105.618 81.1892 96.751 92.0009 77.4984 102.584C58.2455 92.0009 49.378 81.1892 45.4609 72.4361H63.8366Z" fill="#138B96"/>
</g>
<defs>
<filter id="filter0_d_368_32" x="0" y="0" width="174" height="173" filterUnits="userSpaceOnUse" color-interpolation-filters="sRGB">
<feFlood flood-opacity="0" result="BackgroundImageFix"/>
<feColorMatrix in="SourceAlpha" type="matrix" values="0 0 0 0 0 0 0 0 0 0 0 0 0 0 0 0 0 0 127 0" result="hardAlpha"/>
<feOffset dy="4"/>
<feGaussianBlur stdDeviation="20"/>
<feComposite in2="hardAlpha" operator="out"/>
<feColorMatrix type="matrix" values="0 0 0 0 0 0 0 0 0 0 0 0 0 0 0 0 0 0 0.25 0"/>
<feBlend mode="normal" in2="BackgroundImageFix" result="effect1_dropShadow_368_32"/>
<feBlend mode="normal" in="SourceGraphic" in2="effect1_dropShadow_368_32" result="shape"/>
</filter>
<clipPath id="clip0_368_32">
<rect width="94" height="93" fill="white" transform="translate(40 36)"/>
</clipPath>
</defs>
</svg>
