<svg width="261" height="227" viewBox="0 0 261 227" fill="none" xmlns="http://www.w3.org/2000/svg">
<g id="&#209;&#133;&#208;&#184;&#209;&#128;&#209;&#131;&#209;&#128;&#208;&#179;&#208;&#184;&#209;&#143; 1" filter="url(#filter0_d_190_777)">
<g id="&#208;&#161;&#208;&#187;&#208;&#190;&#208;&#185;_x0020_1">
<path id="Vector" d="M216.366 126.136H175.295C173.172 126.136 171.444 127.863 171.444 129.987V178.759C171.444 180.882 173.172 182.609 175.295 182.609H216.366C218.489 182.609 220.216 180.882 220.216 178.759V129.987C220.216 127.863 218.489 126.136 216.366 126.136ZM180.429 137.688H195.831C196.539 137.688 197.114 138.262 197.114 138.971C197.114 139.68 196.539 140.254 195.831 140.254H180.429C179.72 140.254 179.145 139.68 179.145 138.971C179.145 138.262 179.72 137.688 180.429 137.688ZM211.232 174.908H180.429C179.72 174.908 179.145 174.334 179.145 173.625C179.145 172.916 179.72 172.341 180.429 172.341H211.232C211.941 172.341 212.516 172.916 212.516 173.625C212.516 174.334 211.941 174.908 211.232 174.908ZM211.232 167.208H180.429C179.72 167.208 179.145 166.634 179.145 165.924C179.145 165.214 179.72 164.64 180.429 164.64H211.232C211.941 164.64 212.516 165.214 212.516 165.924C212.516 166.634 211.941 167.208 211.232 167.208ZM211.232 159.507H180.429C179.72 159.507 179.145 158.932 179.145 158.223C179.145 157.514 179.72 156.939 180.429 156.939H211.232C211.941 156.939 212.516 157.514 212.516 158.223C212.516 158.932 211.941 159.507 211.232 159.507ZM211.232 151.806H180.429C179.72 151.806 179.145 151.232 179.145 150.522C179.145 149.813 179.72 149.239 180.429 149.239H211.232C211.941 149.239 212.516 149.813 212.516 150.522C212.516 151.232 211.941 151.806 211.232 151.806ZM211.232 140.254H208.665V142.821C208.665 143.531 208.091 144.105 207.382 144.105C206.673 144.105 206.098 143.531 206.098 142.821V140.254H203.531C202.822 140.254 202.248 139.68 202.248 138.971C202.248 138.262 202.822 137.688 203.531 137.688H206.098V135.12C206.098 134.411 206.673 133.837 207.382 133.837C208.091 133.837 208.665 134.411 208.665 135.12V137.688H211.232C211.941 137.688 212.516 138.262 212.516 138.971C212.516 139.68 211.941 140.254 211.232 140.254Z" fill="#D5F1EC"/>
<g id="_2574296412368">
<path id="Vector_2" fill-rule="evenodd" clip-rule="evenodd" d="M160.938 132.37C160.938 133.135 162.919 134.928 163.367 135.228C164.007 135.058 164.389 134.421 164.832 133.978L184.551 114.259C185.025 113.779 185.467 113.223 186.373 113.223C187.648 113.223 189.434 114.838 188.463 116.599C188.025 117.394 186.142 119.098 185.408 119.832L172.905 132.335C171.953 133.287 167.065 138.044 166.654 138.658C167.478 139.209 168.369 140.632 169.24 140.943C170.34 141.336 171.397 139.844 172.048 139.194L203.984 107.258C205.417 105.827 205.806 105.295 205.806 103.364C205.806 101.701 204.624 100.825 203.769 99.9704C201.663 97.8633 199.975 95.3113 196.96 96.3753C195.666 96.8322 194.76 97.906 193.839 98.827L163.403 129.262C162.759 129.906 160.938 131.348 160.938 132.37Z" fill="#138B96"/>
<path id="Vector_3" fill-rule="evenodd" clip-rule="evenodd" d="M132.646 164.806C132.646 165.739 138.132 165.95 138.713 166.037C140.068 166.24 143.642 165.6 145.097 165.111C148.678 163.908 151.437 162.112 153.839 159.136C155.987 156.474 157.715 152.969 159.271 149.851C160.083 148.224 162.878 143.202 164.255 141.831C164.595 141.493 164.969 141.326 165.225 140.944L160.831 136.479C160.016 137.035 137.442 159.796 134.325 162.913C133.976 163.262 132.646 164.351 132.646 164.806Z" fill="#138B96"/>
<path id="Vector_4" fill-rule="evenodd" clip-rule="evenodd" d="M175.227 162.806C174.984 163.849 175.084 164.133 175.084 165.378C175.084 165.939 175.791 166.092 176.371 166.092C178.092 166.092 184.62 166.373 185.801 165.807C185.954 165.149 186.337 162.663 185.229 162.663C183.783 162.663 176.011 162.502 175.227 162.806Z" fill="#138B96"/>
<path id="Vector_5" fill-rule="evenodd" clip-rule="evenodd" d="M160.795 163.378C160.795 164.895 160.506 166.092 161.939 166.092H170.369C171.971 166.092 171.655 165.405 171.655 163.52C171.655 163.082 171.523 162.663 171.084 162.663H161.51C161.177 162.663 160.795 163.044 160.795 163.378Z" fill="#138B96"/>
<path id="Vector_6" fill-rule="evenodd" clip-rule="evenodd" d="M189.374 163.235C189.374 165.021 189.053 166.092 190.374 166.092H199.09C200.792 166.092 200.465 162.663 199.519 162.663H189.945C189.611 162.663 189.374 162.9 189.374 163.235Z" fill="#138B96"/>
<path id="Vector_7" fill-rule="evenodd" clip-rule="evenodd" d="M149.793 166.092C151.174 166.092 152.555 166.092 153.937 166.092C157.772 166.092 157.366 166.544 157.366 163.235C157.366 162.378 155.93 162.663 154.365 162.663C154.072 162.663 151.92 164.597 150.929 165.228C150.015 165.81 149.982 165.57 149.793 166.092Z" fill="#138B96"/>
</g>
</g>
</g>
<defs>
<filter id="filter0_d_190_777" x="-40" y="-36" width="325.669" height="268.976" filterUnits="userSpaceOnUse" color-interpolation-filters="sRGB">
<feFlood flood-opacity="0" result="BackgroundImageFix"/>
<feColorMatrix in="SourceAlpha" type="matrix" values="0 0 0 0 0 0 0 0 0 0 0 0 0 0 0 0 0 0 127 0" result="hardAlpha"/>
<feOffset dy="4"/>
<feGaussianBlur stdDeviation="20"/>
<feComposite in2="hardAlpha" operator="out"/>
<feColorMatrix type="matrix" values="0 0 0 0 0 0 0 0 0 0 0 0 0 0 0 0 0 0 0.25 0"/>
<feBlend mode="normal" in2="BackgroundImageFix" result="effect1_dropShadow_190_777"/>
<feBlend mode="normal" in="SourceGraphic" in2="effect1_dropShadow_190_777" result="shape"/>
</filter>
</defs>
</svg>
