<svg width="261" height="227" viewBox="0 0 261 227" fill="none" xmlns="http://www.w3.org/2000/svg">
<g id="&#209;&#141;&#208;&#189;&#208;&#180;&#208;&#190;&#208;&#186;&#209;&#128;&#208;&#184;&#208;&#189;&#208;&#190;&#208;&#187;&#208;&#190;&#208;&#179;&#208;&#184;&#209;&#143; 1" filter="url(#filter0_d_190_803)">
<g id="&#208;&#161;&#208;&#187;&#208;&#190;&#208;&#185;_x0020_1">
<path id="Vector" d="M186.789 160.859H191.285V156.362H186.789V160.859Z" fill="#D5F1EC"/>
<path id="Vector_2" d="M186.789 172.099H191.285V167.602H186.789V172.099Z" fill="#D5F1EC"/>
<path id="Vector_3" d="M186.789 149.618H191.285V145.122H186.789V149.618Z" fill="#D5F1EC"/>
<path id="Vector_4" d="M217.138 132.757H216.014V137.254C216.014 137.874 215.511 138.378 214.89 138.378C214.269 138.378 213.766 137.874 213.766 137.254C213.766 136.963 213.766 130.087 213.766 130.509C213.766 129.889 213.262 129.385 212.641 129.385C212.021 129.385 211.517 129.889 211.517 130.509V132.757H207.021V137.254C207.021 137.874 206.518 138.378 205.897 138.378C205.277 138.378 204.774 137.874 204.774 137.254C204.774 136.963 204.774 130.087 204.774 130.509C204.774 129.889 204.27 129.385 203.649 129.385C203.029 129.385 202.525 129.889 202.525 130.509V132.757H198.029V137.254C198.029 137.874 197.526 138.378 196.905 138.378C196.284 138.378 195.781 137.874 195.781 137.254C195.781 136.963 195.781 130.087 195.781 130.509C195.781 129.889 195.278 129.385 194.657 129.385C194.036 129.385 193.533 129.889 193.533 130.509V132.757H189.037V137.254C189.037 137.874 188.533 138.378 187.913 138.378C187.292 138.378 186.789 137.874 186.789 137.254C186.789 136.963 186.789 130.087 186.789 130.509C186.789 129.889 186.286 129.385 185.665 129.385C185.044 129.385 184.541 129.889 184.541 130.509V132.757H181.169C179.309 132.757 177.797 134.27 177.797 136.13V178.843C177.797 180.703 179.309 182.215 181.169 182.215H217.138C218.997 182.215 220.51 180.703 220.51 178.843V136.13C220.51 134.27 218.997 132.757 217.138 132.757ZM193.533 173.223C193.533 173.844 193.03 174.347 192.409 174.347H185.665C185.044 174.347 184.541 173.844 184.541 173.223V166.479C184.541 165.858 185.044 165.355 185.665 165.355H192.409C193.03 165.355 193.533 165.858 193.533 166.479V173.223ZM193.533 161.982C193.533 162.603 193.03 163.106 192.409 163.106H185.665C185.044 163.106 184.541 162.603 184.541 161.982V155.238C184.541 154.617 185.044 154.114 185.665 154.114H192.409C193.03 154.114 193.533 154.617 193.533 155.238V161.982ZM193.533 150.742C193.533 151.363 193.03 151.866 192.409 151.866H185.665C185.044 151.866 184.541 151.363 184.541 150.742V143.998C184.541 143.377 185.044 142.874 185.665 142.874H192.409C193.03 142.874 193.533 143.377 193.533 143.998V150.742ZM212.641 170.975H199.153C198.532 170.975 198.029 170.471 198.029 169.851C198.029 169.23 198.532 168.726 199.153 168.726H212.641C213.262 168.726 213.766 169.23 213.766 169.851C213.766 170.471 213.262 170.975 212.641 170.975ZM212.641 159.734H199.153C198.532 159.734 198.029 159.231 198.029 158.61C198.029 157.99 198.532 157.486 199.153 157.486H212.641C213.262 157.486 213.766 157.99 213.766 158.61C213.766 159.231 213.262 159.734 212.641 159.734ZM212.641 148.494H199.153C198.532 148.494 198.029 147.99 198.029 147.37C198.029 146.749 198.532 146.246 199.153 146.246H212.641C213.262 146.246 213.766 146.749 213.766 147.37C213.766 147.99 213.262 148.494 212.641 148.494Z" fill="#D5F1EC"/>
<g id="_2574465590752">
<path id="Vector_5" fill-rule="evenodd" clip-rule="evenodd" d="M152.398 94.3472C152.398 98.1162 152.241 99.2338 154.146 102.444C154.466 102.983 154.782 103.416 154.93 104.051C151.855 104.051 150.206 104.939 148.783 106.623C144.508 111.677 141.007 118.431 141.007 125.286C141.007 127.523 141.095 129.905 141.447 132.018C141.651 133.238 141.843 135.27 143.117 135.27C146.042 135.27 141.193 129.921 144.019 120C145.167 115.97 146.829 112.878 149.264 109.636C150.861 107.51 151.52 106.301 154.648 106.301C155.561 106.301 156.395 106.792 156.962 107.221C158.719 108.55 159.22 111.74 159.976 114.333C160.478 116.058 160.98 117.688 161.48 119.439C162.124 121.699 162.95 122.895 165.477 122.895C167.071 122.895 168.289 121.484 168.608 120.12C168.776 119.403 168.661 118.205 168.704 117.263C168.808 115.03 171.907 114.987 172.087 117.129C172.23 118.827 171.824 120.707 173.173 121.949C173.895 122.614 174.962 122.895 176.024 122.895C177.082 122.895 177.612 122.367 178.171 121.808C178.916 121.064 178.974 120.687 179.289 119.551C180.017 116.928 181.474 111.645 182.332 109.234C182.641 108.364 183.101 107.78 183.755 107.282C185.853 105.681 188.402 106.061 190.196 107.879C190.619 108.309 190.872 108.757 191.232 109.234C191.614 109.74 191.935 110.174 192.317 110.68C197.815 117.96 199.158 128.282 195.553 137.08C194.551 139.524 193.473 141.386 190.651 141.885C188.532 142.26 186.797 141.329 185.616 139.882C184.319 138.293 184.536 137.547 182.375 135.81C180.528 134.327 178.077 133.723 174.758 133.723H166.18C162.248 133.723 159.287 134.344 157.059 137.118L155.353 139.631C153.271 142.601 149.395 142.643 146.946 140.16C146.559 139.769 146.316 139.418 146.069 138.928C145.767 138.325 145.539 137.802 144.804 137.802C141.533 137.802 146.268 144.13 150.289 144.13C152.607 144.13 155.013 143.571 156.48 141.744C157.623 140.321 158.285 138.57 159.852 137.52C159.852 138.957 159.397 141.948 161.961 142.161V144.271C160.99 144.352 159.852 145.366 159.852 146.38V150.599C159.852 151.609 161.001 152.629 161.961 152.708V154.818C160.99 154.899 159.852 155.913 159.852 156.928V161.146C159.852 162.093 161.014 163.256 161.961 163.256H178.837C179.783 163.256 180.946 162.093 180.946 161.146C180.946 159.072 181.613 155.049 178.837 154.818V152.708C181.608 152.478 180.946 148.561 180.946 146.662C180.946 145.439 179.946 144.363 178.837 144.271V142.161C181.257 141.96 180.946 139.328 180.946 137.52C181.703 138.028 182.327 138.688 182.805 139.458C183.854 141.146 184.54 142.415 186.474 143.383C189.804 145.049 194.468 143.766 196.271 140.611C198.251 137.144 199.79 132.584 199.79 127.958V125.567C199.79 118.151 196.261 111.882 192.078 106.701C190.473 104.711 188.586 104.051 185.868 104.051C186.016 103.416 186.332 102.983 186.652 102.444C186.973 101.903 187.232 101.464 187.511 100.912C188.477 98.9957 188.399 96.8961 188.399 94.6284C188.399 92.8604 187.173 91.2533 185.446 91.2533C180.396 91.2533 183.169 96.2903 177.607 97.618C176.626 97.852 175.776 97.6796 174.7 98.0855C173.931 98.3751 173.206 98.9428 172.766 99.5267C171.681 100.968 171.962 104.051 170.399 104.051C168.908 104.051 169.062 101.234 168.251 99.8702C167.216 98.1305 165.274 97.7223 163.086 97.7223C161.73 97.7223 161.742 99.5395 163.061 99.8566C163.542 99.9727 164.235 99.8956 164.886 100.001C165.984 100.178 166.534 101.02 166.774 102.05C167.253 104.102 167.704 106.301 170.399 106.301C172.601 106.301 173.429 104.721 173.833 102.844C174.508 99.7111 175.072 100.287 177.715 99.8351C180.463 99.3657 182.418 97.7155 183.527 95.3809C183.858 94.6828 184.147 93.3627 185.024 93.3627C186.641 93.3627 186.149 95.387 186.149 97.7223C186.149 99.0588 185.575 99.9791 185.05 100.842C184.455 101.817 183.149 104.93 182.908 105.17C182.084 105.992 180.604 106.821 180.102 108.972C178.743 108.972 177.383 108.973 176.024 108.972C174.647 108.972 172.93 108.736 172.93 110.098C172.93 111.461 174.267 111.224 175.602 111.223C176.868 111.222 178.133 111.223 179.399 111.223C179.32 112.172 178.217 115.356 177.932 116.365C177.544 117.736 177.125 120.785 175.602 120.785C173.607 120.785 174.611 117.404 174.097 115.962C172.859 112.49 167.783 112.507 166.665 116.067C166.213 117.509 167.232 121.076 164.961 120.736C163.604 120.532 163.228 117.509 162.858 116.373C162.499 115.272 161.475 112.139 161.398 111.223C162.992 111.223 164.586 111.223 166.18 111.223C167.767 111.223 170.117 111.684 170.117 110.098C170.117 108.448 167.152 108.972 166.039 108.972C164.258 108.972 162.477 108.972 160.695 108.972C160.061 106.25 158.065 105.837 157.552 104.662C157.028 103.46 156.476 102.044 155.802 100.929C154.279 98.4102 154.648 97.1036 154.648 94.2066C154.648 93.645 155.861 92.4401 156.839 94.8284C158.355 98.5312 159.992 97.5814 159.992 96.316C159.992 95.7226 159.515 95.3027 159.243 94.8151C158.223 92.9911 158.068 91.2533 155.351 91.2533C153.798 91.2533 152.398 92.7833 152.398 94.3472Z" fill="#138B96"/>
<path id="Vector_6" fill-rule="evenodd" clip-rule="evenodd" d="M181.227 121.629C181.227 123.741 183.053 125.567 185.165 125.567C187.266 125.567 189.103 123.725 189.103 121.629C189.103 119.517 187.277 117.692 185.165 117.692C183.053 117.692 181.227 119.517 181.227 121.629Z" fill="#138B96"/>
<path id="Vector_7" fill-rule="evenodd" clip-rule="evenodd" d="M153.523 124.723C153.523 127.299 155.294 128.942 157.461 128.942C159.294 128.942 161.258 127.214 161.258 125.426V124.583C161.258 121.968 157.39 119.696 154.818 122.081C154.223 122.634 153.523 123.633 153.523 124.723Z" fill="#138B96"/>
<path id="Vector_8" fill-rule="evenodd" clip-rule="evenodd" d="M167.164 127.677C167.164 132.053 173.633 131.827 173.633 127.817C173.633 123.383 167.164 123.674 167.164 127.677Z" fill="#138B96"/>
<path id="Vector_9" fill-rule="evenodd" clip-rule="evenodd" d="M187.977 129.223C187.977 133.562 194.081 133.703 194.387 129.456C194.507 127.801 192.875 126.13 191.212 126.13C189.539 126.13 187.977 127.573 187.977 129.223Z" fill="#138B96"/>
<path id="Vector_10" fill-rule="evenodd" clip-rule="evenodd" d="M183.759 112.207C183.759 114.188 185.237 115.582 186.852 115.582C189.795 115.582 191.24 112.223 189.285 110.197C188.398 109.277 187.271 108.905 185.845 109.371C184.812 109.708 183.759 110.905 183.759 112.207Z" fill="#138B96"/>
<path id="Vector_11" fill-rule="evenodd" clip-rule="evenodd" d="M149.585 113.754C149.585 115.009 149.456 115.621 150.6 116.678C152.612 118.537 155.914 117.19 155.914 114.176C155.914 111.564 152.525 110.077 150.67 111.885C150.254 112.291 149.585 113.018 149.585 113.754Z" fill="#138B96"/>
<path id="Vector_12" fill-rule="evenodd" clip-rule="evenodd" d="M147.758 136.536C147.758 137.359 148.148 138.075 148.565 138.542C150.146 140.315 152.878 139.914 153.859 137.856C154.926 135.619 153.338 133.302 150.851 133.302C149.165 133.302 147.758 134.839 147.758 136.536Z" fill="#138B96"/>
<path id="Vector_13" fill-rule="evenodd" clip-rule="evenodd" d="M180.102 127.677C180.102 129.011 182.352 129.224 182.352 127.677C182.352 126.129 180.102 126.342 180.102 127.677Z" fill="#138B96"/>
<path id="Vector_14" fill-rule="evenodd" clip-rule="evenodd" d="M188.821 137.942C188.821 138.496 189.28 139.067 189.946 139.067C190.613 139.067 191.071 138.496 191.071 137.942C191.071 136.563 188.821 136.563 188.821 137.942Z" fill="#138B96"/>
<path id="Vector_15" fill-rule="evenodd" clip-rule="evenodd" d="M186.149 135.27C186.149 135.824 186.608 136.396 187.274 136.396C187.941 136.396 188.399 135.824 188.399 135.27C188.399 133.89 186.149 133.89 186.149 135.27Z" fill="#138B96"/>
<path id="Vector_16" fill-rule="evenodd" clip-rule="evenodd" d="M176.165 129.083C176.165 129.763 176.609 130.208 177.29 130.208C178.445 130.208 179.17 128.098 177.009 128.098C176.611 128.098 176.165 128.685 176.165 129.083Z" fill="#138B96"/>
<path id="Vector_17" fill-rule="evenodd" clip-rule="evenodd" d="M149.304 127.958C149.304 129.903 151.414 129.497 151.414 128.239C151.414 126.622 149.304 127.004 149.304 127.958Z" fill="#138B96"/>
<path id="Vector_18" fill-rule="evenodd" clip-rule="evenodd" d="M146.07 130.911C146.07 131.591 146.514 132.036 147.195 132.036C148.453 132.036 148.859 129.927 146.914 129.927C146.516 129.927 146.07 130.513 146.07 130.911Z" fill="#138B96"/>
<path id="Vector_19" fill-rule="evenodd" clip-rule="evenodd" d="M145.507 126.973C145.507 128.75 147.617 128.559 147.617 127.254C147.617 125.58 145.507 126.001 145.507 126.973Z" fill="#138B96"/>
<path id="Vector_20" fill-rule="evenodd" clip-rule="evenodd" d="M177.009 125.426C177.009 126.51 179.118 127.149 179.118 125.145C179.118 124.106 177.009 123.845 177.009 125.426Z" fill="#138B96"/>
</g>
</g>
</g>
<defs>
<filter id="filter0_d_190_803" x="-40" y="-36" width="325.669" height="268.976" filterUnits="userSpaceOnUse" color-interpolation-filters="sRGB">
<feFlood flood-opacity="0" result="BackgroundImageFix"/>
<feColorMatrix in="SourceAlpha" type="matrix" values="0 0 0 0 0 0 0 0 0 0 0 0 0 0 0 0 0 0 127 0" result="hardAlpha"/>
<feOffset dy="4"/>
<feGaussianBlur stdDeviation="20"/>
<feComposite in2="hardAlpha" operator="out"/>
<feColorMatrix type="matrix" values="0 0 0 0 0 0 0 0 0 0 0 0 0 0 0 0 0 0 0.25 0"/>
<feBlend mode="normal" in2="BackgroundImageFix" result="effect1_dropShadow_190_803"/>
<feBlend mode="normal" in="SourceGraphic" in2="effect1_dropShadow_190_803" result="shape"/>
</filter>
</defs>
</svg>
