<svg width="88" height="99" viewBox="0 0 88 99" fill="none" xmlns="http://www.w3.org/2000/svg">
<g clip-path="url(#clip0_368_137)">
<path d="M53.7888 77.8586H58.2849V73.3624H53.7888V77.8586Z" fill="#D5F1EC"/>
<path d="M53.7888 89.0985H58.2849V84.6024H53.7888V89.0985Z" fill="#D5F1EC"/>
<path d="M53.7888 66.618H58.2849V62.1218H53.7888V66.618Z" fill="#D5F1EC"/>
<path d="M84.1376 49.7575H83.0136V54.2536C83.0136 54.8742 82.5105 55.3776 81.8899 55.3776C81.2693 55.3776 80.7659 54.8742 80.7659 54.2536C80.7659 53.9626 80.7659 47.0869 80.7659 47.5094C80.7659 46.8888 80.2625 46.3854 79.6415 46.3854C79.0209 46.3854 78.5174 46.8888 78.5174 47.5094V49.7575H74.0213V54.2536C74.0213 54.8742 73.5183 55.3776 72.8973 55.3776C72.2767 55.3776 71.7736 54.8742 71.7736 54.2536C71.7736 53.9626 71.7736 47.0869 71.7736 47.5094C71.7736 46.8888 71.2702 46.3854 70.6492 46.3854C70.0286 46.3854 69.5252 46.8888 69.5252 47.5094V49.7575H65.0291V54.2536C65.0291 54.8742 64.5256 55.3776 63.905 55.3776C63.2844 55.3776 62.781 54.8742 62.781 54.2536C62.781 53.9626 62.781 47.0869 62.781 47.5094C62.781 46.8888 62.2779 46.3854 61.657 46.3854C61.0364 46.3854 60.5329 46.8888 60.5329 47.5094V49.7575H56.0368V54.2536C56.0368 54.8742 55.5334 55.3776 54.9128 55.3776C54.2922 55.3776 53.7888 54.8742 53.7888 54.2536C53.7888 53.9626 53.7888 47.0869 53.7888 47.5094C53.7888 46.8888 53.2857 46.3854 52.6647 46.3854C52.0437 46.3854 51.5407 46.8888 51.5407 47.5094V49.7575H48.1686C46.3091 49.7575 44.7965 51.27 44.7965 53.1296V95.8431C44.7965 97.7027 46.3091 99.2149 48.1686 99.2149H84.1376C85.9971 99.2149 87.5101 97.7027 87.5101 95.8431V53.1296C87.5101 51.27 85.9971 49.7575 84.1376 49.7575ZM60.5329 90.2226C60.5329 90.8436 60.0295 91.347 59.4089 91.347H52.6647C52.0437 91.347 51.5407 90.8436 51.5407 90.2226V83.4788C51.5407 82.8582 52.0437 82.3548 52.6647 82.3548H59.4089C60.0295 82.3548 60.5329 82.8582 60.5329 83.4788V90.2226ZM60.5329 78.9823C60.5329 79.6033 60.0295 80.1063 59.4089 80.1063H52.6647C52.0437 80.1063 51.5407 79.6033 51.5407 78.9823V72.2381C51.5407 71.6175 52.0437 71.1141 52.6647 71.1141H59.4089C60.0295 71.1141 60.5329 71.6175 60.5329 72.2381V78.9823ZM60.5329 67.742C60.5329 68.3629 60.0295 68.866 59.4089 68.866H52.6647C52.0437 68.866 51.5407 68.3629 51.5407 67.742V60.9978C51.5407 60.3772 52.0437 59.8737 52.6647 59.8737H59.4089C60.0295 59.8737 60.5329 60.3772 60.5329 60.9978V67.742ZM79.6415 87.9749H66.1531C65.5325 87.9749 65.0291 87.4715 65.0291 86.8509C65.0291 86.2299 65.5325 85.7265 66.1531 85.7265H79.6415C80.2625 85.7265 80.7659 86.2299 80.7659 86.8509C80.7659 87.4715 80.2625 87.9749 79.6415 87.9749ZM79.6415 76.7342H66.1531C65.5325 76.7342 65.0291 76.2308 65.0291 75.6102C65.0291 74.9896 65.5325 74.4862 66.1531 74.4862H79.6415C80.2625 74.4862 80.7659 74.9896 80.7659 75.6102C80.7659 76.2308 80.2625 76.7342 79.6415 76.7342ZM79.6415 65.4939H66.1531C65.5325 65.4939 65.0291 64.9905 65.0291 64.3699C65.0291 63.7493 65.5325 63.2458 66.1531 63.2458H79.6415C80.2625 63.2458 80.7659 63.7493 80.7659 64.3699C80.7659 64.9905 80.2625 65.4939 79.6415 65.4939Z" fill="#D5F1EC"/>
<path fill-rule="evenodd" clip-rule="evenodd" d="M19.3981 11.3472C19.3981 15.1162 19.2408 16.2338 21.1457 19.4437C21.4659 19.9831 21.7818 20.4158 21.9296 21.0508C18.8546 21.0508 17.2063 21.9393 15.7826 23.6228C11.5079 28.6767 8.00696 35.4311 8.00696 42.2857C8.00696 44.5228 8.09464 46.9054 8.44727 49.0178C8.65099 50.2378 8.84298 52.2704 10.1167 52.2704C13.042 52.2704 8.19329 46.9213 11.0189 37C12.1667 32.9695 13.8289 29.8779 16.2641 26.6358C17.8609 24.5098 18.5201 23.3007 21.6484 23.3007C22.5608 23.3007 23.3946 23.7924 23.9619 24.2214C25.7193 25.5503 26.2197 28.7399 26.9756 31.333C27.4783 33.058 27.9802 34.6877 28.4795 36.4387C29.1243 38.6989 29.9501 39.8951 32.4768 39.8951C34.0713 39.8951 35.2891 38.4842 35.6085 37.1202C35.7763 36.4028 35.6606 35.2051 35.7045 34.2633C35.8084 32.0296 38.9069 31.9872 39.0868 34.1287C39.2296 35.8268 38.8245 37.7072 40.1726 38.9491C40.8949 39.6143 41.9622 39.8951 43.0239 39.8951C44.0822 39.8951 44.6124 39.3668 45.1714 38.8081C45.916 38.0643 45.9738 37.6868 46.289 36.5506C47.0173 33.9276 48.474 28.6454 49.3319 26.2336C49.6415 25.3636 50.1011 24.7804 50.7549 24.2815C52.8529 22.6805 55.4018 23.0607 57.1956 24.8794C57.6189 25.3092 57.8718 25.7574 58.2316 26.234C58.6137 26.7405 58.935 27.174 59.3171 27.6801C64.8148 34.9598 66.158 45.2825 62.5527 54.0801C61.5511 56.5243 60.4728 58.3865 57.6511 58.8854C55.5319 59.2599 53.7974 58.3294 52.616 56.8818C51.3192 55.2933 51.5358 54.5468 49.3746 52.8102C47.5283 51.3267 45.0769 50.7235 41.7581 50.7235H33.1797C29.2479 50.7235 26.2874 51.3444 24.0586 54.1182L22.3525 56.6312C20.2711 59.6012 16.3952 59.6432 13.9457 57.1604C13.5591 56.7688 13.3157 56.4181 13.0689 55.9275C12.7665 55.3254 12.539 54.8016 11.8042 54.8016C8.53269 54.8016 13.2684 61.13 17.2887 61.13C19.6067 61.13 22.0127 60.5707 23.4803 58.7436C24.6229 57.321 25.2847 55.57 26.8517 54.5204C26.8517 55.9574 26.3966 58.9481 28.961 59.1613V61.2706C27.9897 61.3515 26.8517 62.3656 26.8517 63.3804V67.5991C26.8517 68.609 28.001 69.6287 28.961 69.7084V71.8178C27.9897 71.8987 26.8517 72.9127 26.8517 73.9275V78.1462C26.8517 79.0934 28.0139 80.2556 28.961 80.2556H45.8366C46.7834 80.2556 47.946 79.0934 47.946 78.1462C47.946 76.0724 48.6127 72.0491 45.8366 71.8178V69.7084C48.6078 69.4779 47.946 65.5608 47.946 63.6615C47.946 62.4392 46.9459 61.3628 45.8366 61.2706V59.1613C48.2574 58.9598 47.946 56.3281 47.946 54.5204C48.7034 55.0276 49.3266 55.6879 49.8051 56.4582C50.8536 58.1461 51.5403 59.4152 53.4743 60.3832C56.8041 62.0492 61.468 60.7657 63.2708 57.6105C65.2513 54.1436 66.7903 49.5843 66.7903 44.9578V42.5669C66.7903 35.1511 63.2606 28.8823 59.0778 23.7006C57.4727 21.7114 55.5863 21.0508 52.868 21.0508C53.0158 20.4158 53.3318 19.9831 53.6519 19.4437C53.9728 18.9029 54.2321 18.4641 54.5107 17.9119C55.4767 15.9957 55.3992 13.8961 55.3992 11.6284C55.3992 9.86035 54.1728 8.2533 52.4463 8.2533C47.3964 8.2533 50.1687 13.2903 44.6071 14.618C43.6264 14.852 42.7763 14.6796 41.6995 15.0855C40.9312 15.3751 40.2055 15.9428 39.7656 16.5267C38.6812 17.9678 38.962 21.0508 37.3988 21.0508C35.9082 21.0508 36.0624 18.2343 35.2505 16.8702C34.2157 15.1305 32.2742 14.7223 30.0858 14.7223C28.7297 14.7223 28.7418 16.5395 30.0609 16.8566C30.5424 16.9727 31.2352 16.8956 31.886 17.0006C32.9836 17.1779 33.5339 18.0196 33.7743 19.0499C34.2535 21.1022 34.7044 23.3007 37.3988 23.3007C39.6008 23.3007 40.4289 21.7209 40.8333 19.8444C41.5083 16.7111 42.0722 17.2867 44.7149 16.8351C47.463 16.3657 49.4177 14.7155 50.5266 12.3809C50.8577 11.6828 51.1469 10.3627 52.0241 10.3627C53.6406 10.3627 53.1493 12.387 53.1493 14.7223C53.1493 16.0588 52.5751 16.9791 52.0498 17.8416C51.4553 18.8175 50.1487 21.9299 49.9083 22.1695C49.0836 22.9923 47.6036 23.8212 47.102 25.9725C45.7425 25.9725 44.3834 25.9732 43.0239 25.9725C41.6466 25.9721 39.93 25.7359 39.93 27.0976C39.93 28.4613 41.2668 28.2236 42.6021 28.2228C43.8679 28.2217 45.1333 28.2228 46.399 28.2228C46.32 29.1719 45.2172 32.3565 44.9318 33.3652C44.544 34.7357 44.1245 37.7854 42.6021 37.7854C40.6065 37.7854 41.6115 34.4042 41.0971 32.962C39.8593 29.4905 34.783 29.5075 33.665 33.0674C33.2126 34.5085 34.232 38.0757 31.9612 37.7355C30.604 37.5322 30.2276 34.5089 29.8575 33.3732C29.4989 32.2722 28.4746 29.139 28.3983 28.2228C29.9921 28.2228 31.5859 28.2228 33.1797 28.2228C34.7668 28.2228 37.1173 28.6839 37.1173 27.0976C37.1173 25.4479 34.1518 25.9725 33.0391 25.9725C31.2579 25.9725 29.4766 25.9725 27.6953 25.9725C27.0611 23.2505 25.0655 22.8366 24.5522 21.6623C24.0276 20.4604 23.4762 19.0442 22.8015 17.9285C21.2788 15.4102 21.6484 14.1036 21.6484 11.2066C21.6484 10.645 22.8613 9.44007 23.839 11.8284C25.3546 15.5312 26.9923 14.5814 26.9923 13.316C26.9923 12.7226 26.5153 12.3027 26.2428 11.8151C25.2235 9.99112 25.0677 8.2533 22.3514 8.2533C20.798 8.2533 19.3981 9.78325 19.3981 11.3472Z" fill="#138B96"/>
<path fill-rule="evenodd" clip-rule="evenodd" d="M48.2272 38.6294C48.2272 40.7414 50.0527 42.5669 52.1647 42.5669C54.2661 42.5669 56.1026 40.7248 56.1026 38.6294C56.1026 36.517 54.2771 34.6919 52.1647 34.6919C50.0527 34.6919 48.2272 36.517 48.2272 38.6294Z" fill="#138B96"/>
<path fill-rule="evenodd" clip-rule="evenodd" d="M20.5232 41.7233C20.5232 44.2991 22.2939 45.942 24.4607 45.942C26.2942 45.942 28.2576 44.2144 28.2576 42.4263V41.5827C28.2576 38.9684 24.3904 36.6958 21.8184 39.0811C21.2228 39.6336 20.5232 40.6333 20.5232 41.7233Z" fill="#138B96"/>
<path fill-rule="evenodd" clip-rule="evenodd" d="M34.1643 44.6766C34.1643 49.0529 40.6333 48.8273 40.6333 44.8172C40.6333 40.383 34.1643 40.6741 34.1643 44.6766Z" fill="#138B96"/>
<path fill-rule="evenodd" clip-rule="evenodd" d="M54.9774 46.2232C54.9774 50.5617 61.0806 50.7027 61.3875 46.4564C61.5069 44.8009 59.8746 43.1296 58.2119 43.1296C56.5395 43.1296 54.9774 44.5727 54.9774 46.2232Z" fill="#138B96"/>
<path fill-rule="evenodd" clip-rule="evenodd" d="M50.7587 29.207C50.7587 31.1879 52.2372 32.5821 53.8522 32.5821C56.7946 32.5821 58.2399 29.2229 56.2847 27.1967C55.3977 26.2771 54.2706 25.9048 52.8446 26.3708C51.8116 26.7084 50.7587 27.9046 50.7587 29.207Z" fill="#138B96"/>
<path fill-rule="evenodd" clip-rule="evenodd" d="M16.5854 30.7539C16.5854 32.0087 16.4557 32.6206 17.5998 33.6778C19.6116 35.5365 22.9138 34.1903 22.9138 31.1757C22.9138 28.5641 19.5247 27.0772 17.6701 28.8853C17.254 29.2909 16.5854 30.0181 16.5854 30.7539Z" fill="#138B96"/>
<path fill-rule="evenodd" clip-rule="evenodd" d="M14.7576 53.5358C14.7576 54.3593 15.148 55.0748 15.5645 55.5416C17.1459 57.3146 19.8777 56.9139 20.8592 54.8563C21.9262 52.6189 20.338 50.3016 17.8511 50.3016C16.1647 50.3016 14.7576 51.8392 14.7576 53.5358Z" fill="#138B96"/>
<path fill-rule="evenodd" clip-rule="evenodd" d="M47.1021 44.6766C47.1021 46.0111 49.3524 46.2239 49.3524 44.6766C49.3524 43.1289 47.1021 43.3416 47.1021 44.6766Z" fill="#138B96"/>
<path fill-rule="evenodd" clip-rule="evenodd" d="M55.8214 54.9422C55.8214 55.4959 56.2799 56.0674 56.9462 56.0674C57.6125 56.0674 58.0714 55.4959 58.0714 54.9422C58.0714 53.5627 55.8214 53.5627 55.8214 54.9422Z" fill="#138B96"/>
<path fill-rule="evenodd" clip-rule="evenodd" d="M53.1493 52.2704C53.1493 52.8237 53.6081 53.3956 54.2741 53.3956C54.9408 53.3956 55.3992 52.8237 55.3992 52.2704C55.3992 50.8905 53.1493 50.8905 53.1493 52.2704Z" fill="#138B96"/>
<path fill-rule="evenodd" clip-rule="evenodd" d="M43.1646 46.0826C43.1646 46.7629 43.6094 47.2077 44.2897 47.2077C45.4447 47.2077 46.1697 45.0984 44.0085 45.0984C43.6109 45.0984 43.1646 45.685 43.1646 46.0826Z" fill="#138B96"/>
<path fill-rule="evenodd" clip-rule="evenodd" d="M16.3042 44.9577C16.3042 46.9035 18.4135 46.4971 18.4135 45.2389C18.4135 43.6217 16.3042 44.0042 16.3042 44.9577Z" fill="#138B96"/>
<path fill-rule="evenodd" clip-rule="evenodd" d="M13.0696 47.9107C13.0696 48.591 13.5144 49.0359 14.1947 49.0359C15.453 49.0359 15.8593 46.9265 13.9136 46.9265C13.5159 46.9265 13.0696 47.5131 13.0696 47.9107Z" fill="#138B96"/>
<path fill-rule="evenodd" clip-rule="evenodd" d="M12.5072 43.9732C12.5072 45.7504 14.6166 45.5591 14.6166 44.2544C14.6166 42.5801 12.5072 43.0008 12.5072 43.9732Z" fill="#138B96"/>
<path fill-rule="evenodd" clip-rule="evenodd" d="M44.0085 42.4262C44.0085 43.5098 46.1179 44.1485 46.1179 42.145C46.1179 41.1057 44.0085 40.8452 44.0085 42.4262Z" fill="#138B96"/>
</g>
<defs>
<clipPath id="clip0_368_137">
<rect width="88" height="99" fill="white"/>
</clipPath>
</defs>
</svg>
