<svg width="91" height="95" viewBox="0 0 91 95" fill="none" xmlns="http://www.w3.org/2000/svg">
<g id="&#208;&#161;&#208;&#187;&#208;&#190;&#208;&#185;_x0020_1">
<g id="_2574344407376">
<path id="Vector" fill-rule="evenodd" clip-rule="evenodd" d="M20.1859 50.9339C20.5158 50.5438 20.5459 50.2524 20.9074 49.8158C21.209 49.4518 21.4651 49.2503 21.731 48.9282C20.1036 47.0889 17.213 45.4087 16.6359 42.9849C16.2607 41.4072 16.7945 39.8158 17.6106 38.8889C21.0519 34.9804 26.9314 38.751 31.2278 40.8995L36.7521 43.6007C37.7462 43.9379 38.6784 44.4882 39.6799 44.8927C41.773 45.7387 43.5944 46.1405 44.645 48.3461C45.2422 49.5996 45.1123 50.7861 45.1119 52.2618C45.1112 55.4276 44.906 57.0004 46.5133 59.3198C47.1022 60.1696 47.7947 60.6538 48.2784 61.7776C48.8409 63.0843 48.6596 64.2573 48.6864 65.7205C49.1995 66.5479 49.0785 67.0151 49.8871 67.7148C51.223 68.87 53.1683 68.9214 54.5778 67.7821C55.4747 67.0564 55.2967 66.6213 55.8612 65.7205C55.8857 64.3865 55.7461 63.0703 56.2245 61.8842C56.7015 60.7014 57.3698 60.2607 57.9759 59.4136C61.3721 54.6682 57.2249 48.9664 61.8252 46.2002C62.5817 45.7451 63.8643 45.2907 64.7593 44.935C65.8103 44.5173 66.7676 43.9492 67.7955 43.6007C71.4236 41.9991 79.6055 37.1316 83.1684 37.1233C87.2381 37.1138 90.427 42.3359 85.683 46.1779L82.811 48.9282C83.4041 49.6067 83.8271 49.874 84.221 50.898L87.6827 47.7538C88.8692 46.5423 89.7855 45.6763 90.2769 43.7205C90.3808 43.3077 90.4482 42.8942 90.4809 42.4833V41.2922C90.1343 37.0261 86.0799 33.482 80.2779 35.0836C76.5823 36.1042 67.5859 41.135 66.5658 41.3516C65.868 42.1945 60.7574 43.7273 60.3545 44.1484C60.4003 44.3155 60.4484 44.17 60.0809 44.4081C54.3012 48.1526 53.5372 51.6566 47.8476 46.9055L44.947 44.6984C44.4976 44.4134 44.1487 44.3113 44.1934 44.1484L43.3568 43.7349C42.3244 43.4102 38.3739 41.8252 37.9818 41.3516L31.2799 38.1189C30.5178 37.7319 29.8692 37.3531 29.0777 37.0212C26.3029 35.8585 22.5646 33.6559 18.7116 35.1573C16.2067 36.1337 14.4051 38.4346 14.0667 40.997V42.7328C14.105 43.0216 14.1631 43.3104 14.2416 43.5984C15.019 46.4342 17.3992 48.2822 19.7026 50.4765L20.1859 50.9339Z" fill="#E8F8F5"/>
<path id="Vector_2" fill-rule="evenodd" clip-rule="evenodd" d="M48.6939 94.0837L48.6864 88.5045C48.7348 86.0369 48.4061 84.2312 49.88 82.8677C50.5904 82.2111 50.9944 82.0199 51.074 80.6031C51.1362 79.502 51.0811 78.2319 51.0811 77.1127C51.0811 74.5752 51.5066 72.7608 50.0293 71.361C48.3387 69.7598 48.7412 68.5007 48.6864 65.7205C48.6596 64.2573 48.8409 63.0843 48.2784 61.7776C47.7947 60.6538 47.1022 60.1696 46.5133 59.3198C44.906 57.0004 45.1112 55.4276 45.1119 52.2618C45.1123 50.7861 45.2422 49.5996 44.645 48.3461C43.5944 46.1405 41.773 45.7387 39.6799 44.8927C38.6784 44.4882 37.7462 43.9379 36.7521 43.6007C36.7521 52.6455 39.6021 64.7948 43.8531 72.0244C47.0311 77.4294 45.5099 75.9356 44.0646 79.0817C43.7232 79.8244 43.2347 81.3996 43.3207 82.5551C43.4127 83.7889 43.8193 84.9142 44.0966 86.021L45.9354 92.6398C46.1767 93.2049 46.453 93.5016 46.8967 93.7847C47.4504 94.1378 47.8063 94.0837 48.6939 94.0837Z" fill="#E8F8F5"/>
<path id="Vector_3" fill-rule="evenodd" clip-rule="evenodd" d="M55.8612 65.7205C55.809 68.3775 56.2193 69.9658 54.5894 71.4291C53.0294 72.8292 53.4665 74.0361 53.4665 77.1127C53.4665 80.5408 53.0115 81.3368 54.6675 82.8677C56.1419 84.2312 55.8128 86.0369 55.8612 88.5045L55.8541 94.0837C58.5745 94.0837 58.6553 93.0144 59.5265 89.4767C60.537 85.3739 62.0176 82.7876 60.5723 79.2941C59.5913 76.9233 57.6806 76.8507 59.8251 73.5659L61.3285 70.8496C65.2537 62.8145 67.7955 53.1754 67.7955 43.6007C66.7676 43.9492 65.8103 44.5174 64.7593 44.935C63.8643 45.2907 62.5817 45.7451 61.8252 46.2002C57.2249 48.9664 61.3721 54.6682 57.9759 59.4136C57.3698 60.2607 56.7015 60.7014 56.2245 61.8842C55.7461 63.0704 55.8857 64.3865 55.8612 65.7205Z" fill="#E8F8F5"/>
<path id="Vector_4" fill-rule="evenodd" clip-rule="evenodd" d="M37.9818 41.3516C38.3739 41.8253 42.3244 43.4102 43.3568 43.7349L44.1934 44.1485C44.8565 44.1417 46.9998 44.8943 47.9976 45.0931C55.2725 46.5408 58.595 44.1303 60.3545 44.1485C60.7574 43.7274 65.868 42.1946 66.5657 41.3516L63.3289 40.5832C62.1904 40.3443 61.2239 40.1557 59.9122 39.961C54.4054 39.1434 45.0914 39.4106 39.6159 40.9256C39.0987 41.0689 38.6389 41.3354 37.9818 41.3516Z" fill="#E8F8F5"/>
<path id="Vector_5" fill-rule="evenodd" clip-rule="evenodd" d="M48.6864 88.5044C49.096 87.8441 49.5666 85.6131 52.274 85.6131C53.2349 85.6131 53.9885 85.9676 54.5778 86.4432C55.4762 87.1678 55.2964 87.6029 55.8612 88.5044C55.8128 86.0368 56.1419 84.2311 54.6675 82.8677C53.0115 81.3368 53.4665 80.5407 53.4665 77.1126C53.4665 74.0361 53.0294 72.8291 54.5894 71.429C56.2193 69.9658 55.809 68.3774 55.8612 65.7205C55.2968 66.6212 55.4747 67.0563 54.5778 67.7821C53.1683 68.9214 51.223 68.87 49.8871 67.7148C49.0785 67.0151 49.1995 66.5479 48.6864 65.7205C48.7412 68.5006 48.3387 69.7598 50.0293 71.361C51.5067 72.7607 51.0811 74.5751 51.0811 77.1126C51.0811 78.2319 51.1362 79.502 51.074 80.6031C50.9944 82.0198 50.5904 82.2111 49.88 82.8677C48.4061 84.2311 48.7348 86.0368 48.6864 88.5044Z" fill="#E8F8F5"/>
<path id="Vector_6" fill-rule="evenodd" clip-rule="evenodd" d="M21.2306 56.2262C24.7392 60.9807 32.6165 59.8702 31.9605 53.9454C31.7762 52.2814 30.6619 50.6814 29.6265 49.8373C28.4262 50.3956 26.931 49.7734 24.2355 51.8286C23.6901 52.2444 22.8568 53.1576 22.4432 53.7961C22.2094 54.1574 21.9793 54.5513 21.8211 54.983C21.4086 56.1075 21.6993 55.9469 21.2306 56.2262Z" fill="#E8F8F5"/>
<path id="Vector_7" fill-rule="evenodd" clip-rule="evenodd" d="M83.3173 56.2372C82.8218 55.9212 82.9737 55.107 82.0448 53.705C81.6673 53.135 80.8311 52.224 80.3125 51.8286C77.5909 49.7537 76.1247 50.3971 74.9211 49.8373C73.886 50.6814 72.8343 52.224 72.6049 53.8116C72.3629 55.4865 72.803 56.4931 73.6102 57.5712C73.8697 57.9178 74.0845 58.1094 74.478 58.357C77.5317 60.2784 81.3702 58.7377 83.3173 56.2372Z" fill="#E8F8F5"/>
<path id="Vector_8" fill-rule="evenodd" clip-rule="evenodd" d="M48.6864 88.5045L48.6939 94.0838H55.8541L55.8611 88.5045C55.2964 87.603 55.4762 87.1679 54.5778 86.4432C53.9884 85.9677 53.2349 85.6132 52.274 85.6132C49.5665 85.6132 49.0959 87.8441 48.6864 88.5045Z" fill="#E8F8F5"/>
<path id="Vector_9" fill-rule="evenodd" clip-rule="evenodd" d="M60.3545 44.1484C58.595 44.1303 55.2725 46.5408 47.9977 45.093C46.9999 44.8942 44.8565 44.1416 44.1934 44.1484C44.1487 44.3113 44.4976 44.4134 44.947 44.6984L47.8476 46.9055C53.5372 51.6566 54.3012 48.1526 60.0809 44.4081C60.4484 44.17 60.4003 44.3155 60.3545 44.1484Z" fill="#E8F8F5"/>
<path id="Vector_10" fill-rule="evenodd" clip-rule="evenodd" d="M21.731 48.9282C21.4651 49.2503 21.209 49.4518 20.9074 49.8158C20.5459 50.2524 20.5157 50.5438 20.1859 50.9339C20.1587 52.0483 19.8549 52.6723 20.1777 53.9367C20.41 54.847 20.8117 55.524 21.2306 56.2263C21.6993 55.9469 21.4085 56.1076 21.8211 54.9831C21.9793 54.5514 22.2094 54.1575 22.4432 53.7961C22.8568 53.1577 23.69 52.2444 24.2355 51.8286C26.931 49.7734 28.4262 50.3956 29.6265 49.8373C28.4005 48.4618 25.5843 47.648 23.5791 48.1307C22.2913 48.441 22.2734 48.7502 21.731 48.9282Z" fill="#E8F8F5"/>
<path id="Vector_11" fill-rule="evenodd" clip-rule="evenodd" d="M74.9211 49.8373C76.1248 50.3971 77.5909 49.7538 80.3125 51.8286C80.8311 52.224 81.6673 53.135 82.0448 53.705C82.9737 55.107 82.8218 55.9212 83.3174 56.2372C84.0657 54.929 85.1193 52.9324 84.221 50.898C83.8271 49.874 83.4041 49.6067 82.811 48.9282C82.4398 48.8035 82.4804 48.7328 82.0772 48.5238C81.1304 48.032 79.7268 47.8831 78.5753 48.0532C77.3764 48.2305 75.6236 49.0496 74.9211 49.8373Z" fill="#E8F8F5"/>
</g>
<g id="_2574344388752">
<path id="Vector_12" fill-rule="evenodd" clip-rule="evenodd" d="M11.5573 38.4237C11.5573 40.1251 12.4844 41.5433 13.8411 42.2165C15.3601 42.9703 15.331 42.3058 14.5804 44.4774C12.9017 49.3362 17.7447 53.0625 22.1964 53.0625C24.1707 53.0625 24.9958 52.8943 26.2951 51.5392C26.7277 51.0882 26.6808 51.0315 26.956 50.5042C28.1745 50.607 28.1876 51.4991 30.3153 51.4991C31.3067 51.4991 32.2751 50.6853 32.2751 49.2251C32.2751 47.7191 29.9061 47.5059 29.1131 46.3243C28.5662 45.5089 28.4995 45.024 27.7843 44.2623C26.1793 42.5526 24.5039 43.8896 23.5963 43.9663C25.4503 40.409 23.186 39.0841 21.9164 39.7025C21.0962 38.1292 21.9164 39.4791 21.9164 36.7182C21.9164 35.0954 20.0228 33.4492 18.4167 33.4492C16.4666 33.4492 14.9278 33.6741 13.3414 34.976C12.3719 35.7717 11.5573 36.7091 11.5573 38.4237Z" fill="#138B96" stroke="#138B96" stroke-width="0.755906" stroke-miterlimit="22.9256"/>
<path id="Vector_13" fill-rule="evenodd" clip-rule="evenodd" d="M13.255 28.4747L14.2368 29.6117C14.6199 29.3872 14.8563 29.2039 15.254 28.9589C17.948 27.2999 21.9276 26.4921 25.138 27.0515C27.7277 27.5029 30.484 28.618 32.3116 30.2853C32.9568 30.8739 33.6247 31.315 34.095 32.0279C30.8529 32.7949 27.3245 33.8922 26.1987 37.2284C25.8692 38.2048 25.4645 39.831 25.6961 40.8399C27.2062 41.1967 27.0416 41.0262 27.412 38.6025C27.7553 36.3564 29.7907 35.0274 31.7658 34.353C32.9985 33.9323 33.9118 33.7573 35.2149 33.4492C36.3571 35.1808 37.3839 37.1865 37.7302 39.7074C37.8921 40.889 38.0176 42.5526 37.8396 43.9308C37.5786 45.9538 37.3325 46.0627 36.9807 47.5195C37.2424 48.0082 37.6721 48.446 38.1546 48.7098C38.595 47.9077 38.7965 47.106 39.0239 46.1285C41.1729 36.9041 35.5466 27.7331 26.4775 25.6915C25.294 25.425 24.8022 25.4246 23.4585 25.3343C20.6539 25.1461 17.7916 25.8779 15.3831 27.1003C14.742 27.4258 13.7837 27.9606 13.255 28.4747Z" fill="#138B96" stroke="#138B96" stroke-width="0.755906" stroke-miterlimit="22.9256"/>
<path id="Vector_14" fill-rule="evenodd" clip-rule="evenodd" d="M4.55791 32.6709C4.08098 32.429 3.79841 32.0476 3.43839 31.676C2.66883 32.2324 1.5761 36.3912 1.39255 37.1994C0.00123638 43.3335 1.48228 50.4982 5.31705 55.4186C7.62238 58.3772 10.4824 60.4603 13.7967 62.1591C15.4237 62.9933 17.3798 63.6681 19.3679 64.1776C21.1249 64.6274 22.5389 64.7745 24.3222 64.9865C25.1957 65.0901 25.3695 64.8916 25.836 64.5749C25.836 62.6974 24.9339 63.8007 20.6014 62.7828C16.9103 61.9156 15.7744 61.4087 12.8637 59.8374C7.33198 56.8508 3.3844 51.2406 2.62228 44.7945C2.2161 41.357 2.53405 38.3988 3.55827 35.2769C3.86058 34.356 4.29953 33.5142 4.55791 32.6709Z" fill="#138B96" stroke="#138B96" stroke-width="0.755906" stroke-miterlimit="22.9256"/>
<path id="Vector_15" fill-rule="evenodd" clip-rule="evenodd" d="M12.1724 7.58224C12.5272 7.98292 12.895 8.22976 13.1523 8.71927C14.9569 8.11258 18.467 4.94419 19.5366 2.89203C22.7016 2.89203 29.217 3.60569 32.4196 3.59813L37.5999 3.88163C38.4804 3.88919 39.1777 4.02904 40.2544 4.02904C40.1773 4.9714 37.3728 11.7905 37.8746 13.978C38.2864 14.0752 38.302 14.1198 38.8545 14.1198C39.5615 13.0478 39.2905 13.1963 39.7228 11.448C40.2648 9.25527 40.6234 7.90657 41.3911 5.75159C41.5523 5.29913 41.6703 4.89391 41.8747 4.39495C42.1096 3.82191 42.2142 3.66844 42.2142 2.89203C41.1092 2.14094 38.6956 2.57412 36.6739 2.26341L18.6967 1.32861C17.1304 3.70359 16.5306 4.64973 14.0778 6.30348L12.1724 7.58224Z" fill="#138B96" stroke="#138B96" stroke-width="0.755906" stroke-miterlimit="22.9256"/>
<path id="Vector_16" fill-rule="evenodd" clip-rule="evenodd" d="M45.9939 62.557C46.4236 62.8114 46.8662 63.1656 47.0066 63.722C47.3394 63.4279 48.0051 62.2743 48.2788 61.778C51.6723 55.6219 49.5178 49.1441 45.966 43.7103C44.5981 41.6173 43.0817 39.9704 41.935 37.7122C40.1714 34.2392 39.0128 31.6998 38.4744 27.5814C38.3958 26.9808 38.3411 26.582 38.3028 26.0502C38.2421 25.2095 38.216 25.2968 37.8746 24.7793C37.0075 24.7793 36.4956 24.5854 36.7912 26.8742C37.1672 29.7897 37.7335 32.111 38.7931 34.7903C41.7779 42.3363 46.5092 45.0458 48.0353 51.9844C48.5025 54.1084 48.4936 55.8657 48.0364 57.9787C47.4656 60.6141 46.1987 61.8536 45.9939 62.557Z" fill="#138B96" stroke="#138B96" stroke-width="0.755906" stroke-miterlimit="22.9256"/>
<path id="Vector_17" fill-rule="evenodd" clip-rule="evenodd" d="M29.1205 57.7526C28.7244 57.3527 28.2646 57.0102 28.004 56.4735C27.3074 56.9539 25.4738 57.2204 24.3215 57.3519C20.4882 57.7897 16.4442 56.4977 13.6377 54.2191C10.1518 51.3886 7.8331 47.5606 7.77427 41.2658C7.65327 40.802 7.44552 40.7131 7.11119 40.379C6.82302 40.0906 6.69346 39.9239 6.37775 39.7073C6.37775 41.7152 6.01623 42.063 6.43322 44.763C7.50919 51.7318 13.0175 57.5784 19.8132 58.7505C22.3442 59.1871 27.2947 59.0389 29.1205 57.7526Z" fill="#138B96" stroke="#138B96" stroke-width="0.755906" stroke-miterlimit="22.9256"/>
<path id="Vector_18" fill-rule="evenodd" clip-rule="evenodd" d="M11.5573 21.8529C11.9657 22.2094 12.1891 22.576 12.6772 22.8429C13.7722 22.3413 16.0227 20.3863 18.9759 20.2286C20.5429 20.1455 20.3136 20.6562 21.3564 19.947C21.3564 19.3861 21.3125 19.3706 21.2164 18.9521C20.5612 18.6331 19.5936 18.5787 18.5753 18.6868C17.8176 18.7673 16.7033 19.2039 15.9848 19.0153C14.2904 18.5704 13.1999 17.845 12.0804 16.7159C10.5967 15.2201 10.2833 13.0553 10.4352 10.7068C10.5297 9.24624 11.3484 9.95763 13.1523 8.7193C12.895 8.22979 12.5272 7.98296 12.1723 7.58228C11.478 7.72025 10.9575 8.08086 10.3142 8.30993C9.42844 8.62556 9.19947 8.54505 8.99172 9.66733C8.71994 11.1359 8.71957 12.852 9.09709 14.3439C9.45934 15.7732 10.048 16.8592 10.8905 17.7819C11.5807 18.5375 12.9851 19.6889 14.0771 19.947V20.2313C13.5112 20.3651 11.8615 21.3154 11.5573 21.8529Z" fill="#138B96" stroke="#138B96" stroke-width="0.755906" stroke-miterlimit="22.9256"/>
<path id="Vector_19" fill-rule="evenodd" clip-rule="evenodd" d="M31.9437 72.2493C32.7338 72.523 32.3604 72.2145 32.9631 72.8318C33.3339 73.2117 33.5391 73.3398 33.7617 73.8127C36.0629 73.8127 42.2027 74.0705 43.8941 73.6706C44.1834 72.4096 43.7075 72.1155 43.5951 70.6938C43.5285 69.8486 43.5917 68.619 43.8055 67.6113C43.9976 66.7048 44.1763 66.9078 45.3993 65.6763C45.9868 65.0847 46.5386 64.4326 47.0066 63.722C46.8662 63.1656 46.4235 62.8114 45.9939 62.557C45.7727 62.7513 45.47 63.1679 45.2757 63.4192C44.9589 63.8286 44.8651 63.9499 44.4898 64.3264C43.1975 65.6233 42.5039 66.2444 40.9554 67.2763C39.6289 68.1605 39.544 68.0456 40.2544 69.1225C41.6543 69.1225 41.1133 68.7815 42.0742 68.554C42.0597 69.2208 41.8672 69.5243 41.9395 70.3929C41.9864 70.9615 42.1684 71.6895 42.2142 72.2493H31.9437Z" fill="#138B96" stroke="#138B96" stroke-width="0.755906" stroke-miterlimit="22.9256"/>
<path id="Vector_20" fill-rule="evenodd" clip-rule="evenodd" d="M33.7617 73.8128C33.5391 73.3399 33.334 73.2118 32.9631 72.8319C32.3604 72.2146 32.7338 72.523 31.9438 72.2494H21.9164C21.0493 70.5854 20.5165 68.6863 20.5165 66.1379C19.7001 65.583 19.7931 65.583 18.9767 66.1379C18.9767 68.3688 19.1453 69.273 19.6941 70.9524C20.7321 74.1284 20.9771 73.8264 22.4752 73.8139C26.2326 73.7829 30.0029 73.8128 33.7617 73.8128Z" fill="#138B96" stroke="#138B96" stroke-width="0.755906" stroke-miterlimit="22.9256"/>
<path id="Vector_21" fill-rule="evenodd" clip-rule="evenodd" d="M6.37778 39.7074C6.69349 39.924 6.82306 40.0907 7.11122 40.3791C7.44555 40.7132 7.6533 40.8021 7.7743 41.2659C8.00178 40.9105 7.94184 35.7331 11.8719 31.7788L14.2368 29.6117L13.255 28.4747C11.7498 29.227 9.6861 31.7962 8.8391 33.1052C7.96194 34.4615 7.20951 36.2664 6.79625 37.8533C6.68716 38.2721 6.5133 39.4159 6.37778 39.7074Z" fill="#138B96" stroke="#138B96" stroke-width="0.755906" stroke-miterlimit="22.9256"/>
<path id="Vector_22" fill-rule="evenodd" clip-rule="evenodd" d="M3.43839 31.676C3.79841 32.0476 4.08098 32.429 4.55791 32.6709C5.43879 31.2504 5.54899 30.5378 7.05572 28.4524C9.53976 25.0145 12.102 23.5033 12.6772 22.8429C12.1891 22.576 11.9657 22.2094 11.5573 21.8529C10.4958 21.9236 6.5747 26.4275 5.93619 27.3154C5.25599 28.2608 3.6372 30.5911 3.43839 31.676Z" fill="#138B96" stroke="#138B96" stroke-width="0.755906" stroke-miterlimit="22.9256"/>
<path id="Vector_23" fill-rule="evenodd" clip-rule="evenodd" d="M28.004 56.4735C28.2646 57.0102 28.7244 57.3527 29.1206 57.7526C30.3808 57.2831 31.0618 56.8704 32.1076 56.1612C34.347 54.6428 37.4416 51.2597 38.1546 48.7097C37.6721 48.4459 37.2424 48.0082 36.9807 47.5194C35.6207 50.6458 35.8128 50.1386 34.0745 52.331C33.5942 52.9369 33.6601 52.9547 32.9754 53.4892C31.5499 54.602 29.8514 56.1223 28.004 56.4735Z" fill="#138B96" stroke="#138B96" stroke-width="0.755906" stroke-miterlimit="22.9256"/>
<path id="Vector_24" fill-rule="evenodd" clip-rule="evenodd" d="M36.8947 18.9522C36.8947 19.278 36.9424 19.1177 37.0347 19.5207C37.8363 19.7157 37.3247 19.7501 38.2946 19.5207C38.5098 18.584 38.7146 17.2466 38.7146 16.1096C38.7146 15.8223 36.8947 14.0189 36.8947 18.9522Z" fill="#138B96" stroke="#138B96" stroke-width="0.755906" stroke-miterlimit="22.9256"/>
</g>
</g>
</svg>
