<svg width="66" height="98" viewBox="0 0 66 98" fill="none" xmlns="http://www.w3.org/2000/svg">
<g clip-path="url(#clip0_368_3)">
<path fill-rule="evenodd" clip-rule="evenodd" d="M25.8423 67.0346C26.2867 66.5109 26.3273 66.1197 26.8142 65.5336C27.2204 65.0449 27.5654 64.7744 27.9235 64.3421C25.7315 61.8728 21.8381 59.6172 21.0608 56.3634C20.5553 54.2453 21.2744 52.1089 22.3736 50.8646C27.0088 45.6176 34.9281 50.6794 40.7151 53.5638L48.156 57.19C49.495 57.6427 50.7506 58.3815 52.0996 58.9245C54.9189 60.0602 57.3721 60.5996 58.7873 63.5606C59.5917 65.2433 59.4167 66.8362 59.4162 68.8173C59.4151 73.0672 59.1388 75.1787 61.3037 78.2924C62.097 79.4332 63.0298 80.0832 63.6812 81.5919C64.4389 83.3461 64.1947 84.9208 64.2308 86.8851C64.9218 87.9959 64.7589 88.6231 65.8481 89.5624C67.6474 91.1132 70.2676 91.1822 72.1662 89.6528C73.3742 88.6785 73.1345 88.0944 73.8947 86.8851C73.9278 85.0943 73.7398 83.3274 74.3842 81.735C75.0266 80.1472 75.9267 79.5555 76.7431 78.4183C81.3176 72.0477 75.7316 64.3933 81.9279 60.6798C82.9469 60.0688 84.6745 59.4589 85.88 58.9813C87.2957 58.4206 88.585 57.6579 89.9696 57.19C94.8564 55.04 105.877 48.5055 110.676 48.4943C116.158 48.4816 120.453 55.4921 114.063 60.6498L110.195 64.3421C110.993 65.2529 111.563 65.6117 112.094 66.9864L116.756 62.7654C118.355 61.139 119.589 59.9764 120.251 57.3509C120.391 56.7968 120.481 56.2416 120.525 55.69V54.091C120.059 48.3639 114.598 43.606 106.783 45.7561C101.805 47.1262 89.6872 53.8799 88.3132 54.1707C87.3734 55.3023 80.4896 57.36 79.9471 57.9253C80.0087 58.1496 80.0734 57.9543 79.5785 58.274C71.7936 63.3008 70.7645 68.0048 63.101 61.6267L59.194 58.6637C58.5887 58.2811 58.1188 58.144 58.179 57.9253L57.0522 57.3702C55.6616 56.9343 50.3404 54.8065 49.8124 54.1707L40.7853 49.831C39.7588 49.3113 38.8852 48.8029 37.8191 48.3573C34.0816 46.7964 29.0463 43.8395 23.8565 45.8551C20.4826 47.1658 18.0559 50.2547 17.6001 53.6947V56.0249C17.6517 56.4126 17.73 56.8003 17.8358 57.187C18.8829 60.9939 22.0888 63.4748 25.1914 66.4206L25.8423 67.0346Z" fill="#E8F8F5"/>
<path fill-rule="evenodd" clip-rule="evenodd" d="M64.2408 124.962L64.2308 117.472C64.296 114.159 63.8532 111.735 65.8385 109.905C66.7953 109.023 67.3394 108.766 67.4468 106.865C67.5305 105.386 67.4563 103.681 67.4563 102.179C67.4563 98.7722 68.0295 96.3364 66.0396 94.4573C63.7624 92.3078 64.3045 90.6174 64.2308 86.8851C64.1947 84.9208 64.4389 83.3462 63.6812 81.5919C63.0298 80.0833 62.097 79.4332 61.3037 78.2925C59.1388 75.1787 59.4151 73.0672 59.4161 68.8173C59.4166 66.8362 59.5917 65.2433 58.7873 63.5606C57.3721 60.5996 54.9189 60.0602 52.0996 58.9245C50.7506 58.3816 49.4949 57.6427 48.156 57.1901C48.156 69.3324 51.9948 85.6424 57.7207 95.3479C62.0012 102.604 59.9522 100.599 58.0055 104.822C57.5456 105.819 56.8877 107.934 57.0035 109.485C57.1274 111.141 57.675 112.652 58.0486 114.138L60.5254 123.023C60.8503 123.782 61.2225 124.18 61.8202 124.56C62.5659 125.034 63.0453 124.962 64.2408 124.962Z" fill="#E8F8F5"/>
<path fill-rule="evenodd" clip-rule="evenodd" d="M49.8124 54.1707C50.3404 54.8065 55.6616 56.9343 57.0522 57.3702L58.179 57.9253C59.0721 57.9162 61.9591 58.9265 63.3031 59.1934C73.1019 61.137 77.5771 57.901 79.9471 57.9253C80.4896 57.36 87.3734 55.3023 88.3132 54.1707L83.9533 53.139C82.4198 52.8183 81.118 52.5651 79.3513 52.3038C71.934 51.2062 59.3886 51.5649 52.0134 53.5988C51.3168 53.7911 50.6975 54.1489 49.8124 54.1707Z" fill="#E8F8F5"/>
<path fill-rule="evenodd" clip-rule="evenodd" d="M64.2308 117.472C64.7824 116.585 65.4163 113.59 69.063 113.59C70.3573 113.59 71.3723 114.066 72.1661 114.705C73.3762 115.677 73.134 116.262 73.8947 117.472C73.8295 114.159 74.2728 111.735 72.287 109.905C70.0564 107.85 70.6692 106.781 70.6692 102.179C70.6692 98.0486 70.0805 96.4283 72.1817 94.5487C74.3771 92.5843 73.8245 90.452 73.8947 86.8851C73.1345 88.0944 73.3742 88.6785 72.1661 89.6528C70.2676 91.1823 67.6473 91.1132 65.848 89.5624C64.7588 88.6232 64.9218 87.9959 64.2308 86.8851C64.3045 90.6174 63.7624 92.3078 66.0396 94.4573C68.0295 96.3364 67.4563 98.7722 67.4563 102.179C67.4563 103.681 67.5305 105.386 67.4467 106.865C67.3394 108.766 66.7953 109.023 65.8385 109.905C63.8532 111.735 64.296 114.159 64.2308 117.472Z" fill="#E8F8F5"/>
<path fill-rule="evenodd" clip-rule="evenodd" d="M27.2495 74.1395C31.9754 80.5222 42.5856 79.0313 41.702 71.0775C41.4538 68.8437 39.9529 66.6956 38.5583 65.5625C36.9415 66.312 34.9276 65.4767 31.2969 68.2358C30.5623 68.794 29.44 70.02 28.8828 70.877C28.5679 71.3622 28.258 71.8909 28.0449 72.4705C27.4892 73.9801 27.8809 73.7644 27.2495 74.1395Z" fill="#E8F8F5"/>
<path fill-rule="evenodd" clip-rule="evenodd" d="M79.9471 57.9253C77.5771 57.901 73.1019 61.137 63.3031 59.1934C61.9592 58.9265 59.0722 57.9162 58.179 57.9253C58.1188 58.144 58.5887 58.281 59.194 58.6637L63.101 61.6267C70.7646 68.0048 71.7936 63.3008 79.5785 58.2739C80.0735 57.9542 80.0088 58.1496 79.9471 57.9253Z" fill="#E8F8F5"/>
<path fill-rule="evenodd" clip-rule="evenodd" d="M27.9234 64.3421C27.5654 64.7744 27.2204 65.0449 26.8142 65.5336C26.3273 66.1197 26.2866 66.5109 25.8423 67.0346C25.8057 68.5306 25.3965 69.3684 25.8313 71.0658C26.1442 72.2878 26.6853 73.1966 27.2495 74.1395C27.8808 73.7645 27.4892 73.9801 28.0448 72.4705C28.2579 71.8909 28.5679 71.3622 28.8828 70.8771C29.4399 70.02 30.5622 68.794 31.2969 68.2358C34.9276 65.4767 36.9415 66.312 38.5582 65.5625C36.9069 63.7159 33.1137 62.6234 30.4128 63.2714C28.6782 63.688 28.6541 64.1031 27.9234 64.3421Z" fill="#E8F8F5"/>
<path fill-rule="evenodd" clip-rule="evenodd" d="M14.2201 50.24C14.2201 52.524 15.4688 54.428 17.2961 55.3317C19.3422 56.3436 19.303 55.4515 18.2921 58.3668C16.0309 64.8896 22.5541 69.8921 28.5503 69.8921C31.2096 69.8921 32.3209 69.6662 34.071 67.847C34.6537 67.2416 34.5905 67.1655 34.9611 66.4576C36.6025 66.5956 36.62 67.7932 39.4859 67.7932C40.8214 67.7932 42.1257 66.7007 42.1257 64.7404C42.1257 62.7187 38.9348 62.4325 37.8667 60.8462C37.13 59.7516 37.0402 59.1006 36.0769 58.0781C33.9151 55.7829 31.6584 57.5777 30.4358 57.6807C32.9332 52.9051 29.8832 51.1265 28.1732 51.9567C27.0684 49.8447 28.1732 51.6568 28.1732 47.9503C28.1732 45.7718 25.6226 43.5619 23.4593 43.5619C20.8326 43.5619 18.76 43.8638 16.6232 45.6115C15.3173 46.6797 14.2201 47.9382 14.2201 50.24Z" fill="#138B96" stroke="#138B96" stroke-width="0.755906" stroke-miterlimit="22.9256"/>
<path fill-rule="evenodd" clip-rule="evenodd" d="M16.5068 36.8839L17.8292 38.4103C18.3452 38.1089 18.6637 37.8627 19.1993 37.5339C22.8279 35.3067 28.1882 34.2223 32.5124 34.9733C36.0007 35.5792 39.7131 37.0762 42.1749 39.3146C43.0439 40.1047 43.9436 40.6969 44.5769 41.6539C40.2101 42.6835 35.4576 44.1567 33.9411 48.6354C33.4973 49.9462 32.9522 52.1293 33.2642 53.4836C35.2981 53.9627 35.0765 53.7338 35.5754 50.48C36.0378 47.4648 38.7794 45.6806 41.4397 44.7753C43.1001 44.2105 44.3302 43.9755 46.0854 43.5619C47.6239 45.8866 49.007 48.5791 49.4734 51.9633C49.6915 53.5496 49.8605 55.7829 49.6208 57.6331C49.2692 60.349 48.9378 60.4951 48.4639 62.4508C48.8164 63.107 49.3951 63.6946 50.045 64.0488C50.6383 62.972 50.9096 61.8957 51.216 60.5834C54.1105 48.2001 46.5322 35.8882 34.3167 33.1475C32.7225 32.7897 32.0601 32.7892 30.2503 32.668C26.4727 32.4152 22.6173 33.3977 19.3733 35.0388C18.5097 35.4757 17.2189 36.1937 16.5068 36.8839Z" fill="#138B96" stroke="#138B96" stroke-width="0.755906" stroke-miterlimit="22.9256"/>
<path fill-rule="evenodd" clip-rule="evenodd" d="M4.79238 42.517C4.14999 42.1922 3.76938 41.6802 3.28445 41.1814C2.2479 41.9284 0.776062 47.5113 0.528834 48.5963C-1.34518 56.8312 0.649698 66.4495 5.8149 73.055C8.92003 77.0268 12.7724 79.8234 17.2365 82.1038C19.428 83.2238 22.0627 84.1296 24.7406 84.8136C27.107 85.4175 29.0117 85.6149 31.4137 85.8996C32.5902 86.0386 32.8244 85.7722 33.4527 85.347C33.4527 82.8265 32.2377 84.3077 26.402 82.9411C21.4303 81.7771 19.9003 81.0966 15.9798 78.9871C8.52888 74.9777 3.21173 67.4461 2.18521 58.7925C1.6381 54.1778 2.06637 50.2064 3.44593 46.0154C3.85313 44.7792 4.44436 43.6491 4.79238 42.517Z" fill="#138B96" stroke="#138B96" stroke-width="0.755906" stroke-miterlimit="22.9256"/>
<path fill-rule="evenodd" clip-rule="evenodd" d="M15.0486 8.83645C15.5265 9.37434 16.022 9.70572 16.3685 10.3629C18.7991 9.5484 23.527 5.29495 24.9678 2.53999C29.2308 2.53999 38.0066 3.49806 42.3203 3.48791L49.2979 3.8685C50.4839 3.87864 51.4231 4.0664 52.8734 4.0664C52.7696 5.33147 48.992 14.4859 49.668 17.4225C50.2226 17.553 50.2436 17.6128 50.9878 17.6128C51.9401 16.1737 51.5751 16.3731 52.1573 14.0262C52.8874 11.0824 53.3703 9.27184 54.4044 6.37886C54.6215 5.77144 54.7805 5.22746 55.0558 4.55762C55.3722 3.78832 55.5132 3.5823 55.5132 2.53999C54.0248 1.53168 50.7737 2.11322 48.0507 1.69609L23.8364 0.441162C21.7267 3.62948 20.9189 4.89964 17.6151 7.11974L15.0486 8.83645Z" fill="#138B96" stroke="#138B96" stroke-width="0.755906" stroke-miterlimit="22.9256"/>
<path fill-rule="evenodd" clip-rule="evenodd" d="M60.6041 82.6382C61.1828 82.9797 61.779 83.4552 61.9681 84.2022C62.4164 83.8074 63.313 82.2586 63.6816 81.5923C68.2526 73.328 65.3505 64.6318 60.5665 57.3372C58.724 54.5274 56.6815 52.3164 55.137 49.2849C52.7615 44.6224 51.2009 41.2134 50.4758 35.6847C50.3699 34.8783 50.2962 34.343 50.2446 33.629C50.1628 32.5004 50.1277 32.6176 49.6679 31.9229C48.5 31.9229 47.8104 31.6626 48.2086 34.7352C48.7151 38.6492 49.4778 41.7655 50.905 45.3623C54.9254 55.4926 61.2981 59.13 63.3537 68.4448C63.983 71.2962 63.971 73.6553 63.3552 76.492C62.5864 80.0299 60.8799 81.6938 60.6041 82.6382Z" fill="#138B96" stroke="#138B96" stroke-width="0.755906" stroke-miterlimit="22.9256"/>
<path fill-rule="evenodd" clip-rule="evenodd" d="M37.8767 76.1885C37.3432 75.6516 36.7238 75.1919 36.3728 74.4713C35.4345 75.1163 32.9648 75.474 31.4127 75.6506C26.2495 76.2382 20.8025 74.5038 17.0224 71.4448C12.3271 67.645 9.20386 62.5061 9.12463 54.0555C8.96165 53.4328 8.68182 53.3136 8.2315 52.865C7.84336 52.4778 7.66885 52.254 7.24359 51.9633C7.24359 54.6588 6.75666 55.1257 7.31831 58.7504C8.76758 68.1058 16.1869 75.9546 25.3403 77.5282C28.7494 78.1143 35.4175 77.9154 37.8767 76.1885Z" fill="#138B96" stroke="#138B96" stroke-width="0.755906" stroke-miterlimit="22.9256"/>
<path fill-rule="evenodd" clip-rule="evenodd" d="M14.2201 27.9943C14.7702 28.4728 15.0711 28.965 15.7285 29.3233C17.2034 28.6499 20.2348 26.0254 24.2125 25.8137C26.3232 25.7021 26.0143 26.3877 27.4189 25.4357C27.4189 24.6826 27.3597 24.6618 27.2304 24.1001C26.3478 23.6718 25.0444 23.5987 23.6729 23.7438C22.6524 23.8519 21.1515 24.438 20.1836 24.1848C17.9014 23.5876 16.4326 22.6138 14.9246 21.098C12.9263 19.09 12.504 16.1838 12.7086 13.031C12.836 11.0702 13.9387 12.0253 16.3684 10.3628C16.0219 9.7057 15.5264 9.37432 15.0485 8.83643C14.1133 9.02165 13.4122 9.50576 12.5456 9.81327C11.3526 10.237 11.0442 10.1289 10.7644 11.6355C10.3983 13.607 10.3978 15.9108 10.9063 17.9137C11.3943 19.8324 12.1871 21.2903 13.3219 22.529C14.2517 23.5434 16.1432 25.0891 17.6141 25.4357V25.8173C16.8518 25.9969 14.6298 27.2727 14.2201 27.9943Z" fill="#138B96" stroke="#138B96" stroke-width="0.755906" stroke-miterlimit="22.9256"/>
<path fill-rule="evenodd" clip-rule="evenodd" d="M41.6794 95.6499C42.7436 96.0173 42.2406 95.6032 43.0525 96.4319C43.552 96.9419 43.8283 97.1139 44.1282 97.7487C47.2278 97.7487 55.4976 98.0948 57.7758 97.5579C58.1655 95.865 57.5246 95.4702 57.3731 93.5617C57.2834 92.4271 57.3686 90.7763 57.6565 89.4235C57.9152 88.2066 58.1559 88.4791 59.8033 86.8258C60.5946 86.0316 61.3378 85.1563 61.9681 84.2023C61.7791 83.4553 61.1829 82.9798 60.6042 82.6383C60.3063 82.8991 59.8986 83.4584 59.6368 83.7958C59.21 84.3454 59.0837 84.5083 58.5782 85.0137C56.8376 86.7548 55.9033 87.5885 53.8177 88.9738C52.0309 90.1608 51.9166 90.0065 52.8734 91.4522C54.7589 91.4522 54.0303 90.9945 55.3246 90.689C55.305 91.5842 55.0458 91.9917 55.1431 93.1578C55.2063 93.921 55.4515 94.8983 55.5132 95.6499H41.6794Z" fill="#138B96" stroke="#138B96" stroke-width="0.755906" stroke-miterlimit="22.9256"/>
<path fill-rule="evenodd" clip-rule="evenodd" d="M44.1281 97.7486C43.8282 97.1138 43.5519 96.9418 43.0524 96.4318C42.2406 95.6031 42.7435 96.0172 41.6794 95.6498H28.1732C27.0052 93.416 26.2876 90.8665 26.2876 87.4453C25.1879 86.7004 25.3132 86.7004 24.2135 87.4453C24.2135 90.4403 24.4407 91.6541 25.1798 93.9087C26.578 98.1723 26.9079 97.7669 28.9259 97.7501C33.9868 97.7085 39.0652 97.7486 44.1281 97.7486Z" fill="#138B96" stroke="#138B96" stroke-width="0.755906" stroke-miterlimit="22.9256"/>
<path fill-rule="evenodd" clip-rule="evenodd" d="M7.24365 51.9632C7.6689 52.254 7.84341 52.4778 8.23156 52.865C8.68188 53.3136 8.96171 53.4328 9.12469 54.0555C9.43109 53.5784 9.35034 46.6279 14.6439 41.3194L17.8293 38.4102L16.5069 36.8838C14.4794 37.8936 11.6998 41.3428 10.5589 43.1001C9.37742 44.9208 8.36395 47.3439 7.80731 49.4742C7.66038 50.0364 7.42619 51.572 7.24365 51.9632Z" fill="#138B96" stroke="#138B96" stroke-width="0.755906" stroke-miterlimit="22.9256"/>
<path fill-rule="evenodd" clip-rule="evenodd" d="M3.28442 41.1814C3.76935 41.6803 4.14996 42.1923 4.79235 42.517C5.97884 40.61 6.12729 39.6535 8.15676 36.8539C11.5026 32.2386 14.9538 30.2098 15.7285 29.3233C15.0711 28.965 14.7702 28.4728 14.2201 27.9943C12.7904 28.0892 7.50885 34.1354 6.64882 35.3275C5.73262 36.5966 3.55221 39.725 3.28442 41.1814Z" fill="#138B96" stroke="#138B96" stroke-width="0.755906" stroke-miterlimit="22.9256"/>
<path fill-rule="evenodd" clip-rule="evenodd" d="M36.3728 74.4713C36.7238 75.1919 37.3432 75.6517 37.8767 76.1885C39.5742 75.5583 40.4914 75.0042 41.9001 74.0522C44.9165 72.0137 49.0847 67.472 50.045 64.0488C49.3951 63.6946 48.8164 63.1069 48.4639 62.4508C46.632 66.6479 46.8908 65.9669 44.5494 68.9102C43.9025 69.7236 43.9912 69.7475 43.069 70.465C41.1489 71.9589 38.8611 73.9999 36.3728 74.4713Z" fill="#138B96" stroke="#138B96" stroke-width="0.755906" stroke-miterlimit="22.9256"/>
<path fill-rule="evenodd" clip-rule="evenodd" d="M48.348 24.1001C48.348 24.5376 48.4122 24.3224 48.5366 24.8634C49.6162 25.1252 48.9272 25.1714 50.2336 24.8634C50.5234 23.6059 50.7992 21.8105 50.7992 20.2841C50.7992 19.8984 48.348 17.4774 48.348 24.1001Z" fill="#138B96" stroke="#138B96" stroke-width="0.755906" stroke-miterlimit="22.9256"/>
</g>
<defs>
<clipPath id="clip0_368_3">
<rect width="66" height="98" fill="white"/>
</clipPath>
</defs>
</svg>
