<svg width="146" height="178" viewBox="0 0 146 178" fill="none" xmlns="http://www.w3.org/2000/svg">
<g clip-path="url(#clip0_368_3)" filter="url(#filter0_d_368_3)">
<path fill-rule="evenodd" clip-rule="evenodd" d="M65.8423 103.035C66.2867 102.511 66.3273 102.12 66.8142 101.534C67.2204 101.045 67.5654 100.774 67.9235 100.342C65.7315 97.8728 61.8381 95.6172 61.0608 92.3634C60.5553 90.2453 61.2744 88.1089 62.3736 86.8646C67.0088 81.6176 74.9281 86.6794 80.7151 89.5638L88.156 93.19C89.495 93.6427 90.7506 94.3815 92.0996 94.9245C94.9189 96.0602 97.3721 96.5996 98.7873 99.5606C99.5917 101.243 99.4167 102.836 99.4162 104.817C99.4151 109.067 99.1388 111.179 101.304 114.292C102.097 115.433 103.03 116.083 103.681 117.592C104.439 119.346 104.195 120.921 104.231 122.885C104.922 123.996 104.759 124.623 105.848 125.562C107.647 127.113 110.268 127.182 112.166 125.653C113.374 124.678 113.135 124.094 113.895 122.885C113.928 121.094 113.74 119.327 114.384 117.735C115.027 116.147 115.927 115.555 116.743 114.418C121.318 108.048 115.732 100.393 121.928 96.6798C122.947 96.0688 124.674 95.4589 125.88 94.9813C127.296 94.4206 128.585 93.6579 129.97 93.19C134.856 91.04 145.877 84.5055 150.676 84.4943C156.158 84.4816 160.453 91.4921 154.063 96.6498L150.195 100.342C150.993 101.253 151.563 101.612 152.094 102.986L156.756 98.7654C158.355 97.139 159.589 95.9764 160.251 93.3509C160.391 92.7968 160.481 92.2416 160.525 91.69V90.091C160.059 84.3639 154.598 79.606 146.783 81.7561C141.805 83.1262 129.687 89.8799 128.313 90.1707C127.373 91.3023 120.49 93.36 119.947 93.9253C120.009 94.1496 120.073 93.9543 119.578 94.274C111.794 99.3008 110.765 104.005 103.101 97.6267L99.194 94.6637C98.5887 94.2811 98.1188 94.144 98.179 93.9253L97.0522 93.3702C95.6616 92.9343 90.3404 90.8065 89.8124 90.1707L80.7853 85.831C79.7588 85.3113 78.8852 84.8029 77.8191 84.3573C74.0816 82.7964 69.0463 79.8395 63.8565 81.8551C60.4826 83.1658 58.0559 86.2547 57.6001 89.6947V92.0249C57.6517 92.4126 57.73 92.8003 57.8358 93.187C58.8829 96.9939 62.0888 99.4748 65.1914 102.421L65.8423 103.035Z" fill="#E8F8F5"/>
<path fill-rule="evenodd" clip-rule="evenodd" d="M104.241 160.962L104.231 153.472C104.296 150.159 103.853 147.735 105.839 145.905C106.795 145.023 107.339 144.766 107.447 142.865C107.531 141.386 107.456 139.681 107.456 138.179C107.456 134.772 108.029 132.336 106.04 130.457C103.762 128.308 104.305 126.617 104.231 122.885C104.195 120.921 104.439 119.346 103.681 117.592C103.03 116.083 102.097 115.433 101.304 114.292C99.1388 111.179 99.4151 109.067 99.4161 104.817C99.4166 102.836 99.5917 101.243 98.7873 99.5606C97.3721 96.5996 94.9189 96.0602 92.0996 94.9245C90.7506 94.3816 89.4949 93.6427 88.156 93.1901C88.156 105.332 91.9948 121.642 97.7207 131.348C102.001 138.604 99.9522 136.599 98.0055 140.822C97.5456 141.819 96.8877 143.934 97.0035 145.485C97.1274 147.141 97.675 148.652 98.0486 150.138L100.525 159.023C100.85 159.782 101.222 160.18 101.82 160.56C102.566 161.034 103.045 160.962 104.241 160.962Z" fill="#E8F8F5"/>
<path fill-rule="evenodd" clip-rule="evenodd" d="M89.8124 90.1707C90.3404 90.8065 95.6616 92.9343 97.0522 93.3702L98.179 93.9253C99.0721 93.9162 101.959 94.9265 103.303 95.1934C113.102 97.137 117.577 93.901 119.947 93.9253C120.49 93.36 127.373 91.3023 128.313 90.1707L123.953 89.139C122.42 88.8183 121.118 88.5651 119.351 88.3038C111.934 87.2062 99.3886 87.5649 92.0134 89.5988C91.3168 89.7911 90.6975 90.1489 89.8124 90.1707Z" fill="#E8F8F5"/>
<path fill-rule="evenodd" clip-rule="evenodd" d="M104.231 153.472C104.782 152.585 105.416 149.59 109.063 149.59C110.357 149.59 111.372 150.066 112.166 150.705C113.376 151.677 113.134 152.262 113.895 153.472C113.83 150.159 114.273 147.735 112.287 145.905C110.056 143.85 110.669 142.781 110.669 138.179C110.669 134.049 110.08 132.428 112.182 130.549C114.377 128.584 113.825 126.452 113.895 122.885C113.134 124.094 113.374 124.678 112.166 125.653C110.268 127.182 107.647 127.113 105.848 125.562C104.759 124.623 104.922 123.996 104.231 122.885C104.305 126.617 103.762 128.308 106.04 130.457C108.029 132.336 107.456 134.772 107.456 138.179C107.456 139.681 107.53 141.386 107.447 142.865C107.339 144.766 106.795 145.023 105.839 145.905C103.853 147.735 104.296 150.159 104.231 153.472Z" fill="#E8F8F5"/>
<path fill-rule="evenodd" clip-rule="evenodd" d="M67.2495 110.139C71.9754 116.522 82.5856 115.031 81.702 107.077C81.4538 104.844 79.9529 102.696 78.5583 101.562C76.9415 102.312 74.9276 101.477 71.2969 104.236C70.5623 104.794 69.44 106.02 68.8828 106.877C68.5679 107.362 68.258 107.891 68.0449 108.47C67.4892 109.98 67.8809 109.764 67.2495 110.139Z" fill="#E8F8F5"/>
<path fill-rule="evenodd" clip-rule="evenodd" d="M119.947 93.9253C117.577 93.901 113.102 97.137 103.303 95.1934C101.959 94.9265 99.0722 93.9162 98.179 93.9253C98.1188 94.144 98.5887 94.281 99.194 94.6637L103.101 97.6267C110.765 104.005 111.794 99.3008 119.578 94.2739C120.073 93.9542 120.009 94.1496 119.947 93.9253Z" fill="#E8F8F5"/>
<path fill-rule="evenodd" clip-rule="evenodd" d="M67.9234 100.342C67.5654 100.774 67.2204 101.045 66.8142 101.534C66.3273 102.12 66.2866 102.511 65.8423 103.035C65.8057 104.531 65.3965 105.368 65.8313 107.066C66.1442 108.288 66.6853 109.197 67.2495 110.139C67.8808 109.764 67.4892 109.98 68.0448 108.47C68.2579 107.891 68.5679 107.362 68.8828 106.877C69.4399 106.02 70.5622 104.794 71.2969 104.236C74.9276 101.477 76.9415 102.312 78.5582 101.563C76.9069 99.7159 73.1137 98.6234 70.4128 99.2714C68.6782 99.688 68.6541 100.103 67.9234 100.342Z" fill="#E8F8F5"/>
<path fill-rule="evenodd" clip-rule="evenodd" d="M54.2201 86.24C54.2201 88.524 55.4688 90.428 57.2961 91.3317C59.3422 92.3436 59.303 91.4515 58.2921 94.3668C56.0309 100.89 62.5541 105.892 68.5503 105.892C71.2096 105.892 72.3209 105.666 74.071 103.847C74.6537 103.242 74.5905 103.166 74.9611 102.458C76.6025 102.596 76.62 103.793 79.4859 103.793C80.8214 103.793 82.1257 102.701 82.1257 100.74C82.1257 98.7187 78.9348 98.4325 77.8667 96.8462C77.13 95.7516 77.0402 95.1006 76.0769 94.0781C73.9151 91.7829 71.6584 93.5777 70.4358 93.6807C72.9332 88.9051 69.8832 87.1265 68.1732 87.9567C67.0684 85.8447 68.1732 87.6568 68.1732 83.9503C68.1732 81.7718 65.6226 79.5619 63.4593 79.5619C60.8326 79.5619 58.76 79.8638 56.6232 81.6115C55.3173 82.6797 54.2201 83.9382 54.2201 86.24Z" fill="#138B96" stroke="#138B96" stroke-width="0.755906" stroke-miterlimit="22.9256"/>
<path fill-rule="evenodd" clip-rule="evenodd" d="M56.5068 72.8839L57.8292 74.4103C58.3452 74.1089 58.6637 73.8627 59.1993 73.5339C62.8279 71.3067 68.1882 70.2223 72.5124 70.9733C76.0007 71.5792 79.7131 73.0762 82.1749 75.3146C83.0439 76.1047 83.9436 76.6969 84.5769 77.6539C80.2101 78.6835 75.4576 80.1567 73.9411 84.6354C73.4973 85.9462 72.9522 88.1293 73.2642 89.4836C75.2981 89.9627 75.0765 89.7338 75.5754 86.48C76.0378 83.4648 78.7794 81.6806 81.4397 80.7753C83.1001 80.2105 84.3302 79.9755 86.0854 79.5619C87.6239 81.8866 89.007 84.5791 89.4734 87.9633C89.6915 89.5496 89.8605 91.7829 89.6208 93.6331C89.2692 96.349 88.9378 96.4951 88.4639 98.4508C88.8164 99.107 89.3951 99.6946 90.045 100.049C90.6383 98.972 90.9096 97.8957 91.216 96.5834C94.1105 84.2001 86.5322 71.8882 74.3167 69.1475C72.7225 68.7897 72.0601 68.7892 70.2503 68.668C66.4727 68.4152 62.6173 69.3977 59.3733 71.0388C58.5097 71.4757 57.2189 72.1937 56.5068 72.8839Z" fill="#138B96" stroke="#138B96" stroke-width="0.755906" stroke-miterlimit="22.9256"/>
<path fill-rule="evenodd" clip-rule="evenodd" d="M44.7924 78.517C44.15 78.1922 43.7694 77.6802 43.2845 77.1814C42.2479 77.9284 40.7761 83.5113 40.5288 84.5963C38.6548 92.8312 40.6497 102.449 45.8149 109.055C48.92 113.027 52.7724 115.823 57.2365 118.104C59.428 119.224 62.0627 120.13 64.7406 120.814C67.107 121.418 69.0117 121.615 71.4137 121.9C72.5902 122.039 72.8244 121.772 73.4527 121.347C73.4527 118.826 72.2377 120.308 66.402 118.941C61.4303 117.777 59.9003 117.097 55.9798 114.987C48.5289 110.978 43.2117 103.446 42.1852 94.7925C41.6381 90.1778 42.0664 86.2064 43.4459 82.0154C43.8531 80.7792 44.4444 79.6491 44.7924 78.517Z" fill="#138B96" stroke="#138B96" stroke-width="0.755906" stroke-miterlimit="22.9256"/>
<path fill-rule="evenodd" clip-rule="evenodd" d="M55.0486 44.8364C55.5265 45.3743 56.022 45.7057 56.3685 46.3629C58.7991 45.5484 63.527 41.2949 64.9678 38.54C69.2308 38.54 78.0066 39.4981 82.3203 39.4879L89.2979 39.8685C90.4839 39.8786 91.4231 40.0664 92.8734 40.0664C92.7696 41.3315 88.992 50.4859 89.668 53.4225C90.2226 53.553 90.2436 53.6128 90.9878 53.6128C91.9401 52.1737 91.5751 52.3731 92.1573 50.0262C92.8874 47.0824 93.3703 45.2718 94.4044 42.3789C94.6215 41.7714 94.7805 41.2275 95.0558 40.5576C95.3722 39.7883 95.5132 39.5823 95.5132 38.54C94.0248 37.5317 90.7737 38.1132 88.0507 37.6961L63.8364 36.4412C61.7267 39.6295 60.9189 40.8996 57.6151 43.1197L55.0486 44.8364Z" fill="#138B96" stroke="#138B96" stroke-width="0.755906" stroke-miterlimit="22.9256"/>
<path fill-rule="evenodd" clip-rule="evenodd" d="M100.604 118.638C101.183 118.98 101.779 119.455 101.968 120.202C102.416 119.807 103.313 118.259 103.682 117.592C108.253 109.328 105.351 100.632 100.566 93.3372C98.724 90.5274 96.6815 88.3164 95.137 85.2849C92.7615 80.6224 91.2009 77.2134 90.4758 71.6847C90.3699 70.8783 90.2962 70.343 90.2446 69.629C90.1628 68.5004 90.1277 68.6176 89.6679 67.9229C88.5 67.9229 87.8104 67.6626 88.2086 70.7352C88.7151 74.6492 89.4778 77.7655 90.905 81.3623C94.9254 91.4926 101.298 95.13 103.354 104.445C103.983 107.296 103.971 109.655 103.355 112.492C102.586 116.03 100.88 117.694 100.604 118.638Z" fill="#138B96" stroke="#138B96" stroke-width="0.755906" stroke-miterlimit="22.9256"/>
<path fill-rule="evenodd" clip-rule="evenodd" d="M77.8767 112.189C77.3432 111.652 76.7238 111.192 76.3728 110.471C75.4345 111.116 72.9648 111.474 71.4127 111.651C66.2495 112.238 60.8025 110.504 57.0224 107.445C52.3271 103.645 49.2039 98.5061 49.1246 90.0555C48.9617 89.4328 48.6818 89.3136 48.2315 88.865C47.8434 88.4778 47.6688 88.254 47.2436 87.9633C47.2436 90.6588 46.7567 91.1257 47.3183 94.7504C48.7676 104.106 56.1869 111.955 65.3403 113.528C68.7494 114.114 75.4175 113.915 77.8767 112.189Z" fill="#138B96" stroke="#138B96" stroke-width="0.755906" stroke-miterlimit="22.9256"/>
<path fill-rule="evenodd" clip-rule="evenodd" d="M54.2201 63.9943C54.7702 64.4728 55.0711 64.965 55.7285 65.3233C57.2034 64.6499 60.2348 62.0254 64.2125 61.8137C66.3232 61.7021 66.0143 62.3877 67.4189 61.4357C67.4189 60.6826 67.3597 60.6618 67.2304 60.1001C66.3478 59.6718 65.0444 59.5987 63.6729 59.7438C62.6524 59.8519 61.1515 60.438 60.1836 60.1848C57.9014 59.5876 56.4326 58.6138 54.9246 57.098C52.9263 55.09 52.504 52.1838 52.7086 49.031C52.836 47.0702 53.9387 48.0253 56.3684 46.3628C56.0219 45.7057 55.5264 45.3743 55.0485 44.8364C54.1133 45.0216 53.4122 45.5058 52.5456 45.8133C51.3526 46.237 51.0442 46.1289 50.7644 47.6355C50.3983 49.607 50.3978 51.9108 50.9063 53.9137C51.3943 55.8324 52.1871 57.2903 53.3219 58.529C54.2517 59.5434 56.1432 61.0891 57.6141 61.4357V61.8173C56.8518 61.9969 54.6298 63.2727 54.2201 63.9943Z" fill="#138B96" stroke="#138B96" stroke-width="0.755906" stroke-miterlimit="22.9256"/>
<path fill-rule="evenodd" clip-rule="evenodd" d="M81.6794 131.65C82.7436 132.017 82.2406 131.603 83.0525 132.432C83.552 132.942 83.8283 133.114 84.1282 133.749C87.2278 133.749 95.4976 134.095 97.7758 133.558C98.1655 131.865 97.5246 131.47 97.3731 129.562C97.2834 128.427 97.3686 126.776 97.6565 125.423C97.9152 124.207 98.1559 124.479 99.8033 122.826C100.595 122.032 101.338 121.156 101.968 120.202C101.779 119.455 101.183 118.98 100.604 118.638C100.306 118.899 99.8986 119.458 99.6368 119.796C99.21 120.345 99.0837 120.508 98.5782 121.014C96.8376 122.755 95.9033 123.588 93.8177 124.974C92.0309 126.161 91.9166 126.007 92.8734 127.452C94.7589 127.452 94.0303 126.995 95.3246 126.689C95.305 127.584 95.0458 127.992 95.1431 129.158C95.2063 129.921 95.4515 130.898 95.5132 131.65H81.6794Z" fill="#138B96" stroke="#138B96" stroke-width="0.755906" stroke-miterlimit="22.9256"/>
<path fill-rule="evenodd" clip-rule="evenodd" d="M84.1281 133.749C83.8282 133.114 83.5519 132.942 83.0524 132.432C82.2406 131.603 82.7435 132.017 81.6794 131.65H68.1732C67.0052 129.416 66.2876 126.867 66.2876 123.445C65.1879 122.7 65.3132 122.7 64.2135 123.445C64.2135 126.44 64.4407 127.654 65.1798 129.909C66.578 134.172 66.9079 133.767 68.9259 133.75C73.9868 133.709 79.0652 133.749 84.1281 133.749Z" fill="#138B96" stroke="#138B96" stroke-width="0.755906" stroke-miterlimit="22.9256"/>
<path fill-rule="evenodd" clip-rule="evenodd" d="M47.2437 87.9632C47.6689 88.254 47.8434 88.4778 48.2316 88.865C48.6819 89.3136 48.9617 89.4328 49.1247 90.0555C49.4311 89.5784 49.3503 82.6279 54.6439 77.3194L57.8293 74.4102L56.5069 72.8838C54.4794 73.8936 51.6998 77.3428 50.5589 79.1001C49.3774 80.9208 48.3639 83.3439 47.8073 85.4742C47.6604 86.0364 47.4262 87.572 47.2437 87.9632Z" fill="#138B96" stroke="#138B96" stroke-width="0.755906" stroke-miterlimit="22.9256"/>
<path fill-rule="evenodd" clip-rule="evenodd" d="M43.2844 77.1814C43.7694 77.6803 44.15 78.1923 44.7924 78.517C45.9788 76.61 46.1273 75.6535 48.1568 72.8539C51.5026 68.2386 54.9538 66.2098 55.7285 65.3233C55.0711 64.965 54.7702 64.4728 54.2201 63.9943C52.7904 64.0892 47.5088 70.1354 46.6488 71.3275C45.7326 72.5966 43.5522 75.725 43.2844 77.1814Z" fill="#138B96" stroke="#138B96" stroke-width="0.755906" stroke-miterlimit="22.9256"/>
<path fill-rule="evenodd" clip-rule="evenodd" d="M76.3728 110.471C76.7238 111.192 77.3432 111.652 77.8767 112.189C79.5742 111.558 80.4914 111.004 81.9001 110.052C84.9165 108.014 89.0847 103.472 90.045 100.049C89.3951 99.6946 88.8164 99.1069 88.4639 98.4508C86.632 102.648 86.8908 101.967 84.5494 104.91C83.9025 105.724 83.9912 105.747 83.069 106.465C81.1489 107.959 78.8611 110 76.3728 110.471Z" fill="#138B96" stroke="#138B96" stroke-width="0.755906" stroke-miterlimit="22.9256"/>
<path fill-rule="evenodd" clip-rule="evenodd" d="M88.348 60.1001C88.348 60.5376 88.4122 60.3224 88.5366 60.8634C89.6162 61.1252 88.9272 61.1714 90.2336 60.8634C90.5234 59.6059 90.7992 57.8105 90.7992 56.2841C90.7992 55.8984 88.348 53.4774 88.348 60.1001Z" fill="#138B96" stroke="#138B96" stroke-width="0.755906" stroke-miterlimit="22.9256"/>
</g>
<defs>
<filter id="filter0_d_368_3" x="0" y="0" width="146" height="178" filterUnits="userSpaceOnUse" color-interpolation-filters="sRGB">
<feFlood flood-opacity="0" result="BackgroundImageFix"/>
<feColorMatrix in="SourceAlpha" type="matrix" values="0 0 0 0 0 0 0 0 0 0 0 0 0 0 0 0 0 0 127 0" result="hardAlpha"/>
<feOffset dy="4"/>
<feGaussianBlur stdDeviation="20"/>
<feComposite in2="hardAlpha" operator="out"/>
<feColorMatrix type="matrix" values="0 0 0 0 0 0 0 0 0 0 0 0 0 0 0 0 0 0 0.25 0"/>
<feBlend mode="normal" in2="BackgroundImageFix" result="effect1_dropShadow_368_3"/>
<feBlend mode="normal" in="SourceGraphic" in2="effect1_dropShadow_368_3" result="shape"/>
</filter>
<clipPath id="clip0_368_3">
<rect width="66" height="98" fill="white" transform="translate(40 36)"/>
</clipPath>
</defs>
</svg>
