<svg width="266" height="227" viewBox="0 0 266 227" fill="none" xmlns="http://www.w3.org/2000/svg">
<g id="IV - &#209;&#130;&#208;&#181;&#209;&#128;&#208;&#176;&#208;&#191;&#208;&#184;&#209;&#143; 1" filter="url(#filter0_d_190_708)">
<g id="&#208;&#161;&#208;&#187;&#208;&#190;&#208;&#185;_x0020_1">
<g id="_2574477114096">
<path id="Vector" d="M174.915 119.411C167.949 127.601 158.401 131.98 158.401 144.099C158.401 153.705 165.232 161.625 174.181 163.435C173.793 161.589 173.581 159.692 173.581 157.761C173.581 141.904 185.671 135.581 190.984 129.041L181.355 119.411C181.355 119.411 181.355 119.411 181.355 119.41C179.58 117.641 176.692 117.637 174.915 119.411Z" fill="#D5F1EC"/>
<path id="Vector_2" d="M204.124 126.634C202.348 124.857 199.46 124.857 197.684 126.634C188.493 137.385 176.617 142.79 176.617 157.761C176.617 171.183 187.48 182.048 200.904 182.048C214.327 182.048 225.191 171.185 225.191 157.761C225.191 142.781 213.383 137.463 204.124 126.634ZM219.12 159.279C218.281 159.279 217.602 158.6 217.602 157.761C217.602 153.3 215.865 149.108 212.711 145.954C212.118 145.361 212.118 144.4 212.711 143.807C213.304 143.214 214.265 143.214 214.858 143.807C218.585 147.534 220.638 152.49 220.638 157.761C220.638 158.6 219.959 159.279 219.12 159.279Z" fill="#D5F1EC"/>
<path id="Vector_3" d="M155.365 113.74H158.401V116.776C158.401 117.615 159.08 118.294 159.919 118.294C160.758 118.294 161.437 117.615 161.437 116.776V113.74H164.473C165.312 113.74 165.991 113.061 165.991 112.222C165.991 111.383 165.312 110.704 164.473 110.704H161.437V107.668C161.437 106.829 160.758 106.15 159.919 106.15C159.08 106.15 158.401 106.829 158.401 107.668V110.704H155.365C154.526 110.704 153.847 111.383 153.847 112.222C153.847 113.061 154.526 113.74 155.365 113.74Z" fill="#138B96"/>
<path id="Vector_4" d="M205.458 142.581H200.904C199.231 142.581 197.868 141.219 197.868 139.545V121.33C197.868 117.981 195.145 115.258 191.796 115.258C188.448 115.258 185.724 117.981 185.724 121.33V148.653C185.724 155.349 180.277 160.797 173.581 160.797C166.885 160.797 161.437 155.349 161.437 148.653V145.617H172.063C176.247 145.617 179.653 142.212 179.653 138.027V104.632C179.653 100.447 176.247 97.0424 172.063 97.0424H161.437V90.9702H169.027C169.866 90.9702 170.545 90.2914 170.545 89.4523C170.545 88.6133 169.866 87.9341 169.027 87.9341H138.667C134.483 87.9341 131.077 91.3394 131.077 95.5241V162.315C131.077 163.154 131.757 163.833 132.596 163.833C133.435 163.833 134.114 163.154 134.114 162.315V95.5241C134.114 93.013 136.156 90.9702 138.667 90.9702H158.401V97.0424H147.775C143.59 97.0424 140.186 100.447 140.186 104.632V138.027C140.186 142.212 143.59 145.617 147.775 145.617H158.401V148.653C158.401 157.023 165.211 163.833 173.581 163.833C181.95 163.833 188.761 157.023 188.761 148.653V121.33C188.761 119.656 190.123 118.294 191.796 118.294C193.47 118.294 194.832 119.656 194.832 121.33V139.545C194.832 142.894 197.555 145.617 200.904 145.617H205.458C206.297 145.617 206.976 144.938 206.976 144.099C206.976 143.26 206.297 142.581 205.458 142.581ZM143.221 104.632C143.221 102.121 145.264 100.078 147.775 100.078H172.063C174.574 100.078 176.617 102.121 176.617 104.632V127.22C172.049 129.548 164.989 129.448 160.703 126.861C155.875 123.947 148.667 123.574 143.221 125.734V104.632ZM147.775 142.581C145.264 142.581 143.221 140.539 143.221 138.027V129.101C147.789 126.773 154.849 126.873 159.135 129.46C163.915 132.345 171.096 132.777 176.617 130.587V138.027C176.617 140.539 174.574 142.581 172.063 142.581H147.775Z" fill="#138B96"/>
</g>
</g>
</g>
<defs>
<filter id="filter0_d_190_708" x="-40" y="-36" width="325.669" height="268.976" filterUnits="userSpaceOnUse" color-interpolation-filters="sRGB">
<feFlood flood-opacity="0" result="BackgroundImageFix"/>
<feColorMatrix in="SourceAlpha" type="matrix" values="0 0 0 0 0 0 0 0 0 0 0 0 0 0 0 0 0 0 127 0" result="hardAlpha"/>
<feOffset dy="4"/>
<feGaussianBlur stdDeviation="20"/>
<feComposite in2="hardAlpha" operator="out"/>
<feColorMatrix type="matrix" values="0 0 0 0 0 0 0 0 0 0 0 0 0 0 0 0 0 0 0.25 0"/>
<feBlend mode="normal" in2="BackgroundImageFix" result="effect1_dropShadow_190_708"/>
<feBlend mode="normal" in="SourceGraphic" in2="effect1_dropShadow_190_708" result="shape"/>
</filter>
</defs>
</svg>
