<svg width="174" height="174" viewBox="0 0 174 174" fill="none" xmlns="http://www.w3.org/2000/svg">
<g clip-path="url(#clip0_368_54)" filter="url(#filter0_d_368_54)">
<path d="M83.9146 67.4111C76.949 75.6013 67.4011 79.9803 67.4011 92.0993C67.4011 101.705 74.2319 109.625 83.181 111.435C82.7925 109.589 82.5809 107.692 82.5809 105.761C82.5809 89.9038 94.6712 83.5807 99.9841 77.0413L90.3546 67.4111C90.3546 67.4111 90.3546 67.4111 90.3546 67.4099C88.5801 65.6415 85.6922 65.6366 83.9146 67.4111Z" fill="#D5F1EC"/>
<path d="M113.124 74.6338C111.348 72.8574 108.46 72.8574 106.684 74.6338C97.4926 85.3847 85.6166 90.7901 85.6166 105.761C85.6166 119.183 96.4804 130.048 109.904 130.048C123.327 130.048 134.191 119.185 134.191 105.761C134.191 90.7811 122.383 85.4629 113.124 74.6338ZM128.12 107.279C127.281 107.279 126.602 106.6 126.602 105.761C126.602 101.3 124.865 97.1084 121.711 93.9536C121.118 93.361 121.118 92.3998 121.711 91.8072C122.304 91.2142 123.265 91.2142 123.858 91.8072C127.585 95.5338 129.638 100.49 129.638 105.761C129.638 106.6 128.959 107.279 128.12 107.279Z" fill="#D5F1EC"/>
<path d="M64.3654 61.7396H67.4011V64.7757C67.4011 65.6147 68.0799 66.2939 68.919 66.2939C69.758 66.2939 70.4372 65.6147 70.4372 64.7757V61.7396H73.4729C74.312 61.7396 74.9908 61.0608 74.9908 60.2221C74.9908 59.383 74.312 58.7039 73.4729 58.7039H70.4372V55.6678C70.4372 54.8287 69.758 54.1499 68.919 54.1499C68.0799 54.1499 67.4011 54.8287 67.4011 55.6678V58.7039H64.3654C63.5263 58.7039 62.8472 59.383 62.8472 60.2221C62.8472 61.0608 63.5263 61.7396 64.3654 61.7396Z" fill="#138B96"/>
<path d="M114.458 90.5811H109.904C108.231 90.5811 106.868 89.219 106.868 87.5454V69.3296C106.868 65.9809 104.145 63.2578 100.796 63.2578C97.4476 63.2578 94.7244 65.9809 94.7244 69.3296V96.653C94.7244 103.349 89.2766 108.797 82.5808 108.797C75.8846 108.797 70.4372 103.349 70.4372 96.653V93.6172H81.0626C85.2473 93.6172 88.6526 90.2119 88.6526 86.0272V52.632C88.6526 48.447 85.2473 45.0424 81.0626 45.0424H70.4372V38.9702H78.0269C78.8655 38.9702 79.5447 38.2914 79.5447 37.4523C79.5447 36.6133 78.8655 35.9341 78.0269 35.9341H47.6674C43.4827 35.9341 40.0774 39.3394 40.0774 43.5241V110.315C40.0774 111.154 40.7566 111.833 41.5956 111.833C42.4347 111.833 43.1135 111.154 43.1135 110.315V43.5241C43.1135 41.013 45.1563 38.9702 47.6674 38.9702H67.4011V45.0424H56.7753C52.5903 45.0424 49.1857 48.447 49.1857 52.632V86.0272C49.1857 90.2119 52.5903 93.6172 56.7753 93.6172H67.4011V96.653C67.4011 105.023 74.2111 111.833 82.5808 111.833C90.9502 111.833 97.7605 105.023 97.7605 96.653V69.3296C97.7605 67.656 99.1227 66.2939 100.796 66.2939C102.47 66.2939 103.832 67.656 103.832 69.3296V87.5454C103.832 90.8941 106.555 93.6172 109.904 93.6172H114.458C115.297 93.6172 115.976 92.9384 115.976 92.0994C115.976 91.2599 115.297 90.5811 114.458 90.5811ZM52.221 52.632C52.221 50.1209 54.2642 48.0777 56.7753 48.0777H81.0626C83.5737 48.0777 85.6165 50.1209 85.6165 52.632V75.2196C81.049 77.5478 73.9888 77.4484 69.7032 74.8606C64.8745 71.9466 57.6669 71.5743 52.221 73.7339V52.632ZM56.7753 90.5811C54.2642 90.5811 52.221 88.5387 52.221 86.0272V77.1015C56.7886 74.7733 63.8491 74.873 68.1347 77.4601C72.9154 80.3454 80.0958 80.777 85.6165 78.5868V86.0272C85.6165 88.5387 83.5737 90.5811 81.0626 90.5811H56.7753Z" fill="#138B96"/>
</g>
<defs>
<filter id="filter0_d_368_54" x="-2" y="0" width="176" height="174" filterUnits="userSpaceOnUse" color-interpolation-filters="sRGB">
<feFlood flood-opacity="0" result="BackgroundImageFix"/>
<feColorMatrix in="SourceAlpha" type="matrix" values="0 0 0 0 0 0 0 0 0 0 0 0 0 0 0 0 0 0 127 0" result="hardAlpha"/>
<feOffset dy="4"/>
<feGaussianBlur stdDeviation="20"/>
<feComposite in2="hardAlpha" operator="out"/>
<feColorMatrix type="matrix" values="0 0 0 0 0 0 0 0 0 0 0 0 0 0 0 0 0 0 0.25 0"/>
<feBlend mode="normal" in2="BackgroundImageFix" result="effect1_dropShadow_368_54"/>
<feBlend mode="normal" in="SourceGraphic" in2="effect1_dropShadow_368_54" result="shape"/>
</filter>
<clipPath id="clip0_368_54">
<rect width="96" height="94" fill="white" transform="translate(38 36)"/>
</clipPath>
</defs>
</svg>
