<svg width="87" height="103" viewBox="0 0 87 103" fill="none" xmlns="http://www.w3.org/2000/svg">
<g clip-path="url(#clip0_368_87)">
<path fill-rule="evenodd" clip-rule="evenodd" d="M50.3313 37.2218C49.7141 37.2218 45.4686 35.0621 40.7785 38.5242C38.6877 40.0677 38.3075 41.3218 37.9087 41.6117C37.6861 41.7738 34.3027 42.4235 31.9477 45.5794C30.8811 47.0081 29.8119 48.9353 29.8119 51.3871C28.0812 52.3028 26.4738 54.0014 25.9681 56.0158C25.8195 56.6081 25.8203 57.2049 25.6744 57.8398C25.6101 58.1199 22.8224 62.6002 24.7424 67.0472C25.7152 69.2994 24.8501 70.7617 26.7829 73.3469C27.8121 74.7226 29.3942 75.8542 31.2681 76.0103C31.2681 76.8539 30.9903 76.8675 31.3426 78.5834C31.7954 80.7888 33.2233 82.4294 35.0261 83.6374C36.1766 84.408 37.6219 84.9368 39.2818 85.2063C40.6561 85.4293 43.5319 85.3476 44.5067 84.8801C44.95 85.5423 46.0279 86.2146 47.1542 85.6742C47.1542 86.8655 47.1542 88.0572 47.1542 89.2485C47.1538 92.2793 47.2139 91.8972 49.4397 94.1116C50.2648 94.9325 50.3967 95.7353 51.6553 95.7353C52.0094 95.7353 52.4338 95.222 52.5302 94.8894C52.8855 93.6633 51.9315 87.9975 53.4898 83.6699C54.1403 81.8644 55.05 80.8371 56.4795 79.7755C57.9183 78.707 58.5393 77.2534 58.5393 74.8186C58.9263 74.909 59.2873 75.0923 59.7117 75.2347C64.4115 76.8085 69.5747 75.7665 73.3671 72.8344C75.362 71.2919 76.2305 68.9573 76.808 66.4787C83.7204 66.4787 83.7446 62.2691 84.5337 61.6273C85.0228 61.2293 85.2284 61.3178 85.8887 60.4674C88.1345 57.5749 87.0018 55.6617 87.0018 54.5638C87.0018 54.1643 87.2663 53.7651 87.2663 52.0489C87.2663 48.8283 85.1498 45.8924 82.6085 44.2623C82.3031 44.0665 82.1224 44.0041 81.834 43.8458C81.1722 43.4826 81.148 43.0997 80.6695 42.495C80.453 42.2213 80.2587 42.0837 80.018 41.8226C79.4314 41.1846 79.5625 41.2334 78.7394 40.5859C77.7979 39.8448 76.8012 39.3084 75.5373 38.8897C74.6763 38.6047 74.3676 38.6637 73.4155 38.4962C72.6434 38.3609 72.31 37.9342 71.7733 37.6232C66.0262 34.2945 61.0489 36.0116 60.2416 35.7931C57.478 35.0448 56.3479 34.6721 53.0934 35.7477C52.4943 35.9458 52.1406 36.089 51.6118 36.3842C51.419 36.4912 50.3404 37.2218 50.3313 37.2218Z" fill="#D5F1EC"/>
<path d="M11.051 71.1021C11.051 71.1021 16.8155 61.9277 14.391 52.8912C11.9664 43.8536 1.81498 36.1177 7.38147 20.371C12.9476 4.62516 34.9497 1.61249 46.0166 8.66396C57.0834 15.7158 55.4506 30.1612 55.1864 31.5993C59.9037 38.3771 64.2248 41.9374 56.8853 44.8813C56.168 45.4289 57.9988 61.9969 51.4511 62.5445C44.9031 63.0929 39.7902 61.244 38.9492 66.1048C38.0913 70.9649 38.3554 75.3473 38.3554 75.3473" stroke="#138B96" stroke-width="2.67024" stroke-miterlimit="10" stroke-linecap="round" stroke-linejoin="round"/>
<path d="M47.4925 28.1902H40.1201L33.4901 18.9806L30.1747 40.2064L25.3834 23.2787L20.716 28.4358H11.1417" stroke="#138B96" stroke-width="2.67024" stroke-miterlimit="10" stroke-linecap="round" stroke-linejoin="round"/>
</g>
<defs>
<clipPath id="clip0_368_87">
<rect width="87" height="103" fill="white"/>
</clipPath>
</defs>
</svg>
