<svg width="201" height="199" viewBox="0 0 201 199" fill="none" xmlns="http://www.w3.org/2000/svg">
<g id="no-avatar 1">
<path id="Vector" d="M198.525 0H0V199H198.525V0Z" fill="#F3F6FA"/>
<g id="Clip path group">
<mask id="mask0_2_158" style="mask-type:luminance" maskUnits="userSpaceOnUse" x="39" y="39" width="120" height="121">
<g id="clip0_43159_20389">
<path id="Vector_2" d="M158.815 39.8H39.7037V159.2H158.815V39.8Z" fill="white"/>
</g>
</mask>
<g mask="url(#mask0_2_158)">
<g id="Group">
<path id="Vector_3" d="M113.487 132.478C113.275 132.478 113.275 132.478 113.169 132.478C113.064 132.478 112.958 132.478 112.852 132.478H112.746C112.746 132.478 112.641 132.478 112.641 132.584H112.535L99.2061 138.098L85.9833 132.69C85.6662 132.584 85.3488 132.478 84.9257 132.478V131.842C89.4743 129.085 94.5519 124.101 99.2061 115.194C99.7352 116.148 100.158 117.103 100.687 117.951C104.919 125.161 109.361 129.403 113.487 131.842V132.478Z" fill="#E4EBF1"/>
<path id="Vector_4" d="M111.9 136.19C110.313 141.81 103.755 144.991 98.9945 145.627V145.733C98.254 145.733 96.9845 145.627 96.8788 145.627C92.3302 144.779 88.0988 141.704 86.6178 136.296L63.1341 145.839C63.1341 146.687 63.2401 147.43 63.4515 148.172C73.501 155.065 85.8774 159.2 99.2061 159.2C112.852 159.2 125.44 154.852 135.807 147.536C135.701 146.9 135.595 146.263 135.384 145.733L111.9 136.19Z" fill="white"/>
<path id="Vector_5" d="M111.9 130.039V136.932C108.198 149.656 90.2149 149.656 86.6183 136.932V130.039" fill="#F3F6FA"/>
<path id="Vector_6" d="M133.374 85.3968C133.374 57.4025 119.517 43.0874 99.2066 43.0874C78.8964 43.0874 65.0389 57.4025 65.0389 85.3968C58.4803 85.9271 59.9613 100.878 67.3662 100.03C69.4817 106.075 71.8091 111.058 74.2419 115.3C82.7045 129.509 92.225 133.645 99.2066 133.645C108.198 133.645 121.527 126.646 130.941 99.9243C138.452 100.773 139.933 85.8212 133.374 85.3968Z" fill="#F3F6FA"/>
<path id="Vector_7" d="M91.8019 105.014C86.7246 109.892 82.1758 116.36 78.156 120.814C85.455 130.569 93.2829 133.644 99.2069 133.644C105.131 133.644 112.959 130.569 120.258 120.814C116.238 116.36 111.689 109.892 106.612 105.014C102.486 100.985 95.9276 100.985 91.8019 105.014Z" fill="white"/>
<path id="Vector_8" d="M99.2057 136.826C93.2819 136.826 81.8574 134.175 71.5965 116.785C68.9519 112.225 66.5188 106.923 64.4031 100.985C63.7686 99.288 64.7205 97.4853 66.3072 96.9552C67.9998 96.3189 69.7981 97.2733 70.3269 98.8638C72.3369 104.378 74.5583 109.362 76.9914 113.603C85.6655 128.343 94.5511 130.57 99.0999 130.57C104.389 130.57 117.718 127.494 127.873 98.9698C128.507 97.2733 130.306 96.4251 131.892 97.0611C133.585 97.6974 134.431 99.5001 133.797 101.091C122.478 133.327 105.87 136.826 99.2057 136.826Z" fill="#8DA2BA"/>
<path id="Vector_9" d="M133.374 88.5779C131.576 88.5779 130.201 87.1996 130.201 85.3969C130.201 60.5836 118.882 46.2683 99.2064 46.2683C85.2431 46.2683 75.5112 53.3731 70.9624 66.7339C69.27 71.7179 68.4239 77.4439 68.2122 83.9124C68.2122 85.6088 66.7312 86.9874 65.0386 86.9874C65.0386 86.9874 65.0386 86.9874 64.9329 86.9874C63.1346 86.9874 61.7593 85.5029 61.8653 83.7002C61.971 76.5956 63.0289 70.2331 64.9329 64.6131C70.3279 48.7073 82.4929 39.906 99.2064 39.906C122.584 39.906 136.548 56.8722 136.548 85.3969C136.548 87.0934 135.067 88.5779 133.374 88.5779Z" fill="#8DA2BA"/>
<path id="Vector_10" d="M63.2401 149.657C61.9705 149.657 60.807 148.914 60.2782 147.642C59.6434 146.051 60.3839 144.143 61.9705 143.506L85.3486 133.963C86.9352 133.327 88.8393 134.069 89.474 135.659C90.1088 137.25 89.3683 139.159 87.7817 139.795L64.4036 149.339C63.9805 149.657 63.5574 149.657 63.2401 149.657Z" fill="#8DA2BA"/>
<path id="Vector_11" d="M135.279 149.656C134.856 149.656 134.433 149.55 134.115 149.444L110.737 139.901C109.151 139.264 108.305 137.356 109.045 135.765C109.68 134.175 111.584 133.326 113.17 134.069L136.549 143.612C138.135 144.248 138.981 146.157 138.241 147.748C137.712 148.914 136.443 149.656 135.279 149.656Z" fill="#8DA2BA"/>
<path id="Vector_12" d="M99.2069 149.656C91.6964 149.656 85.561 144.991 83.551 137.78C83.0222 136.083 84.08 134.281 85.7724 133.857C87.465 133.326 89.2633 134.387 89.6864 136.083C91.2731 141.492 95.6102 143.4 99.3126 143.4C103.015 143.4 107.352 141.492 108.939 136.083L115.074 137.886C112.853 144.991 106.717 149.656 99.2069 149.656Z" fill="#8DA2BA"/>
<path id="Vector_13" d="M66.8367 103.211C64.1922 103.211 61.7591 101.939 60.0665 99.5C57.5279 95.8946 56.9989 90.3806 58.7972 86.5633C59.9608 84.0183 62.1822 82.3218 64.9327 82.2156C66.731 82.1097 68.212 83.382 68.3177 85.1847C68.4234 86.9874 67.1541 88.4719 65.3558 88.5782C65.1441 88.5782 64.9327 88.5782 64.5093 89.3204C63.6631 91.0169 64.0862 94.1982 65.2501 95.8946C65.9905 96.8491 66.625 96.9551 67.1541 96.8491C68.8465 96.6369 70.4334 97.9095 70.6448 99.606C70.8565 101.303 69.5869 102.893 67.8946 103.105C67.4715 103.105 67.1541 103.211 66.8367 103.211Z" fill="#8DA2BA"/>
<path id="Vector_14" d="M131.575 103.211C131.257 103.211 130.94 103.211 130.623 103.211C128.93 102.999 127.661 101.409 127.872 99.712C128.084 98.0155 129.671 96.7429 131.363 96.955C131.892 97.061 132.527 96.9551 133.267 96.0006C134.431 94.3041 134.854 91.2288 134.008 89.4261C133.69 88.6839 133.373 88.6839 133.161 88.6839C131.363 88.5779 130.094 86.9874 130.2 85.2907C130.305 83.488 131.892 82.2156 133.585 82.3216C136.229 82.5338 138.451 84.1243 139.72 86.6692C141.518 90.4866 140.989 96.1066 138.451 99.606C136.652 101.833 134.219 103.211 131.575 103.211Z" fill="#8DA2BA"/>
<path id="Vector_15" d="M133.375 85.3968H65.0391L66.4144 58.0388C66.8375 49.5557 73.8191 42.8752 82.2817 42.8752H116.132C124.595 42.8752 131.576 49.5557 132 58.0388L133.375 85.3968Z" fill="white"/>
<path id="Vector_16" d="M133.374 88.5779C131.682 88.5779 130.306 87.3056 130.201 85.5029L128.825 58.2508C128.508 51.4644 122.902 46.1623 116.131 46.1623H82.281C75.511 46.1623 69.9046 51.4644 69.5872 58.2508L68.212 85.5029C68.1063 87.3056 66.6253 88.5779 64.9327 88.472C63.1344 88.366 61.8651 86.8815 61.9708 85.1847L63.2401 57.9327C63.7691 47.7531 72.126 39.8 82.281 39.8H116.131C126.287 39.8 134.643 47.7531 135.172 57.9327L136.548 85.1847C136.653 86.9874 135.278 88.472 133.586 88.472C133.48 88.5779 133.374 88.5779 133.374 88.5779Z" fill="#8DA2BA"/>
<path id="Vector_17" d="M102.38 56.6604H96.0328V72.5662H102.38V56.6604Z" fill="#8DA2BA"/>
<path id="Vector_18" d="M107.14 61.4319H91.2728V67.7944H107.14V61.4319Z" fill="#8DA2BA"/>
</g>
</g>
</g>
</g>
</svg>
