<svg width="265" height="226" viewBox="0 0 265 226" fill="none" xmlns="http://www.w3.org/2000/svg">
<g id="&#208;&#191;&#208;&#181;&#208;&#180;&#208;&#184;&#208;&#176;&#209;&#130;&#209;&#128;&#208;&#184;&#209;&#143; 1" filter="url(#filter0_d_190_739)">
<g id="&#208;&#161;&#208;&#187;&#208;&#190;&#208;&#185;_x0020_1">
<path id="Vector" d="M199.652 165.035C196.921 163.184 195.121 160.057 195.121 156.516C195.121 152.439 197.515 148.917 200.965 147.257C198.748 144.763 195.552 143.298 192.184 143.298C190.087 143.298 188.083 143.874 186.297 144.916C188.118 146.772 189.246 149.311 189.246 152.111C189.246 155.65 187.447 158.778 184.715 160.628C188.857 162.397 192.01 166.022 193.163 170.446C194.744 168.066 196.997 166.169 199.652 165.035Z" fill="#D5F1EC"/>
<path id="Vector_2" d="M186.309 152.11C186.309 148.061 183.014 144.767 178.966 144.767C174.917 144.767 171.622 148.061 171.622 152.11C171.622 156.159 174.917 159.454 178.966 159.454C183.014 159.454 186.309 156.159 186.309 152.11Z" fill="#D5F1EC"/>
<path id="Vector_3" d="M192.184 116.862C174.368 116.862 159.873 131.356 159.873 149.173C159.873 156.081 162.059 162.485 165.766 167.743C167.312 164.567 169.956 162.021 173.216 160.629C170.484 158.778 168.685 155.65 168.685 152.111C168.685 146.442 173.297 141.829 178.966 141.829C180.696 141.829 182.325 142.263 183.758 143.022C184.603 142.429 185.499 141.933 186.434 141.535C183.702 139.685 181.903 136.557 181.903 133.017C181.903 127.349 186.516 122.736 192.184 122.736C197.852 122.736 202.465 127.349 202.465 133.017C202.465 136.569 200.654 139.704 197.907 141.552C200.301 142.569 202.42 144.201 204 146.343C204.46 146.28 204.926 146.236 205.402 146.236C211.07 146.236 215.683 150.848 215.683 156.516C215.683 160.057 213.883 163.184 211.152 165.035C213.526 166.049 215.57 167.68 217.108 169.714C221.721 164.126 224.495 156.968 224.495 149.173C224.495 131.356 210 116.862 192.184 116.862Z" fill="#D5F1EC"/>
<path id="Vector_4" d="M205.402 163.86C209.451 163.86 212.746 160.566 212.746 156.516C212.746 152.468 209.451 149.173 205.402 149.173C201.353 149.173 198.059 152.468 198.059 156.516C198.059 160.566 201.353 163.86 205.402 163.86Z" fill="#D5F1EC"/>
<path id="Vector_5" d="M199.527 133.017C199.527 128.968 196.233 125.674 192.184 125.674C188.135 125.674 184.84 128.968 184.84 133.017C184.84 137.066 188.135 140.361 192.184 140.361C196.233 140.361 199.527 137.066 199.527 133.017Z" fill="#D5F1EC"/>
<path id="Vector_6" d="M178.966 162.391C173.802 162.391 169.414 165.746 167.842 170.386C173.469 176.834 181.604 181.037 190.715 181.447V174.141C190.715 167.662 185.444 162.391 178.966 162.391Z" fill="#D5F1EC"/>
<path id="Vector_7" d="M205.402 166.798C198.923 166.798 193.653 172.069 193.653 178.547V181.447C202.019 181.071 209.565 177.501 215.101 171.926C212.982 168.833 209.426 166.798 205.402 166.798Z" fill="#D5F1EC"/>
<path id="Vector_8" d="M172.461 131.34C180.153 128.126 185.575 120.528 185.575 111.684C185.575 99.941 176.021 90.3875 164.279 90.3875C152.536 90.3875 142.983 99.941 142.983 111.684C142.983 120.494 148.361 128.072 156.007 131.307C144.76 134.79 136.373 145.225 136.373 157.948V159.417C136.373 161.846 138.35 163.823 140.779 163.823H187.778C190.208 163.823 192.184 161.846 192.184 159.417V158.582C192.184 145.983 183.862 134.987 172.461 131.34ZM164.279 93.3249C173.145 93.3249 180.562 99.642 182.267 108.012H178.757C178.101 105.485 175.821 103.606 173.091 103.606C170.362 103.606 168.082 105.485 167.424 108.012H161.133C160.476 105.485 158.196 103.606 155.466 103.606C152.738 103.606 150.457 105.485 149.8 108.012H146.29C147.996 99.642 155.413 93.3249 164.279 93.3249ZM176.028 109.481C176.028 111.1 174.71 112.418 173.091 112.418C171.471 112.418 170.154 111.1 170.154 109.481C170.154 107.861 171.471 106.543 173.091 106.543C174.71 106.543 176.028 107.861 176.028 109.481ZM158.404 109.481C158.404 111.1 157.087 112.418 155.466 112.418C153.846 112.418 152.529 111.1 152.529 109.481C152.529 107.861 153.846 106.543 155.466 106.543C157.087 106.543 158.404 107.861 158.404 109.481ZM145.92 111.684C145.92 111.436 145.948 111.195 145.957 110.95H149.8C150.457 113.476 152.738 115.355 155.466 115.355C158.196 115.355 160.476 113.476 161.133 110.95H167.424C168.082 113.476 170.362 115.355 173.091 115.355C175.821 115.355 178.101 113.476 178.757 110.95H182.6C182.61 111.195 182.637 111.436 182.637 111.684C182.637 121.807 174.402 130.043 164.279 130.043C154.156 130.043 145.92 121.807 145.92 111.684ZM171.241 134.035L169.28 140.571C166.128 142.065 162.429 142.065 159.278 140.571L157.296 133.968C159.535 133.319 161.876 132.98 164.27 132.98C166.507 132.98 168.74 133.276 171.241 134.035ZM140.779 160.885C139.97 160.885 139.311 160.227 139.311 159.417V157.948C139.311 147.43 145.711 138.707 154.528 134.964L162.305 160.885H140.779ZM160.329 144.076C161.62 144.437 162.946 144.639 164.279 144.639C165.611 144.639 166.938 144.437 168.228 144.076L164.279 157.242L160.329 144.076ZM189.246 159.417C189.246 160.227 188.588 160.885 187.778 160.885H166.253L174.003 135.051C182.916 138.993 189.246 148.145 189.246 158.582V159.417Z" fill="#138B96"/>
<path id="Vector_9" d="M174.144 123.019C174.717 122.445 174.717 121.516 174.144 120.942C173.571 120.368 172.642 120.368 172.068 120.942C167.773 125.236 160.784 125.236 156.49 120.942C155.916 120.368 154.987 120.368 154.413 120.942C153.839 121.516 153.839 122.445 154.413 123.019C157.133 125.74 160.706 127.099 164.279 127.099C167.852 127.099 171.425 125.74 174.144 123.019Z" fill="#138B96"/>
<g id="_2574459990768">
<path id="Vector_10" fill-rule="evenodd" clip-rule="evenodd" d="M148.261 153.673L145.788 151.197L143.406 153.685L148.262 158.747L148.261 153.673Z" fill="#138B96"/>
<path id="Vector_11" fill-rule="evenodd" clip-rule="evenodd" d="M148.255 153.732L150.859 151.256L155.837 151.249L148.254 158.806L148.255 153.732Z" fill="#138B96"/>
</g>
</g>
</g>
<defs>
<filter id="filter0_d_190_739" x="-40" y="-36" width="325.669" height="268.976" filterUnits="userSpaceOnUse" color-interpolation-filters="sRGB">
<feFlood flood-opacity="0" result="BackgroundImageFix"/>
<feColorMatrix in="SourceAlpha" type="matrix" values="0 0 0 0 0 0 0 0 0 0 0 0 0 0 0 0 0 0 127 0" result="hardAlpha"/>
<feOffset dy="4"/>
<feGaussianBlur stdDeviation="20"/>
<feComposite in2="hardAlpha" operator="out"/>
<feColorMatrix type="matrix" values="0 0 0 0 0 0 0 0 0 0 0 0 0 0 0 0 0 0 0.25 0"/>
<feBlend mode="normal" in2="BackgroundImageFix" result="effect1_dropShadow_190_739"/>
<feBlend mode="normal" in="SourceGraphic" in2="effect1_dropShadow_190_739" result="shape"/>
</filter>
</defs>
</svg>
