<svg width="93" height="94" viewBox="0 0 93 94" fill="none" xmlns="http://www.w3.org/2000/svg">
<g clip-path="url(#clip0_368_73)">
<path d="M63.6524 78.0347C60.921 76.1842 59.1211 73.0567 59.1211 69.5164C59.1211 65.4386 61.5151 61.9172 64.9654 60.2565C62.7476 57.7628 59.552 56.2982 56.1837 56.2982C54.0872 56.2982 52.0825 56.8742 50.2967 57.9159C52.1184 59.772 53.2462 62.3111 53.2462 65.1106C53.2462 68.6505 51.4468 71.7784 48.7153 73.6285C52.8566 75.3973 56.0098 79.0219 57.163 83.4462C58.7443 81.0659 60.9965 79.1689 63.6524 78.0347Z" fill="#D5F1EC"/>
<path d="M50.3092 65.1105C50.3092 61.0615 47.0142 57.7668 42.9659 57.7668C38.9169 57.7668 35.6223 61.0615 35.6223 65.1105C35.6223 69.1591 38.9169 72.4541 42.9659 72.4541C47.0142 72.4541 50.3092 69.1591 50.3092 65.1105Z" fill="#D5F1EC"/>
<path d="M56.1837 29.8616C38.3678 29.8616 23.8729 44.3561 23.8729 62.1728C23.8729 69.0814 26.059 75.4846 29.7663 80.7427C31.3122 77.5671 33.9559 75.0213 37.2162 73.6285C34.4843 71.7784 32.6849 68.6505 32.6849 65.1106C32.6849 59.442 37.2967 54.8291 42.966 54.8291C44.6962 54.8291 46.3252 55.2634 47.758 56.022C48.6031 55.4289 49.4989 54.9334 50.4336 54.5351C47.7021 52.685 45.9026 49.5571 45.9026 46.0172C45.9026 40.349 50.5156 35.7361 56.1837 35.7361C61.8522 35.7361 66.4648 40.349 66.4648 46.0172C66.4648 49.5688 64.6536 52.7043 61.9071 54.5525C64.301 55.5692 66.4198 57.2012 68.0004 59.3426C68.46 59.2799 68.9256 59.2357 69.4022 59.2357C75.0704 59.2357 79.6829 63.8482 79.6829 69.5164C79.6829 73.0567 77.8835 76.1842 75.152 78.0347C77.5263 79.0491 79.5695 80.6803 81.1082 82.7141C85.7211 77.1265 88.4953 69.9677 88.4953 62.1728C88.4953 44.3561 74.0004 29.8616 56.1837 29.8616Z" fill="#D5F1EC"/>
<path d="M69.4022 76.86C73.4509 76.86 76.7458 73.5657 76.7458 69.5164C76.7458 65.4677 73.4509 62.1727 69.4022 62.1727C65.3532 62.1727 62.0586 65.4677 62.0586 69.5164C62.0586 73.5657 65.3532 76.86 69.4022 76.86Z" fill="#D5F1EC"/>
<path d="M63.5273 46.0171C63.5273 41.9681 60.2327 38.6738 56.1837 38.6738C52.1347 38.6738 48.8405 41.9681 48.8405 46.0171C48.8405 50.0661 52.1347 53.3607 56.1837 53.3607C60.2327 53.3607 63.5273 50.0661 63.5273 46.0171Z" fill="#D5F1EC"/>
<path d="M42.9659 75.3912C37.8016 75.3912 33.4136 78.7456 31.8424 83.3864C37.469 89.8343 45.604 94.0372 54.715 94.4472V87.141C54.715 80.6622 49.444 75.3912 42.9659 75.3912Z" fill="#D5F1EC"/>
<path d="M69.4023 79.7977C62.9234 79.7977 57.6528 85.0687 57.6528 91.5472V94.4472C66.0188 94.0707 73.5654 90.5006 79.1005 84.9262C76.9817 81.833 73.4263 79.7977 69.4023 79.7977Z" fill="#D5F1EC"/>
<path d="M36.461 44.3398C44.1534 41.126 49.5748 33.528 49.5748 24.6836C49.5748 12.941 40.0213 3.38745 28.2787 3.38745C16.5364 3.38745 6.98256 12.941 6.98256 24.6836C6.98256 33.494 12.3608 41.0716 20.0068 44.3069C8.76045 47.7897 0.373291 58.2254 0.373291 70.9476V72.4167C0.373291 74.8462 2.34999 76.8229 4.77947 76.8229H51.7779C54.2078 76.8229 56.1837 74.8462 56.1837 72.4167V71.5818C56.1837 58.9828 47.8619 47.987 36.461 44.3398ZM28.2787 6.3249C37.1447 6.3249 44.5616 12.642 46.267 21.0118H42.7573C42.1008 18.4848 39.821 16.606 37.091 16.606C34.3618 16.606 32.0816 18.4848 31.4244 21.0118H25.133C24.4761 18.4848 22.1959 16.606 19.4663 16.606C16.7375 16.606 14.4573 18.4848 13.8001 21.0118H10.29C11.9957 12.642 19.4127 6.3249 28.2787 6.3249ZM40.0285 22.4809C40.0285 24.0996 38.7102 25.4179 37.091 25.4179C35.4707 25.4179 34.1536 24.0996 34.1536 22.4809C34.1536 20.8613 35.4707 19.543 37.091 19.543C38.7102 19.543 40.0285 20.8613 40.0285 22.4809ZM22.4042 22.4809C22.4042 24.0996 21.0866 25.4179 19.4663 25.4179C17.8464 25.4179 16.5293 24.0996 16.5293 22.4809C16.5293 20.8613 17.8464 19.543 19.4663 19.543C21.0866 19.543 22.4042 20.8613 22.4042 22.4809ZM9.92 24.6836C9.92 24.4356 9.94759 24.1949 9.95704 23.9496H13.8001C14.4573 26.4762 16.7375 28.3554 19.4663 28.3554C22.1959 28.3554 24.4761 26.4762 25.133 23.9496H31.4244C32.0816 26.4762 34.3618 28.3554 37.091 28.3554C39.821 28.3554 42.1008 26.4762 42.7573 23.9496H46.5999C46.6098 24.1949 46.637 24.4356 46.637 24.6836C46.637 34.807 38.4021 43.0426 28.2787 43.0426C18.156 43.0426 9.92 34.807 9.92 24.6836ZM35.2409 47.0346L33.2801 53.5709C30.1284 55.0653 26.429 55.0653 23.2776 53.5709L21.296 46.9677C23.5346 46.3195 25.8757 45.9797 28.27 45.9797C30.5067 45.9797 32.7404 46.276 35.2409 47.0346ZM4.77947 73.8855C3.96989 73.8855 3.31074 73.2271 3.31074 72.4167V70.9476C3.31074 60.4303 9.71137 51.7072 18.5279 47.9636L26.3046 73.8855H4.77947ZM24.3291 57.076C25.6198 57.4366 26.9464 57.6392 28.2787 57.6392C29.611 57.6392 30.938 57.4366 32.2283 57.076L28.2787 70.242L24.3291 57.076ZM53.2462 72.4167C53.2462 73.2271 52.5882 73.8855 51.7779 73.8855H30.2531L38.003 48.0509C46.9159 51.9926 53.2462 61.1451 53.2462 71.5818V72.4167Z" fill="#138B96"/>
<path d="M38.1444 36.0188C38.7173 35.445 38.7173 34.5156 38.1444 33.9419C37.5706 33.3682 36.6416 33.3682 36.0679 33.9419C31.7732 38.2362 24.7841 38.2362 20.4898 33.9419C19.9161 33.3682 18.9867 33.3682 18.413 33.9419C17.8392 34.5156 17.8392 35.445 18.413 36.0188C21.1335 38.7396 24.7059 40.0991 28.2787 40.0991C31.8518 40.0991 35.4246 38.7396 38.1444 36.0188Z" fill="#138B96"/>
<path fill-rule="evenodd" clip-rule="evenodd" d="M12.2607 66.6726L9.78812 64.1967L7.40588 66.6847L12.2618 71.7474L12.2607 66.6726Z" fill="#138B96"/>
<path fill-rule="evenodd" clip-rule="evenodd" d="M12.255 66.7315L14.8588 64.2556L19.8368 64.2491L12.2539 71.8063L12.255 66.7315Z" fill="#138B96"/>
</g>
<defs>
<clipPath id="clip0_368_73">
<rect width="93" height="94" fill="white"/>
</clipPath>
</defs>
</svg>
