<svg width="94" height="94" viewBox="0 0 94 94" fill="none" xmlns="http://www.w3.org/2000/svg">
<g clip-path="url(#clip0_368_39)">
<path d="M76.2349 39.8165C67.8432 39.8165 62.5379 44.0572 60.2963 46.3305C58.055 44.0572 52.7497 39.8165 44.3576 39.8165C34.5694 39.8165 26.9011 47.5956 26.9011 57.5263C26.9011 64.6219 31.1584 78.4456 59.6719 91.2937C60.0684 91.4721 60.5242 91.4721 60.9203 91.2937C89.4342 78.4456 93.6918 64.6219 93.6918 57.5263C93.6918 47.5956 86.0231 39.8165 76.2349 39.8165ZM80.7889 67.8992C79.2363 67.8992 77.9025 66.9603 77.3159 65.622H73.9581C73.5549 65.622 73.1693 65.4621 72.8851 65.1775L70.0683 62.3599L66.2895 73.6921C65.8628 74.9714 64.0973 75.1018 63.4922 73.8909L55.7423 58.3903L52.5464 64.783C52.2882 65.2977 51.7636 65.622 51.1884 65.622H37.5269C36.6878 65.622 36.0087 64.9428 36.0087 64.1041C36.0087 63.2658 36.6878 62.5863 37.5269 62.5863H50.2499L54.3847 54.3174C54.9006 53.2887 56.5844 53.2887 57.1003 54.3174L64.5687 69.2553L67.9646 59.0702C68.3191 58.0047 69.6763 57.6759 70.4776 58.4772L74.5867 62.5863H77.3159C77.9025 61.2487 79.2363 60.3091 80.7889 60.3091C82.882 60.3091 84.5839 62.0118 84.5839 64.1041C84.5839 66.1965 82.882 67.8992 80.7889 67.8992Z" fill="#D5F1EC"/>
<path d="M22.3468 48.8478V54.2374C22.3468 66.3738 32.2212 76.2482 44.3576 76.2482C56.494 76.2482 66.368 66.3738 66.368 54.2374V48.8035C71.5086 48.0627 75.4763 43.6411 75.4763 38.2987C75.4763 32.4393 70.7085 27.6729 64.8502 27.6729C58.9919 27.6729 54.2244 32.4393 54.2244 38.2987C54.2244 43.6411 58.1922 48.0627 63.332 48.8035V54.2374C63.332 64.6999 54.8205 73.2121 44.3576 73.2121C33.8947 73.2121 25.3829 64.6999 25.3829 54.2374V48.8478C38.0673 48.0578 48.1526 37.5163 48.1526 24.6369V18.565C48.1526 10.707 42.1504 4.22664 34.4911 3.46242V1.86709C34.4911 1.02916 33.812 0.349609 32.9729 0.349609C32.1339 0.349609 31.455 1.02916 31.455 1.86709V7.93966C31.455 8.77758 32.1339 9.45714 32.9729 9.45714C33.812 9.45714 34.4911 8.77758 34.4911 7.93966V6.52687C40.4715 7.27786 45.1165 12.3844 45.1165 18.565V24.6369C45.1165 36.3557 35.5831 45.8888 23.865 45.8888C12.147 45.8888 2.61347 36.3557 2.61347 24.6369V18.565C2.61347 12.3844 7.25889 7.27786 13.2392 6.52687V7.93966C13.2392 8.77758 13.9184 9.45714 14.7571 9.45714C15.5961 9.45714 16.275 8.77758 16.275 7.93966V1.86709C16.275 1.02916 15.5961 0.349609 14.7571 0.349609C13.9184 0.349609 13.2392 1.02916 13.2392 1.86709V3.46242C5.57965 4.22664 -0.422241 10.707 -0.422241 18.565V24.6369C-0.422241 37.5163 9.66343 48.0578 22.3468 48.8478ZM57.2601 38.2987C57.2601 34.114 60.6655 30.7087 64.8502 30.7087C69.0349 30.7087 72.4402 34.114 72.4402 38.2987C72.4402 42.4838 69.0349 45.8888 64.8502 45.8888C60.6655 45.8888 57.2601 42.4838 57.2601 38.2987Z" fill="#138B96"/>
</g>
<defs>
<clipPath id="clip0_368_39">
<rect width="94" height="94" fill="white"/>
</clipPath>
</defs>
</svg>
