<svg width="174" height="172" viewBox="0 0 174 172" fill="none" xmlns="http://www.w3.org/2000/svg">
<g clip-path="url(#clip0_368_39)" filter="url(#filter0_d_368_39)">
<path d="M116.235 75.8165C107.843 75.8165 102.538 80.0572 100.296 82.3305C98.055 80.0572 92.7497 75.8165 84.3576 75.8165C74.5694 75.8165 66.9011 83.5956 66.9011 93.5263C66.9011 100.622 71.1584 114.446 99.6719 127.294C100.068 127.472 100.524 127.472 100.92 127.294C129.434 114.446 133.692 100.622 133.692 93.5263C133.692 83.5956 126.023 75.8165 116.235 75.8165ZM120.789 103.899C119.236 103.899 117.902 102.96 117.316 101.622H113.958C113.555 101.622 113.169 101.462 112.885 101.178L110.068 98.3599L106.289 109.692C105.863 110.971 104.097 111.102 103.492 109.891L95.7423 94.3903L92.5464 100.783C92.2882 101.298 91.7636 101.622 91.1884 101.622H77.5269C76.6878 101.622 76.0087 100.943 76.0087 100.104C76.0087 99.2658 76.6878 98.5863 77.5269 98.5863H90.2499L94.3847 90.3174C94.9006 89.2887 96.5844 89.2887 97.1003 90.3174L104.569 105.255L107.965 95.0702C108.319 94.0047 109.676 93.6759 110.478 94.4772L114.587 98.5863H117.316C117.902 97.2487 119.236 96.3091 120.789 96.3091C122.882 96.3091 124.584 98.0118 124.584 100.104C124.584 102.196 122.882 103.899 120.789 103.899Z" fill="#D5F1EC"/>
<path d="M62.3468 84.8478V90.2374C62.3468 102.374 72.2212 112.248 84.3576 112.248C96.494 112.248 106.368 102.374 106.368 90.2374V84.8035C111.509 84.0627 115.476 79.6411 115.476 74.2987C115.476 68.4393 110.708 63.6729 104.85 63.6729C98.9919 63.6729 94.2244 68.4393 94.2244 74.2987C94.2244 79.6411 98.1922 84.0627 103.332 84.8035V90.2374C103.332 100.7 94.8205 109.212 84.3576 109.212C73.8947 109.212 65.3829 100.7 65.3829 90.2374V84.8478C78.0673 84.0578 88.1526 73.5163 88.1526 60.6369V54.565C88.1526 46.707 82.1504 40.2266 74.4911 39.4624V37.8671C74.4911 37.0292 73.812 36.3496 72.9729 36.3496C72.1339 36.3496 71.455 37.0292 71.455 37.8671V43.9397C71.455 44.7776 72.1339 45.4571 72.9729 45.4571C73.812 45.4571 74.4911 44.7776 74.4911 43.9397V42.5269C80.4715 43.2779 85.1165 48.3844 85.1165 54.565V60.6369C85.1165 72.3557 75.5831 81.8888 63.865 81.8888C52.147 81.8888 42.6135 72.3557 42.6135 60.6369V54.565C42.6135 48.3844 47.2589 43.2779 53.2392 42.5269V43.9397C53.2392 44.7776 53.9184 45.4571 54.7571 45.4571C55.5961 45.4571 56.275 44.7776 56.275 43.9397V37.8671C56.275 37.0292 55.5961 36.3496 54.7571 36.3496C53.9184 36.3496 53.2392 37.0292 53.2392 37.8671V39.4624C45.5796 40.2266 39.5778 46.707 39.5778 54.565V60.6369C39.5778 73.5163 49.6634 84.0578 62.3468 84.8478ZM97.2601 74.2987C97.2601 70.114 100.666 66.7087 104.85 66.7087C109.035 66.7087 112.44 70.114 112.44 74.2987C112.44 78.4838 109.035 81.8888 104.85 81.8888C100.666 81.8888 97.2601 78.4838 97.2601 74.2987Z" fill="#138B96"/>
</g>
<defs>
<filter id="filter0_d_368_39" x="0" y="0" width="174" height="174" filterUnits="userSpaceOnUse" color-interpolation-filters="sRGB">
<feFlood flood-opacity="0" result="BackgroundImageFix"/>
<feColorMatrix in="SourceAlpha" type="matrix" values="0 0 0 0 0 0 0 0 0 0 0 0 0 0 0 0 0 0 127 0" result="hardAlpha"/>
<feOffset dy="4"/>
<feGaussianBlur stdDeviation="20"/>
<feComposite in2="hardAlpha" operator="out"/>
<feColorMatrix type="matrix" values="0 0 0 0 0 0 0 0 0 0 0 0 0 0 0 0 0 0 0.25 0"/>
<feBlend mode="normal" in2="BackgroundImageFix" result="effect1_dropShadow_368_39"/>
<feBlend mode="normal" in="SourceGraphic" in2="effect1_dropShadow_368_39" result="shape"/>
</filter>
<clipPath id="clip0_368_39">
<rect width="94" height="94" fill="white" transform="translate(40 36)"/>
</clipPath>
</defs>
</svg>
