<svg width="112" height="104" viewBox="0 0 112 104" fill="none" xmlns="http://www.w3.org/2000/svg">
<path d="M73.4344 34.1553C57.2599 34.1553 44.1011 47.3141 44.1011 63.4886C44.1011 79.6631 57.2599 92.8219 73.4344 92.8219C89.6089 92.8219 102.768 79.6631 102.768 63.4886C102.768 47.3141 89.6089 34.1553 73.4344 34.1553ZM91.3471 47.4607L57.4073 81.402C56.8865 81.9228 56.0425 81.9228 55.5217 81.402C55.0009 80.8812 55.0009 80.0372 55.5217 79.5164L89.4618 45.5751C89.9827 45.0543 90.8263 45.0543 91.3471 45.5751C91.8679 46.0959 91.8679 46.9399 91.3471 47.4607Z" fill="#D5F1EC"/>
<path fill-rule="evenodd" clip-rule="evenodd" d="M31.6472 49.3644C32.021 49.7696 32.405 50.0292 32.6684 50.5334C35.1059 48.7971 36.6328 47.286 37.3932 43.7779C38.4572 38.8717 35.5586 36.59 35.3814 34.4602C41.2272 34.4602 40.6417 38.7999 40.6417 43.6656L40.6157 54.5987C40.3866 55.206 38.9232 54.8674 37.9284 55.5016C38.1072 56.0492 38.6238 56.1895 38.9515 56.8165C48.5836 53.9852 59.2181 61.5012 55.5909 70.0123C55.1774 70.9829 54.4718 72.1757 53.7926 72.8043C54.1301 72.9974 53.8436 72.8103 54.0825 73.0348C54.3826 73.3164 54.7658 73.6838 54.8981 74.0587C55.2077 73.3856 56.6261 72.4754 57.5336 69.3245C59.522 62.4177 53.6195 56.3954 47.1017 55.0326C45.5672 54.7113 45.9021 55.3648 45.9021 51.4102C45.9021 48.8776 45.9021 46.3445 45.9021 43.8119C45.9021 40.4024 45.2705 36.4777 48.3909 34.9028C49.6026 34.2913 50.4337 34.5286 49.4091 32.9987C47.7166 32.9987 46.0941 34.4549 45.3797 35.5449C44.3237 37.1565 44.2946 38.6196 44.2946 41.1817C44.2946 45.6627 44.2946 50.1437 44.2946 54.6247H42.2492C42.2492 49.8523 42.2318 45.0765 42.2495 40.3045C42.2624 36.8372 41.3122 34.5725 38.4511 33.2901C37.3872 32.8131 36.7443 32.8528 35.2355 32.8528C34.7918 31.9283 35.0027 31.4732 35.0923 30.3719C35.1535 29.622 35.3708 28.4326 35.6735 27.9409C35.1724 27.6661 34.7234 27.2171 34.4486 26.7156C33.1235 28.9587 33.1076 33.4057 34.167 36.113C35.2238 38.8142 37.0882 40.6522 35.217 45.2545C34.8855 46.0698 34.35 46.9651 33.7407 47.5774C32.0709 49.2552 32.5789 48.5442 31.7107 49.3016C31.6986 49.3122 31.6657 49.341 31.6472 49.3644Z" fill="#138B96" stroke="#138B96" stroke-width="0.944882" stroke-miterlimit="22.9256"/>
<path fill-rule="evenodd" clip-rule="evenodd" d="M50.9655 18.3867L49.9443 17.2177C48.9937 18.74 48.5599 21.0641 49.0315 23.4403C49.2636 24.6104 49.6283 25.2563 50.0909 26.18C50.4893 26.9745 51.0789 28.0483 51.1624 29.0536C48.3868 29.0536 46.8787 29.4021 44.7592 30.833C44.1038 31.2756 43.8453 31.7382 43.2719 32.1222C42.008 31.2756 41.3799 29.9788 38.2406 29.2554C37.089 28.9901 37.0217 29.0396 36.5504 29.9305C37.0716 30.915 37.0293 30.5923 38.2108 30.9003C39.9943 31.3648 41.8157 32.6476 42.8339 34.1677H43.7104C44.4644 33.0422 45.4206 32.245 46.661 31.5659C48.1951 30.7253 49.1661 30.6611 51.455 30.6611C51.469 31.2949 51.6515 31.3758 51.5672 32.0769C50.8393 38.1256 48.9571 37.2854 48.9673 41.4705C48.9726 43.7866 49.4405 45.4114 50.2905 46.876C51.0967 48.265 52.2385 49.55 53.6165 50.4174C58.8451 53.7086 65.1905 51.4496 67.5104 47.1496C68.2055 45.8619 66.9174 45.2791 66.2738 46.06C66.1781 46.1764 66.039 46.4614 65.9412 46.6084C65.2363 47.6682 64.8712 48.031 63.8976 48.8024C60.2046 51.7285 54.0232 50.6997 51.5 45.6665C50.7463 44.163 50.238 42.0809 50.758 39.9005C51.1598 38.2144 52.1924 37.0175 52.6864 35.1073C53.5035 31.9469 53.2593 29.5533 52.0627 26.5459C51.39 24.8553 49.7893 22.986 50.6405 19.7643C50.792 19.1909 51.0022 18.9649 50.9655 18.3867Z" fill="#138B96" stroke="#138B96" stroke-width="0.944882" stroke-miterlimit="22.9256"/>
<path fill-rule="evenodd" clip-rule="evenodd" d="M49.9442 17.2177L50.9654 18.3867L51.1204 18.2201C51.3105 17.9702 51.1831 18.1554 51.3109 17.9491C52.2293 16.4633 52.2135 16.362 53.6123 15.1379C57.0554 12.126 62.8143 12.5795 65.7982 16.61C66.4388 17.4755 67.3368 19.3581 67.779 20.4738C68.6922 22.7797 69.2814 24.8119 69.6567 27.3635C69.7916 28.2834 69.789 29.0786 69.9277 30.0148C70.3272 32.7062 69.2523 34.8704 70.5967 35.0446C72.1425 35.2449 71.5831 30.2703 71.5136 29.7438C71.1719 27.1602 71.4029 27.0184 70.6863 24.1422C69.9852 21.3287 68.2783 16.9241 66.6872 15.1363C64.3741 12.5379 61.2341 11.1282 57.4666 11.6864C55.7012 11.9476 54.1716 12.6978 52.9554 13.6045C51.8071 14.4606 50.5096 15.7842 49.9442 17.2177Z" fill="#138B96" stroke="#138B96" stroke-width="0.944882" stroke-miterlimit="22.9256"/>
<path fill-rule="evenodd" clip-rule="evenodd" d="M48.2245 78.0042C47.9426 77.6123 47.596 77.1466 47.071 76.9921C44.1302 78.821 46.1276 81.7055 44.2428 82.7762C43.5141 83.1897 42.7525 83.1164 42.1225 82.661C40.7706 81.6832 41.9501 80.5637 40.7452 78.3391C39.9012 76.7804 38.5694 76.4576 37.2998 75.9398C34.6628 74.8653 32.4764 73.0825 31.1906 70.5056C28.7479 65.6111 31.657 62.2799 31.8743 61.5081L30.8361 60.4698C29.8564 61.1744 29.0412 63.7675 28.7887 64.9822C28.1473 68.072 29.3469 71.3239 31.3225 73.5882C31.6377 73.9495 31.759 74.2103 32.129 74.535C33.165 75.4432 34.8374 76.6455 36.0688 77.1708C37.8599 77.9354 39.2485 77.977 39.6639 80.151C39.8136 80.9349 39.4454 83.4853 41.9698 84.4207C43.8293 85.1097 45.6431 84.2053 46.3472 82.8333C46.9905 81.5804 46.591 81.2746 46.8858 80.0108C47.0037 79.5043 47.1285 79.1932 47.3545 78.872C47.7113 78.3644 47.9634 78.3992 48.2245 78.0042Z" fill="#138B96" stroke="#138B96" stroke-width="0.944882" stroke-miterlimit="22.9256"/>
<path fill-rule="evenodd" clip-rule="evenodd" d="M32.6684 50.5334C32.405 50.0292 32.021 49.7696 31.6472 49.3644C28.8314 50.5436 26.7089 50.8437 23.8372 49.5111C17.9165 46.7637 15.5226 32.8381 16.8239 28.0758C16.2301 27.7308 15.7581 27.1559 15.3627 26.609C14.9753 30.737 14.5701 32.1902 15.3816 36.9256C15.9342 40.1526 16.8692 42.8806 18.1392 45.4193C19.6268 48.3942 20.5796 49.6724 23.6403 51.1691C24.6173 51.6472 26.8045 52.1552 28.3295 51.9568C30.0284 51.7357 31.4189 51.3596 32.6684 50.5334Z" fill="#138B96" stroke="#138B96" stroke-width="0.944882" stroke-miterlimit="22.9256"/>
<path fill-rule="evenodd" clip-rule="evenodd" d="M18.2854 17.7419C18.7926 18.0102 19.0398 18.3901 19.454 18.7612L19.8951 18.1009C20.0244 17.8383 20.1207 17.6089 20.2829 17.3159C23.8757 10.8307 33.4659 11.9917 35.7291 19.208C36.9857 23.2135 34.7415 25.5187 34.4486 26.7156C34.7233 27.2172 35.1723 27.6662 35.6735 27.9409C36.8312 24.9959 38.5036 23.2483 37.4 19.1445C37.0307 17.7721 36.3243 16.5736 35.5291 15.4628C34.9558 14.6616 34.238 13.9866 33.5059 13.3947C31.129 11.4732 27.1197 10.8065 23.7506 12.1626C22.5502 12.6456 21.2739 13.5614 20.4378 14.4023C19.7859 15.0577 18.556 16.8083 18.2854 17.7419Z" fill="#138B96" stroke="#138B96" stroke-width="0.944882" stroke-miterlimit="22.9256"/>
<path fill-rule="evenodd" clip-rule="evenodd" d="M28.3677 16.0486C28.3677 14.6207 24.3693 14.8169 22.1666 18.4691C21.2588 19.9741 19.3047 24.7933 19.3308 26.1407C19.3444 26.8452 20.0871 27.2576 20.6559 26.761C20.9957 26.4643 21.1881 25.2578 21.3211 24.7835C21.7146 23.3851 22.1432 22.156 22.7169 20.9189C23.3451 19.5636 23.7638 18.6996 24.8217 17.7634C26.3354 16.4236 28.3677 17.3567 28.3677 16.0486Z" fill="#138B96" stroke="#138B96" stroke-width="0.944882" stroke-miterlimit="22.9256"/>
<path fill-rule="evenodd" clip-rule="evenodd" d="M58.9071 15.4643C58.5597 15.5694 58.3613 15.346 58.2203 15.953C57.7815 17.8462 61.25 15.7232 63.3397 19.9446C64.2842 21.8521 64.9154 23.4902 65.4211 25.6078C65.5817 26.281 65.7571 27.1461 66.5969 26.959C67.4038 26.7791 67.1997 26.036 67.0323 25.3164C66.8615 24.5832 66.6793 23.9584 66.4521 23.2619C65.7193 21.0168 64.6251 18.1005 62.7289 16.6107C61.9069 15.9647 60.1607 15.2704 59.2045 15.371C58.9929 15.3933 58.9717 15.4447 58.9071 15.4643Z" fill="#138B96" stroke="#138B96" stroke-width="0.944882" stroke-miterlimit="22.9256"/>
<path fill-rule="evenodd" clip-rule="evenodd" d="M15.3627 26.6091C15.758 27.156 16.2301 27.7309 16.8238 28.0759C16.8238 24.3705 19.3263 19.425 19.454 18.7613C19.0398 18.3901 18.7926 18.0103 18.2854 17.7419C17.3065 19.2054 15.5286 24.3901 15.3627 26.6091Z" fill="#138B96" stroke="#138B96" stroke-width="0.944882" stroke-miterlimit="22.9256"/>
<path fill-rule="evenodd" clip-rule="evenodd" d="M30.8361 60.4698L31.8743 61.508C32.569 60.9494 33.8374 58.8559 36.7779 57.6287C37.5632 57.301 38.1869 57.1105 38.9515 56.8165C38.6238 56.1895 38.1071 56.0492 37.9283 55.5016C36.7019 55.7386 34.7475 56.8006 33.8344 57.4617C33.0898 58.0006 31.1229 59.5714 30.8361 60.4698Z" fill="#138B96" stroke="#138B96" stroke-width="0.944882" stroke-miterlimit="22.9256"/>
<path fill-rule="evenodd" clip-rule="evenodd" d="M47.071 76.992C47.596 77.1466 47.9426 77.6122 48.2246 78.0042C48.9007 77.8545 49.5818 77.5272 50.1623 77.2963C50.8445 77.0253 51.3128 76.7354 51.8865 76.3903C53 75.7202 53.9332 74.9908 54.8981 74.0587C54.7658 73.6838 54.3826 73.3164 54.0825 73.0349C53.8436 72.8104 54.1301 72.9975 53.7926 72.8043C50.7897 75.9561 48.4653 75.998 47.4755 76.6549L47.071 76.992Z" fill="#138B96" stroke="#138B96" stroke-width="0.944882" stroke-miterlimit="22.9256"/>
<path fill-rule="evenodd" clip-rule="evenodd" d="M69.574 40.5975C70.444 40.5975 70.5037 39.9871 70.6882 39.2278C71.1168 37.4635 71.4471 36.5057 70.1583 36.5057C69.3619 36.5057 68.885 39.7429 68.885 39.7463C68.877 40.1292 69.1227 40.5975 69.574 40.5975Z" fill="#138B96" stroke="#138B96" stroke-width="0.944882" stroke-miterlimit="22.9256"/>
</svg>
