<svg width="264" height="222" viewBox="0 0 264 222" fill="none" xmlns="http://www.w3.org/2000/svg">
<g id="&#209;&#131;&#209;&#128;&#208;&#190;&#208;&#187;&#208;&#190;&#208;&#179;&#208;&#184;&#209;&#143; 1" filter="url(#filter0_d_190_787)">
<g id="&#208;&#161;&#208;&#187;&#208;&#190;&#208;&#185;_x0020_1">
<path id="Vector" d="M194.434 119.155C178.26 119.155 165.101 132.314 165.101 148.489C165.101 164.663 178.26 177.822 194.434 177.822C210.609 177.822 223.768 164.663 223.768 148.489C223.768 132.314 210.609 119.155 194.434 119.155ZM212.347 132.461L178.407 166.402C177.886 166.923 177.043 166.923 176.522 166.402C176.001 165.881 176.001 165.037 176.522 164.516L210.462 130.575C210.983 130.054 211.826 130.054 212.347 130.575C212.868 131.096 212.868 131.94 212.347 132.461Z" fill="#D5F1EC"/>
<g id="_2574496221792">
<path id="Vector_2" fill-rule="evenodd" clip-rule="evenodd" d="M152.647 134.364C153.021 134.77 153.405 135.029 153.668 135.533C156.106 133.797 157.633 132.286 158.393 128.778C159.457 123.872 156.559 121.59 156.381 119.46C162.227 119.46 161.642 123.8 161.642 128.666L161.616 139.599C161.387 140.206 159.923 139.867 158.928 140.502C159.107 141.049 159.624 141.189 159.952 141.816C169.584 138.985 180.218 146.501 176.591 155.012C176.177 155.983 175.472 157.176 174.793 157.804C175.13 157.997 174.844 157.81 175.082 158.035C175.383 158.316 175.766 158.684 175.898 159.059C176.208 158.386 177.626 157.475 178.534 154.324C180.522 147.418 174.619 141.395 168.102 140.033C166.567 139.711 166.902 140.365 166.902 136.41C166.902 133.878 166.902 131.345 166.902 128.812C166.902 125.402 166.271 121.478 169.391 119.903C170.603 119.291 171.434 119.529 170.409 117.999C168.717 117.999 167.094 119.455 166.38 120.545C165.324 122.157 165.295 123.62 165.295 126.182C165.295 130.663 165.295 135.144 165.295 139.625H163.249C163.249 134.852 163.232 130.077 163.25 125.304C163.262 121.837 162.312 119.572 159.451 118.29C158.387 117.813 157.744 117.853 156.235 117.853C155.792 116.928 156.003 116.473 156.092 115.372C156.153 114.622 156.371 113.433 156.674 112.941C156.172 112.666 155.723 112.217 155.449 111.716C154.124 113.959 154.108 118.406 155.167 121.113C156.224 123.814 158.088 125.652 156.217 130.255C155.886 131.07 155.35 131.965 154.741 132.577C153.071 134.255 153.579 133.544 152.711 134.302C152.699 134.312 152.666 134.341 152.647 134.364Z" fill="#138B96" stroke="#138B96" stroke-width="0.944882" stroke-miterlimit="22.9256"/>
<path id="Vector_3" fill-rule="evenodd" clip-rule="evenodd" d="M171.966 103.387L170.944 102.218C169.994 103.74 169.56 106.064 170.032 108.44C170.264 109.61 170.628 110.256 171.091 111.18C171.489 111.974 172.079 113.048 172.162 114.054C169.387 114.054 167.879 114.402 165.759 115.833C165.104 116.276 164.845 116.738 164.272 117.122C163.008 116.276 162.38 114.979 159.241 114.255C158.089 113.99 158.022 114.04 157.55 114.93C158.072 115.915 158.029 115.592 159.211 115.9C160.994 116.365 162.816 117.648 163.834 119.168H164.71C165.464 118.042 166.421 117.245 167.661 116.566C169.195 115.725 170.166 115.661 172.455 115.661C172.469 116.295 172.652 116.376 172.567 117.077C171.839 123.126 169.957 122.285 169.967 126.47C169.973 128.787 170.44 130.411 171.291 131.876C172.097 133.265 173.238 134.55 174.616 135.417C179.845 138.709 186.191 136.45 188.51 132.15C189.205 130.862 187.917 130.279 187.274 131.06C187.178 131.176 187.039 131.461 186.941 131.608C186.236 132.668 185.871 133.031 184.898 133.802C181.205 136.729 175.023 135.7 172.5 130.667C171.746 129.163 171.238 127.081 171.758 124.9C172.16 123.214 173.192 122.017 173.686 120.107C174.503 116.947 174.259 114.553 173.063 111.546C172.39 109.855 170.789 107.986 171.64 104.764C171.792 104.191 172.002 103.965 171.966 103.387Z" fill="#138B96" stroke="#138B96" stroke-width="0.944882" stroke-miterlimit="22.9256"/>
<path id="Vector_4" fill-rule="evenodd" clip-rule="evenodd" d="M170.944 102.218L171.965 103.387L172.12 103.22C172.311 102.97 172.183 103.155 172.311 102.949C173.229 101.463 173.213 101.362 174.612 100.138C178.055 97.126 183.814 97.5795 186.798 101.61C187.439 102.475 188.337 104.358 188.779 105.474C189.692 107.78 190.281 109.812 190.657 112.363C190.792 113.283 190.789 114.079 190.928 115.015C191.327 117.706 190.252 119.87 191.597 120.045C193.143 120.245 192.583 115.27 192.514 114.744C192.172 112.16 192.403 112.018 191.686 109.142C190.985 106.329 189.278 101.924 187.687 100.136C185.374 97.5379 182.234 96.1282 178.467 96.6864C176.701 96.9476 175.172 97.6978 173.955 98.6045C172.807 99.4606 171.51 100.784 170.944 102.218Z" fill="#138B96" stroke="#138B96" stroke-width="0.944882" stroke-miterlimit="22.9256"/>
<path id="Vector_5" fill-rule="evenodd" clip-rule="evenodd" d="M169.225 163.004C168.943 162.612 168.596 162.147 168.071 161.992C165.13 163.821 167.128 166.706 165.243 167.776C164.514 168.19 163.753 168.116 163.122 167.661C161.771 166.683 162.95 165.564 161.745 163.339C160.901 161.78 159.569 161.458 158.3 160.94C155.663 159.865 153.476 158.083 152.191 155.506C149.748 150.611 152.657 147.28 152.874 146.508L151.836 145.47C150.856 146.174 150.041 148.767 149.789 149.982C149.147 153.072 150.347 156.324 152.322 158.588C152.638 158.95 152.759 159.21 153.129 159.535C154.165 160.443 155.837 161.645 157.069 162.171C158.86 162.935 160.249 162.977 160.664 165.151C160.814 165.935 160.445 168.485 162.97 169.421C164.829 170.11 166.643 169.205 167.347 167.833C167.991 166.58 167.591 166.275 167.886 165.011C168.004 164.504 168.128 164.193 168.354 163.872C168.711 163.364 168.963 163.399 169.225 163.004Z" fill="#138B96" stroke="#138B96" stroke-width="0.944882" stroke-miterlimit="22.9256"/>
<path id="Vector_6" fill-rule="evenodd" clip-rule="evenodd" d="M153.668 135.533C153.405 135.029 153.021 134.77 152.647 134.364C149.831 135.544 147.709 135.844 144.837 134.511C138.917 131.764 136.523 117.838 137.824 113.076C137.23 112.731 136.758 112.156 136.363 111.609C135.975 115.737 135.57 117.19 136.382 121.926C136.934 125.153 137.869 127.881 139.139 130.419C140.627 133.394 141.58 134.672 144.64 136.169C145.617 136.647 147.804 137.155 149.33 136.957C151.028 136.736 152.419 136.36 153.668 135.533Z" fill="#138B96" stroke="#138B96" stroke-width="0.944882" stroke-miterlimit="22.9256"/>
<path id="Vector_7" fill-rule="evenodd" clip-rule="evenodd" d="M139.285 102.742C139.793 103.01 140.04 103.39 140.454 103.761L140.895 103.101C141.024 102.838 141.121 102.609 141.283 102.316C144.876 95.8307 154.466 96.9917 156.729 104.208C157.986 108.214 155.741 110.519 155.449 111.716C155.723 112.217 156.172 112.666 156.673 112.941C157.831 109.996 159.504 108.248 158.4 104.144C158.031 102.772 157.324 101.574 156.529 100.463C155.956 99.6616 155.238 98.9866 154.506 98.3947C152.129 96.4732 148.12 95.8065 144.751 97.1626C143.55 97.6456 142.274 98.5614 141.438 99.4023C140.786 100.058 139.556 101.808 139.285 102.742Z" fill="#138B96" stroke="#138B96" stroke-width="0.944882" stroke-miterlimit="22.9256"/>
<path id="Vector_8" fill-rule="evenodd" clip-rule="evenodd" d="M149.368 101.049C149.368 99.6207 145.369 99.8169 143.167 103.469C142.259 104.974 140.305 109.793 140.331 111.141C140.344 111.845 141.087 112.258 141.656 111.761C141.996 111.464 142.188 110.258 142.321 109.784C142.715 108.385 143.143 107.156 143.717 105.919C144.345 104.564 144.764 103.7 145.822 102.763C147.335 101.424 149.368 102.357 149.368 101.049Z" fill="#138B96" stroke="#138B96" stroke-width="0.944882" stroke-miterlimit="22.9256"/>
<path id="Vector_9" fill-rule="evenodd" clip-rule="evenodd" d="M179.907 100.464C179.56 100.569 179.361 100.346 179.22 100.953C178.782 102.846 182.25 100.723 184.34 104.945C185.284 106.852 185.915 108.49 186.421 110.608C186.582 111.281 186.757 112.146 187.597 111.959C188.404 111.779 188.2 111.036 188.032 110.316C187.861 109.583 187.679 108.958 187.452 108.262C186.719 106.017 185.625 103.101 183.729 101.611C182.907 100.965 181.161 100.27 180.205 100.371C179.993 100.393 179.972 100.445 179.907 100.464Z" fill="#138B96" stroke="#138B96" stroke-width="0.944882" stroke-miterlimit="22.9256"/>
<path id="Vector_10" fill-rule="evenodd" clip-rule="evenodd" d="M136.363 111.609C136.758 112.156 137.23 112.731 137.824 113.076C137.824 109.37 140.326 104.425 140.454 103.761C140.04 103.39 139.793 103.01 139.285 102.742C138.307 104.205 136.529 109.39 136.363 111.609Z" fill="#138B96" stroke="#138B96" stroke-width="0.944882" stroke-miterlimit="22.9256"/>
<path id="Vector_11" fill-rule="evenodd" clip-rule="evenodd" d="M151.836 145.47L152.874 146.508C153.569 145.949 154.837 143.856 157.778 142.629C158.563 142.301 159.187 142.111 159.951 141.816C159.624 141.189 159.107 141.049 158.928 140.502C157.702 140.739 155.747 141.801 154.834 142.462C154.09 143.001 152.123 144.571 151.836 145.47Z" fill="#138B96" stroke="#138B96" stroke-width="0.944882" stroke-miterlimit="22.9256"/>
<path id="Vector_12" fill-rule="evenodd" clip-rule="evenodd" d="M168.071 161.992C168.596 162.147 168.943 162.612 169.225 163.004C169.901 162.855 170.582 162.527 171.162 162.296C171.845 162.025 172.313 161.735 172.887 161.39C174 160.72 174.933 159.991 175.898 159.059C175.766 158.684 175.383 158.316 175.082 158.035C174.844 157.81 175.13 157.997 174.793 157.804C171.79 160.956 169.465 160.998 168.475 161.655L168.071 161.992Z" fill="#138B96" stroke="#138B96" stroke-width="0.944882" stroke-miterlimit="22.9256"/>
<path id="Vector_13" fill-rule="evenodd" clip-rule="evenodd" d="M190.574 125.597C191.444 125.597 191.504 124.987 191.688 124.228C192.117 122.463 192.447 121.506 191.158 121.506C190.362 121.506 189.885 124.743 189.885 124.746C189.877 125.129 190.123 125.597 190.574 125.597Z" fill="#138B96" stroke="#138B96" stroke-width="0.944882" stroke-miterlimit="22.9256"/>
</g>
</g>
</g>
<defs>
<filter id="filter0_d_190_787" x="-40" y="-36" width="325.669" height="268.976" filterUnits="userSpaceOnUse" color-interpolation-filters="sRGB">
<feFlood flood-opacity="0" result="BackgroundImageFix"/>
<feColorMatrix in="SourceAlpha" type="matrix" values="0 0 0 0 0 0 0 0 0 0 0 0 0 0 0 0 0 0 127 0" result="hardAlpha"/>
<feOffset dy="4"/>
<feGaussianBlur stdDeviation="20"/>
<feComposite in2="hardAlpha" operator="out"/>
<feColorMatrix type="matrix" values="0 0 0 0 0 0 0 0 0 0 0 0 0 0 0 0 0 0 0.25 0"/>
<feBlend mode="normal" in2="BackgroundImageFix" result="effect1_dropShadow_190_787"/>
<feBlend mode="normal" in="SourceGraphic" in2="effect1_dropShadow_190_787" result="shape"/>
</filter>
</defs>
</svg>
